<?xml version="1.0" encoding="UTF-8" standalone="no"?>
<!-- Created with Inkscape (http://www.inkscape.org/) -->

<svg
   width="210mm"
   height="297mm"
   viewBox="0 0 210 297"
   version="1.1"
   id="svg1"
   xmlns:xlink="http://www.w3.org/1999/xlink"
   xmlns="http://www.w3.org/2000/svg"
   xmlns:svg="http://www.w3.org/2000/svg">
  <defs
     id="defs1">
    <linearGradient
       id="linearGradient6">
      <stop
         style="stop-color:#008000;stop-opacity:1;"
         offset="0.75478929"
         id="stop6" />
      <stop
         style="stop-color:#008000;stop-opacity:0;"
         offset="1"
         id="stop7" />
    </linearGradient>
    <linearGradient
       xlink:href="#linearGradient6"
       id="linearGradient7"
       x1="121.55907"
       y1="109.87459"
       x2="157.38428"
       y2="109.87459"
       gradientUnits="userSpaceOnUse" />
    <linearGradient
       xlink:href="#linearGradient6"
       id="linearGradient9"
       gradientUnits="userSpaceOnUse"
       x1="121.55907"
       y1="109.87459"
       x2="157.38428"
       y2="109.87459"
       gradientTransform="matrix(1,0,0.72727553,1,-63.629823,33.811126)" />
    <linearGradient
       xlink:href="#linearGradient6"
       id="linearGradient15"
       gradientUnits="userSpaceOnUse"
       gradientTransform="matrix(1,0,0.34224217,1,-43.888207,88.754203)"
       x1="121.55907"
       y1="109.87459"
       x2="157.38428"
       y2="109.87459" />
    <linearGradient
       xlink:href="#linearGradient6"
       id="linearGradient16"
       gradientUnits="userSpaceOnUse"
       x1="121.55907"
       y1="109.87459"
       x2="157.38428"
       y2="109.87459"
       gradientTransform="matrix(1,0,-0.38503336,1,35.833766,58.016817)" />
    <linearGradient
       xlink:href="#linearGradient6"
       id="linearGradient26"
       gradientUnits="userSpaceOnUse"
       gradientTransform="matrix(-1.1284817,0,-0.38621403,0.99981978,291.57071,84.537677)"
       x1="121.55907"
       y1="109.87459"
       x2="157.38428"
       y2="109.87459" />
    <linearGradient
       xlink:href="#linearGradient6"
       id="linearGradient27"
       gradientUnits="userSpaceOnUse"
       gradientTransform="matrix(-1.1284817,0,0.53435408,0.99981978,203.44331,49.195223)"
       x1="121.55907"
       y1="109.87459"
       x2="157.38428"
       y2="109.87459" />
    <linearGradient
       xlink:href="#linearGradient6"
       id="linearGradient28"
       gradientUnits="userSpaceOnUse"
       x1="121.55907"
       y1="109.87459"
       x2="157.38428"
       y2="109.87459"
       gradientTransform="matrix(-1.1284817,0,0.09985097,0.99981978,246.15658,-14.574398)" />
  </defs>
  <g
     id="layer1">
    <path
       style="fill:#7f6b1a;stroke:#000000;stroke-width:0.365001;stroke-opacity:1;fill-opacity:1"
       d="m 49.179818,240.90426 c 3.842173,11.14231 7.300129,25.35835 21.51617,23.82147 14.216042,-1.53686 43.416562,-4.99482 51.869342,-4.6106 8.45278,0.38422 19.59508,5.37905 25.74256,-1.92109 6.14748,-7.30012 14.60026,-19.9793 3.07374,-28.81629 -11.52652,-8.837 -48.02717,-23.82148 -56.864167,-15.75292 -8.836999,8.06857 -33.04269,7.30013 -40.34282,11.52652 -7.300129,4.2264 -4.994825,15.75291 -4.994825,15.75291 z"
       id="path1" />
    <path
       style="fill:#362a00;fill-opacity:1;stroke:#000000;stroke-width:0.365001;stroke-opacity:1"
       d="m 82.030401,231.87517 c -9.989651,4.03428 0.193484,15.19115 16.905562,16.13712 20.363507,1.15265 23.830207,-1.16139 28.047857,-5.37904 4.22639,-4.22639 5.57116,-10.18175 -8.06856,-16.13713 -15.24306,-6.65542 -36.884859,5.37905 -36.884859,5.37905 z"
       id="path2" />
    <path
       style="fill:#362a00;fill-opacity:1;stroke:none;stroke-width:0.365001;stroke-opacity:1"
       d="m 92.596376,236.67788 c 16.137124,11.1423 26.895214,0.38421 26.895214,0.38421 0,0 -3.45796,10.37387 0,1.15265 3.45796,-9.22121 18.06241,-35.12002 13.68399,-42.8765 -3.43125,-6.07854 6.61297,-24.1005 3.22157,-27.43527 -8.15859,-8.02234 -4.70446,-14.4598 0.57398,-23.39864 5.00283,-8.47209 -3.15896,-37.10194 -5.95302,-48.065781 -3.03773,-11.919975 -28.79368,-61.727146 -30.33055,-57.884973 -1.536869,3.842173 -11.627398,30.285072 5.25189,40.225599 5.19085,3.056985 14.26121,34.313545 11.63105,41.096635 -2.36687,6.10411 -13.03608,9.01545 -11.08768,23.98062 1.68947,12.97645 -3.35189,28.75094 1.19126,45.78778 4.6106,17.28978 -15.077704,47.03367 -15.077704,47.03367 z"
       id="path3" />
    <path
       style="fill:#008000;fill-opacity:1;stroke:#0a0a0a;stroke-width:0.365001;stroke-opacity:1"
       d="m 123.82138,84.427392 c 0.36225,0.09056 0.76033,0.09035 1.08673,0.271682 0.96633,0.536848 1.76198,1.344782 2.71683,1.90178 3.99238,2.328887 -0.37328,-0.186639 4.34692,2.17346 0.65305,0.326522 1.21814,0.830368 1.90178,1.086731 0.78177,0.293164 1.64414,0.307776 2.44515,0.543367 0.74231,0.218326 1.41148,0.68058 2.17346,0.815046 0.80264,0.141645 1.6319,-0.05422 2.44514,0 1.42442,0.09496 2.8974,0.513271 4.34692,0.271685 2.47317,-0.412197 4.98799,-0.998916 7.33544,-1.90178 1.2102,-0.465466 2.28992,-1.257512 3.53187,-1.630095 0.34697,-0.10409 0.74308,0.114551 1.08673,0 0.243,-0.081 0.30554,-0.448236 0.54337,-0.543367 0.25225,-0.100899 0.55731,0.08591 0.81505,0 1.8643,-1.242865 -0.19642,-0.08674 1.63009,-0.543365 0.12425,-0.03106 0.20064,-0.165121 0.27168,-0.271682 0.22374,-0.335608 0.9316,-1.048139 1.08673,-1.358413 0.0833,-0.166666 0.35096,-1.550826 0.27169,-1.630098 -0.0977,-0.09766 -6.34075,-0.02302 -7.33544,-0.271682 -0.3929,-0.09823 -0.70251,-0.415292 -1.08672,-0.543364 -0.17183,-0.05728 -0.36225,0 -0.54337,0 -0.27168,-0.09056 -0.54691,-0.17113 -0.81505,-0.271685 -0.83513,-0.313174 -1.59899,-0.80468 -2.44514,-1.086728 -0.17183,-0.05728 -0.36765,0.04393 -0.54337,0 -2.47618,-0.619048 -5.07028,-0.935609 -7.60711,-1.358416 -1.6738,-0.278966 -3.37388,-1.32593 -5.16197,-0.815046 -0.31396,0.0897 -0.50109,0.453662 -0.81505,0.543364 -3.80356,1.086731 0.54336,-0.543364 -1.6301,0 -0.87839,0.219599 -1.632,0.781804 -2.44514,1.086731 -1.24002,0.465008 -1.16792,0.04059 -2.17346,0.543367 -0.45533,0.227663 -1.27291,0.908132 -1.6301,1.086728 -0.162,0.081 -0.38136,-0.081 -0.54337,0 -0.2291,0.114552 -0.32372,0.411581 -0.54336,0.543367 -0.86821,0.520928 -1.83773,0.856073 -2.71683,1.358413 z"
       id="path4" />
    <path
       style="fill:#008000;fill-opacity:1;stroke:#0a0a0a;stroke-width:0.365001;stroke-opacity:1"
       d="m 125.78546,90.379255 c 0.30608,0.213881 0.67803,0.355722 0.91828,0.641524 0.71119,0.846287 1.16623,1.884919 1.85951,2.745934 2.89873,3.600031 -0.28213,-0.307536 3.28539,3.581321 0.49357,0.53802 0.84171,1.21033 1.3889,1.69373 0.62572,0.55279 1.42612,0.87412 2.09036,1.379986 0.61556,0.4688 1.07577,1.13939 1.73963,1.53687 0.69928,0.41868 1.54384,0.5316 2.28422,0.87238 1.29678,0.59695 2.52359,1.51323 3.96391,1.8047 2.45747,0.4973 5.01611,0.84644 7.5312,0.84052 1.29662,-0.003 2.58787,-0.35775 3.88101,-0.26271 0.36128,0.0266 0.65331,0.37213 1.01521,0.38773 0.25591,0.011 0.44536,-0.30973 0.70148,-0.31375 0.27165,-0.004 0.48998,0.27909 0.76141,0.2908 2.18504,-0.49593 -0.15256,-0.15108 1.71667,0.074 0.12717,0.0153 0.24635,-0.0827 0.35073,-0.15687 0.32876,-0.23369 1.24425,-0.64678 1.49987,-0.88128 0.13728,-0.12598 0.88117,-1.32355 0.8354,-1.42589 -0.0564,-0.12613 -5.91525,-2.28375 -6.75575,-2.87096 -0.33201,-0.23191 -0.50811,-0.638596 -0.82134,-0.895326 -0.14008,-0.11483 -0.33841,-0.12924 -0.50761,-0.19386 -0.22148,-0.18157 -0.44986,-0.35499 -0.66448,-0.54459 -0.66843,-0.59053 -1.20666,-1.32222 -1.8965,-1.88759 -0.14008,-0.11482 -0.35912,-0.0901 -0.50761,-0.19387 -2.09235,-1.46176 -4.40278,-2.683011 -6.62181,-3.983085 -1.46412,-0.857786 -2.67877,-2.442404 -4.53146,-2.603099 -0.3253,-0.02822 -0.62997,0.245027 -0.95527,0.21681 -3.94097,-0.341826 0.70146,-0.313743 -1.52282,-0.581588 -0.89893,-0.108246 -1.80353,0.148085 -2.67195,0.142832 -1.32431,-0.008 -1.10554,-0.378773 -2.22428,-0.267843 -0.50659,0.05023 -1.51314,0.394214 -1.91054,0.433621 -0.18024,0.01787 -0.32737,-0.211731 -0.50761,-0.193864 -0.2549,0.02527 -0.44926,0.268996 -0.70147,0.313749 -0.99692,0.176877 -2.02221,0.144064 -3.02268,0.299698 z"
       id="path5" />
    <path
       style="fill:url(#linearGradient7);fill-opacity:1;stroke:#0a0a0a;stroke-width:0.365001;stroke-opacity:1"
       d="m 121.55907,102.67421 c 0.30608,0.21388 0.67803,0.35572 0.91828,0.64152 0.71119,0.84629 1.16623,1.88492 1.85951,2.74594 2.89873,3.60003 -0.28213,-0.30754 3.28539,3.58132 0.49357,0.53802 0.84171,1.21033 1.3889,1.69373 0.62572,0.55279 1.42612,0.87412 2.09036,1.37999 0.61556,0.4688 1.07577,1.13938 1.73963,1.53686 0.69928,0.41868 1.54384,0.5316 2.28422,0.87238 1.29678,0.59695 2.52359,1.51323 3.96391,1.8047 2.45747,0.4973 5.01611,0.84644 7.5312,0.84052 1.29662,-0.003 2.58787,-0.35775 3.88101,-0.26271 0.36128,0.0266 0.65331,0.37213 1.01521,0.38773 0.25591,0.011 0.44536,-0.30973 0.70148,-0.31375 0.27165,-0.004 0.48998,0.27909 0.76141,0.2908 2.18504,-0.49593 -0.15256,-0.15108 1.71667,0.074 0.12717,0.0153 0.24635,-0.0827 0.35073,-0.15687 0.32876,-0.23369 1.24425,-0.64678 1.49987,-0.88128 0.13728,-0.12598 0.88117,-1.32355 0.8354,-1.42589 -0.0564,-0.12613 -5.91525,-2.28374 -6.75575,-2.87095 -0.33201,-0.23191 -0.50811,-0.6386 -0.82134,-0.89533 -0.14008,-0.11483 -0.33841,-0.12924 -0.50761,-0.19386 -0.22148,-0.18157 -0.44986,-0.35499 -0.66448,-0.54459 -0.66843,-0.59053 -1.20666,-1.32222 -1.8965,-1.88759 -0.14008,-0.11482 -0.35912,-0.0901 -0.50761,-0.19387 -2.09235,-1.46176 -4.40278,-2.68301 -6.62181,-3.98309 -1.46412,-0.85778 -2.67877,-2.4424 -4.53146,-2.60309 -0.3253,-0.0282 -0.62997,0.24502 -0.95527,0.21681 -3.94097,-0.34183 0.70146,-0.31375 -1.52282,-0.58159 -0.89893,-0.10825 -1.80353,0.14808 -2.67195,0.14283 -1.32431,-0.008 -1.10554,-0.37877 -2.22428,-0.26784 -0.50659,0.0502 -1.51314,0.39421 -1.91054,0.43362 -0.18024,0.0179 -0.32737,-0.21173 -0.50761,-0.19387 -0.2549,0.0253 -0.44926,0.269 -0.70147,0.31375 -0.99692,0.17688 -2.02221,0.14407 -3.02268,0.2997 z"
       id="path6" />
    <path
       style="fill:#008000;fill-opacity:1;stroke:#0a0a0a;stroke-width:0.365001;stroke-opacity:1"
       d="m 125.12134,120.92803 c 0.42815,0.0906 0.82601,0.0903 1.28433,0.27169 1.35676,0.53684 2.74,1.34478 4.09995,1.90178 5.68611,2.32888 -0.50902,-0.18664 5.92762,2.17346 0.89052,0.32652 1.82204,0.83036 2.69213,1.08673 0.99498,0.29316 1.86798,0.30777 2.84032,0.54336 0.9011,0.21833 1.90645,0.68058 2.76623,0.81505 0.90566,0.14165 1.59248,-0.0542 2.44514,0 1.49351,0.095 3.27069,0.51327 4.54451,0.27169 2.17339,-0.4122 4.2615,-0.99892 5.95233,-1.90178 0.87167,-0.46547 1.37535,-1.25752 2.34633,-1.6301 0.27127,-0.10409 0.82639,0.11455 1.08673,0 0.18409,-0.081 -0.0205,-0.44824 0.14819,-0.54337 0.17887,-0.1009 0.61979,0.0859 0.81505,0 0.9604,-1.24286 -0.25947,-0.0867 1.23492,-0.54336 0.10163,-0.0311 0.0805,-0.16512 0.0741,-0.27168 -0.0204,-0.33561 0.16931,-1.04814 0.0988,-1.35842 -0.0379,-0.16666 -0.77691,-1.55082 -0.91383,-1.63009 -0.16876,-0.0977 -6.35748,-0.023 -7.53304,-0.27169 -0.46432,-0.0982 -1.00454,-0.41529 -1.48189,-0.54336 -0.2135,-0.0573 -0.36225,0 -0.54337,0 -0.33757,-0.0906 -0.67137,-0.17113 -1.01264,-0.27169 -1.06289,-0.31317 -2.18422,-0.80468 -3.23549,-1.08672 -0.2135,-0.0573 -0.33572,0.0439 -0.54337,0 -2.9264,-0.61905 -5.75072,-0.93561 -8.59505,-1.35842 -1.87669,-0.27897 -4.3382,-1.32593 -5.75474,-0.81505 -0.24872,0.0897 -0.17115,0.45367 -0.41987,0.54337 -3.01321,1.08673 0.14818,-0.54337 -1.6301,0 -0.71868,0.2196 -1.06342,0.7818 -1.65479,1.08673 -0.90183,0.46501 -1.13839,0.0406 -1.77828,0.54337 -0.28976,0.22766 -0.61245,0.90813 -0.83975,1.08672 -0.10309,0.081 -0.44027,-0.081 -0.54337,0 -0.14579,0.11456 -0.0244,0.41159 -0.14818,0.54337 -0.48935,0.52093 -1.21514,0.85607 -1.7289,1.35841 z"
       id="path7" />
    <path
       style="fill:#008000;fill-opacity:1;stroke:#0a0a0a;stroke-width:0.365001;stroke-opacity:1"
       d="m 125.23166,122.65351 c 0.46163,0.21388 0.93674,0.35572 1.38484,0.64152 1.32668,0.84629 2.53709,1.88492 3.85656,2.74593 5.51695,3.60004 -0.50579,-0.30753 5.89,3.58133 0.88486,0.53802 1.72196,1.21033 2.62071,1.69373 1.02775,0.55279 2.06185,0.87412 3.094,1.37999 0.9565,0.4688 1.90441,1.13938 2.85735,1.53686 1.00377,0.41868 1.93046,0.5316 2.91868,0.87238 1.73092,0.59695 3.62412,1.51323 5.27642,1.8047 2.81915,0.4973 5.63171,0.84644 8.14249,0.84052 1.29444,-0.003 2.32769,-0.35775 3.68995,-0.26271 0.38062,0.0266 0.92395,0.37213 1.2972,0.38773 0.26391,0.011 0.2201,-0.30973 0.47329,-0.31375 0.26874,-0.004 0.69296,0.27909 0.9729,0.2908 1.82437,-0.49593 -0.26243,-0.15108 1.77049,0.074 0.1383,0.0153 0.18621,-0.0827 0.23664,-0.15687 0.15881,-0.23369 0.77387,-0.64678 0.85894,-0.88128 0.0457,-0.12598 -0.0814,-1.32355 -0.20161,-1.42589 -0.14813,-0.12613 -7.57616,-2.28374 -8.84373,-2.87095 -0.50067,-0.23191 -0.97254,-0.6386 -1.47249,-0.89533 -0.22359,-0.11483 -0.4324,-0.12924 -0.6486,-0.19386 -0.35353,-0.18157 -0.70803,-0.35499 -1.06054,-0.54459 -1.09791,-0.59053 -2.16828,-1.32222 -3.2693,-1.88759 -0.22359,-0.11482 -0.42465,-0.0901 -0.64861,-0.19387 -3.15545,-1.46176 -6.35407,-2.68302 -9.51861,-3.98309 -2.08797,-0.85779 -4.45507,-2.4424 -6.42463,-2.6031 -0.34581,-0.0282 -0.45177,0.24503 -0.79759,0.21681 -4.18957,-0.34182 0.47328,-0.31374 -1.9458,-0.58159 -0.97765,-0.10824 -1.69583,0.14809 -2.56806,0.14284 -1.33013,-0.008 -1.38102,-0.37878 -2.41909,-0.26785 -0.47008,0.0502 -1.22643,0.39422 -1.59517,0.43362 -0.16723,0.0179 -0.48136,-0.21173 -0.6486,-0.19386 -0.2365,0.0253 -0.25363,0.269 -0.47329,0.31375 -0.86828,0.17688 -1.91744,0.14406 -2.80472,0.2997 z"
       id="path8" />
    <path
       style="fill:url(#linearGradient9);fill-opacity:1;stroke:#0a0a0a;stroke-width:0.365001;stroke-opacity:1"
       d="m 132.60169,136.48533 c 0.46163,0.21388 0.93673,0.35572 1.38484,0.64152 1.32667,0.84629 2.53708,1.88492 3.85656,2.74594 5.51695,3.60003 -0.50579,-0.30754 5.89,3.58132 0.88486,0.53802 1.72195,1.21033 2.62071,1.69373 1.02775,0.55279 2.06184,0.87412 3.09399,1.37999 0.95651,0.4688 1.90441,1.13938 2.85735,1.53686 1.00378,0.41868 1.93046,0.5316 2.91868,0.87238 1.73093,0.59695 3.62413,1.51323 5.27643,1.8047 2.81914,0.4973 5.6317,0.84644 8.14249,0.84052 1.29443,-0.003 2.32768,-0.35775 3.68994,-0.26271 0.38063,0.0266 0.92395,0.37213 1.2972,0.38773 0.26391,0.011 0.2201,-0.30973 0.4733,-0.31375 0.26874,-0.004 0.69295,0.27909 0.9729,0.2908 1.82436,-0.49593 -0.26244,-0.15108 1.77049,0.074 0.13829,0.0153 0.1862,-0.0827 0.23664,-0.15687 0.1588,-0.23369 0.77386,-0.64678 0.85894,-0.88128 0.0456,-0.12598 -0.0814,-1.32355 -0.20162,-1.42589 -0.14813,-0.12613 -7.57616,-2.28374 -8.84372,-2.87095 -0.50067,-0.23191 -0.97255,-0.6386 -1.47249,-0.89533 -0.2236,-0.11483 -0.43241,-0.12924 -0.6486,-0.19386 -0.35353,-0.18157 -0.70804,-0.35499 -1.06055,-0.54459 -1.09791,-0.59053 -2.16828,-1.32222 -3.2693,-1.88759 -0.22358,-0.11482 -0.42464,-0.0901 -0.6486,-0.19387 -3.15546,-1.46176 -6.35407,-2.68301 -9.51862,-3.98309 -2.08796,-0.85778 -4.45507,-2.4424 -6.42462,-2.60309 -0.34581,-0.0282 -0.45177,0.24502 -0.79759,0.21681 -4.18958,-0.34183 0.47328,-0.31375 -1.9458,-0.58159 -0.97765,-0.10825 -1.69583,0.14808 -2.56807,0.14283 -1.33013,-0.008 -1.38101,-0.37877 -2.41907,-0.26784 -0.47008,0.0502 -1.22644,0.39421 -1.59518,0.43362 -0.16722,0.0179 -0.48136,-0.21173 -0.64861,-0.19387 -0.2365,0.0253 -0.25362,0.269 -0.47329,0.31375 -0.86828,0.17688 -1.91743,0.14407 -2.80471,0.2997 z"
       id="path9" />
    <path
       style="fill:#008000;fill-opacity:1;stroke:#0a0a0a;stroke-width:0.365001;stroke-opacity:1"
       d="m 127.85662,143.59687 c 0.32738,0.0906 0.72553,0.0904 0.98213,0.27168 0.75962,0.53685 1.24419,1.34478 1.98458,1.90178 3.09568,2.32889 -0.30142,-0.18664 3.51006,2.17346 0.52733,0.32652 0.89842,0.83037 1.48335,1.08673 0.6689,0.29317 1.52564,0.30778 2.23593,0.54337 0.65826,0.21833 1.14944,0.68058 1.85965,0.81505 0.7481,0.14164 1.65277,-0.0542 2.44514,0 1.38784,0.095 2.69977,0.51327 4.24232,0.27168 2.63188,-0.4122 5.37259,-0.99891 8.06769,-1.90178 1.38941,-0.46546 2.7741,-1.25751 4.15951,-1.63009 0.38704,-0.10409 0.69896,0.11455 1.08673,0 0.27418,-0.081 0.47812,-0.44824 0.75258,-0.54337 0.29109,-0.1009 0.52423,0.0859 0.81505,0 2.34284,-1.24287 -0.16305,-0.0867 1.8393,-0.54337 0.13622,-0.0311 0.26421,-0.16512 0.37629,-0.27168 0.35295,-0.33561 1.33516,-1.04814 1.60976,-1.35841 0.14747,-0.16667 0.94809,-1.55083 0.89933,-1.6301 -0.0601,-0.0977 -6.33189,-0.023 -7.23083,-0.27168 -0.35509,-0.0982 -0.5426,-0.41529 -0.87751,-0.54336 -0.14977,-0.0573 -0.36225,0 -0.54337,0 -0.23679,-0.0906 -0.48102,-0.17113 -0.71044,-0.27169 -0.71455,-0.31317 -1.28916,-0.80468 -2.02672,-1.08673 -0.14976,-0.0573 -0.38455,0.0439 -0.54337,0 -2.23782,-0.61905 -4.71002,-0.93561 -7.08407,-1.35841 -1.56638,-0.27897 -2.86335,-1.32593 -4.84814,-0.81505 -0.3485,0.0897 -0.67577,0.45366 -1.02427,0.54336 -4.22199,1.08674 0.75258,-0.54336 -1.6301,0 -0.96294,0.2196 -1.93301,0.78181 -2.86357,1.08674 -1.41906,0.465 -1.18355,0.0406 -2.38268,0.54336 -0.54299,0.22767 -1.62256,0.90813 -2.04852,1.08673 -0.19318,0.081 -0.35017,-0.081 -0.54337,0 -0.2732,0.11455 -0.4822,0.41158 -0.75257,0.54337 -1.06879,0.52093 -2.16735,0.85607 -3.23987,1.35841 z"
       id="path10" />
    <path
       style="fill:#008000;fill-opacity:1;stroke:#0a0a0a;stroke-width:0.365001;stroke-opacity:1"
       d="m 125.87507,146.85921 c 0.22373,0.21388 0.54107,0.35572 0.67127,0.64153 0.38534,0.84628 0.4405,1.88492 0.80224,2.74593 1.51259,3.60003 -0.16372,-0.30754 1.90645,3.58132 0.28642,0.53802 0.37571,1.21033 0.73677,1.69373 0.41287,0.55279 1.08956,0.87412 1.55902,1.37999 0.43505,0.4688 0.63706,1.13939 1.14788,1.53687 0.53808,0.41868 1.33915,0.5316 1.94832,0.87238 1.06694,0.59695 1.94095,1.51323 3.26905,1.8047 2.26599,0.4973 4.6902,0.84644 7.20757,0.84052 1.29777,-0.003 2.72561,-0.35775 3.98216,-0.26271 0.35104,0.0266 0.51002,0.37213 0.86592,0.38773 0.25167,0.011 0.56462,-0.30973 0.82228,-0.31375 0.27319,-0.004 0.38253,0.27909 0.64945,0.2908 2.37598,-0.49593 -0.0944,-0.15108 1.68817,0.074 0.12128,0.0153 0.27819,-0.0827 0.41113,-0.15687 0.41874,-0.23369 1.49328,-0.64678 1.8392,-0.88128 0.18578,-0.12598 1.39077,-1.32355 1.38442,-1.42589 -0.008,-0.12613 -5.03594,-2.28375 -5.65035,-2.87096 -0.24271,-0.23191 -0.26222,-0.6386 -0.4766,-0.89533 -0.0959,-0.11483 -0.28866,-0.12924 -0.43297,-0.19386 -0.15157,-0.18157 -0.31318,-0.35499 -0.4548,-0.54459 -0.44105,-0.59053 -0.69756,-1.32222 -1.16971,-1.88759 -0.0958,-0.11482 -0.32443,-0.0901 -0.43296,-0.19387 -1.52953,-1.46176 -3.36973,-2.68301 -5.0882,-3.98308 -1.13384,-0.85779 -1.73836,-2.44241 -3.52918,-2.6031 -0.31444,-0.0282 -0.7243,0.24502 -1.03875,0.21681 -3.80935,-0.34183 0.82227,-0.31375 -1.29888,-0.58159 -0.85726,-0.10825 -1.86055,0.14808 -2.72695,0.14283 -1.32123,-0.008 -0.95969,-0.37877 -2.12115,-0.26784 -0.52592,0.0502 -1.66492,0.39421 -2.0775,0.43362 -0.18713,0.0179 -0.24584,-0.21173 -0.43296,-0.19386 -0.26464,0.0253 -0.55284,0.26899 -0.82227,0.31374 -1.06503,0.17688 -2.07769,0.14407 -3.13808,0.2997 z"
       id="path11" />
    <path
       style="fill:url(#linearGradient16);fill-opacity:1;stroke:#0a0a0a;stroke-width:0.365001;stroke-opacity:1"
       d="m 117.85984,160.69104 c 0.22372,0.21388 0.54106,0.35572 0.67126,0.64152 0.38535,0.84629 0.4405,1.88492 0.80224,2.74594 1.5126,3.60003 -0.16371,-0.30754 1.90647,3.58132 0.28641,0.53802 0.37569,1.21033 0.73675,1.69373 0.41288,0.55279 1.08956,0.87412 1.55902,1.37999 0.43506,0.4688 0.63707,1.13938 1.14788,1.53686 0.53808,0.41868 1.33917,0.5316 1.94833,0.87238 1.06694,0.59695 1.94094,1.51323 3.26904,1.8047 2.266,0.4973 4.69021,0.84644 7.20757,0.84052 1.29778,-0.003 2.72562,-0.35775 3.98216,-0.26271 0.35104,0.0266 0.51003,0.37213 0.86593,0.38773 0.25166,0.011 0.56461,-0.30973 0.82228,-0.31375 0.27319,-0.004 0.38252,0.27909 0.64944,0.2908 2.376,-0.49593 -0.0944,-0.15108 1.68818,0.074 0.12128,0.0153 0.27819,-0.0827 0.41113,-0.15687 0.41874,-0.23369 1.49328,-0.64678 1.83919,-0.88128 0.18578,-0.12598 1.39079,-1.32355 1.38442,-1.42589 -0.008,-0.12613 -5.03594,-2.28374 -5.65034,-2.87095 -0.24272,-0.23191 -0.26223,-0.6386 -0.4766,-0.89533 -0.0958,-0.11483 -0.28866,-0.12924 -0.43298,-0.19386 -0.15156,-0.18157 -0.31318,-0.35499 -0.45479,-0.54459 -0.44105,-0.59053 -0.69756,-1.32222 -1.16972,-1.88759 -0.0959,-0.11482 -0.32443,-0.0901 -0.43295,-0.19387 -1.52954,-1.46176 -3.36974,-2.68301 -5.0882,-3.98309 -1.13385,-0.85778 -1.73837,-2.4424 -3.52918,-2.60309 -0.31444,-0.0282 -0.72431,0.24502 -1.03875,0.21681 -3.80935,-0.34183 0.82226,-0.31375 -1.29888,-0.58159 -0.85726,-0.10825 -1.86055,0.14808 -2.72694,0.14283 -1.32123,-0.008 -0.95971,-0.37877 -2.12117,-0.26784 -0.52591,0.0502 -1.66491,0.39421 -2.07749,0.43362 -0.18714,0.0179 -0.24585,-0.21173 -0.43297,-0.19387 -0.26464,0.0253 -0.55283,0.269 -0.82227,0.31375 -1.06502,0.17688 -2.07768,0.14407 -3.13808,0.2997 z"
       id="path12" />
    <path
       style="fill:#008000;fill-opacity:1;stroke:#0a0a0a;stroke-width:0.365001;stroke-opacity:1"
       d="m 113.44866,177.40799 c 0.39326,0.0906 0.79123,0.0903 1.17971,0.27169 1.15006,0.53684 2.22223,1.34478 3.3677,1.90178 4.78943,2.32888 -0.43715,-0.18664 5.09076,2.17346 0.76481,0.32652 1.50233,0.83036 2.27372,1.08673 0.8821,0.29316 1.74947,0.30777 2.6311,0.54336 0.81704,0.21833 1.6444,0.68058 2.45241,0.81505 0.85112,0.14165 1.61335,-0.0542 2.44514,0 1.45693,0.095 3.07306,0.51327 4.4399,0.27169 2.33209,-0.4122 4.64611,-0.99892 6.68458,-1.90178 1.05089,-0.46547 1.85953,-1.25752 2.97398,-1.6301 0.31134,-0.10409 0.78227,0.11455 1.08673,0 0.21527,-0.081 0.15207,-0.44824 0.3574,-0.54337 0.21772,-0.1009 0.58671,0.0859 0.81505,0 1.43895,-1.24286 -0.2261,-0.0867 1.44413,-0.54336 0.1136,-0.0311 0.14408,-0.16512 0.1787,-0.27168 0.10883,-0.33561 0.57289,-1.04814 0.62184,-1.35842 0.0262,-0.16666 -0.1798,-1.55082 -0.28623,-1.63009 -0.13114,-0.0977 -6.34863,-0.023 -7.42844,-0.27169 -0.4265,-0.0982 -0.84463,-0.41529 -1.27267,-0.54336 -0.19143,-0.0573 -0.36225,0 -0.54337,0 -0.30268,-0.0906 -0.60547,-0.17113 -0.90802,-0.27169 -0.94232,-0.31317 -1.8744,-0.80468 -2.81707,-1.08672 -0.19144,-0.0573 -0.35262,0.0439 -0.54337,0 -2.68805,-0.61905 -5.39049,-0.93561 -8.07202,-1.35842 -1.76928,-0.27897 -3.82768,-1.32593 -5.44092,-0.81505 -0.28326,0.0897 -0.34582,0.45367 -0.62909,0.54337 -3.43163,1.08673 0.3574,-0.54337 -1.6301,0 -0.80323,0.2196 -1.36443,0.7818 -2.07321,1.08673 -1.08087,0.46501 -1.15402,0.0406 -1.98749,0.54337 -0.37742,0.22766 -0.96212,0.90813 -1.25817,1.08672 -0.13429,0.081 -0.40909,-0.081 -0.54337,0 -0.18991,0.11456 -0.18288,0.41159 -0.3574,0.54337 -0.68993,0.52093 -1.54476,0.85607 -2.25193,1.35841 z"
       id="path13" />
    <path
       style="fill:#008000;fill-opacity:1;stroke:#0a0a0a;stroke-width:0.365001;stroke-opacity:1"
       d="m 113.83973,180.67034 c 0.37928,0.21388 0.79978,0.35572 1.13784,0.64152 1.00083,0.84629 1.81133,1.88492 2.79928,2.74593 4.13082,3.60004 -0.38738,-0.30753 4.51107,3.58133 0.67771,0.53802 1.25593,1.21033 1.96857,1.69373 0.81491,0.55279 1.72527,0.87412 2.56265,1.37999 0.77601,0.4688 1.46572,1.13938 2.26561,1.53686 0.84257,0.41868 1.72577,0.5316 2.58278,0.87238 1.50108,0.59695 3.04148,1.51323 4.58156,1.8047 2.62766,0.4973 5.3058,0.84644 7.81886,0.84052 1.29559,-0.003 2.46543,-0.35775 3.79109,-0.26271 0.37038,0.0266 0.78067,0.37213 1.14792,0.38773 0.25968,0.011 0.33936,-0.30973 0.59409,-0.31375 0.27028,-0.004 0.5855,0.27909 0.86094,0.2908 2.01532,-0.49593 -0.20427,-0.15108 1.742,0.074 0.1324,0.0153 0.21804,-0.0827 0.29703,-0.15687 0.24879,-0.23369 1.02291,-0.64678 1.19827,-0.88128 0.0942,-0.12598 0.4282,-1.32355 0.3474,-1.42589 -0.0996,-0.12613 -6.69684,-2.28374 -7.73832,-2.87095 -0.41137,-0.23191 -0.72666,-0.6386 -1.12775,-0.89533 -0.17938,-0.11483 -0.38264,-0.12924 -0.57396,-0.19386 -0.28362,-0.18157 -0.57135,-0.35499 -0.85086,-0.54459 -0.87053,-0.59053 -1.65918,-1.32222 -2.54252,-1.88759 -0.17937,-0.11482 -0.38995,-0.0901 -0.57395,-0.19387 -2.59263,-1.46176 -5.32102,-2.68302 -7.98499,-3.98309 -1.75769,-0.85779 -3.51467,-2.4424 -5.42235,-2.6031 -0.33495,-0.0282 -0.54611,0.24503 -0.88106,0.21681 -4.05797,-0.34182 0.59407,-0.31374 -1.72187,-0.58159 -0.93598,-0.10824 -1.75286,0.14809 -2.62307,0.14284 -1.32704,-0.008 -1.23518,-0.37878 -2.31595,-0.26785 -0.48942,0.0502 -1.37823,0.39422 -1.76214,0.43362 -0.17411,0.0179 -0.39983,-0.21173 -0.57395,-0.19386 -0.24624,0.0253 -0.35721,0.269 -0.5941,0.31375 -0.93638,0.17688 -1.9729,0.14406 -2.92011,0.2997 z"
       id="path14" />
    <path
       style="fill:url(#linearGradient15);fill-opacity:1;stroke:#0a0a0a;stroke-width:0.365001;stroke-opacity:1"
       d="m 112.81031,191.42842 c 0.37928,0.21388 0.79976,0.35572 1.13784,0.64152 1.00081,0.84629 1.81132,1.88492 2.79928,2.74594 4.13081,3.60003 -0.38738,-0.30754 4.51106,3.58132 0.67771,0.53802 1.25595,1.21033 1.96857,1.69373 0.81491,0.55279 1.72528,0.87412 2.56265,1.37999 0.77601,0.4688 1.46571,1.13938 2.26561,1.53686 0.84257,0.41868 1.72577,0.5316 2.58279,0.87238 1.50108,0.59695 3.04147,1.51323 4.58155,1.8047 2.62767,0.4973 5.3058,0.84644 7.81886,0.84052 1.29558,-0.003 2.46542,-0.35775 3.7911,-0.26271 0.37039,0.0266 0.78066,0.37213 1.1479,0.38773 0.25968,0.011 0.33937,-0.30973 0.59411,-0.31375 0.27028,-0.004 0.5855,0.27909 0.86093,0.2908 2.01531,-0.49593 -0.20427,-0.15108 1.74201,0.074 0.13239,0.0153 0.21804,-0.0827 0.29703,-0.15687 0.24879,-0.23369 1.0229,-0.64678 1.19827,-0.88128 0.0941,-0.12598 0.4282,-1.32355 0.34739,-1.42589 -0.0996,-0.12613 -6.69685,-2.28374 -7.73831,-2.87095 -0.41138,-0.23191 -0.72666,-0.6386 -1.12776,-0.89533 -0.17938,-0.11483 -0.38264,-0.12924 -0.57395,-0.19386 -0.28363,-0.18157 -0.57137,-0.35499 -0.85087,-0.54459 -0.87053,-0.59053 -1.65918,-1.32222 -2.54251,-1.88759 -0.17937,-0.11482 -0.38995,-0.0901 -0.57395,-0.19387 -2.59265,-1.46176 -5.32103,-2.68301 -7.985,-3.98309 -1.75769,-0.85778 -3.51467,-2.4424 -5.42235,-2.60309 -0.33495,-0.0282 -0.54611,0.24502 -0.88107,0.21681 -4.05796,-0.34183 0.59409,-0.31375 -1.72186,-0.58159 -0.93598,-0.10825 -1.75285,0.14808 -2.62307,0.14283 -1.32705,-0.008 -1.23517,-0.37877 -2.31595,-0.26784 -0.4894,0.0502 -1.37821,0.39421 -1.76214,0.43362 -0.1741,0.0179 -0.39983,-0.21173 -0.57396,-0.19387 -0.24624,0.0253 -0.35718,0.269 -0.59409,0.31375 -0.93638,0.17688 -1.97291,0.14407 -2.92011,0.2997 z"
       id="path15" />
    <path
       style="fill:#008000;fill-opacity:1;stroke:#0a0a0a;stroke-width:0.387706;stroke-opacity:1"
       d="m 113.67092,70.990222 c -0.39976,0.09054 -0.84899,0.09033 -1.19923,0.271633 -1.03688,0.536751 -1.85409,1.344539 -2.876,1.901437 -4.27278,2.328467 0.40261,-0.186605 -4.68839,2.173068 -0.70436,0.326464 -1.29174,0.830219 -2.03762,1.086536 -0.85294,0.293111 -1.82465,0.30772 -2.70504,0.543269 -0.815892,0.218286 -1.524877,0.680457 -2.371336,0.814899 -0.891616,0.141619 -1.846978,-0.05421 -2.75929,0 -1.59795,0.09494 -3.218416,0.513178 -4.878295,0.271636 -2.832085,-0.412123 -5.728598,-0.998736 -8.467804,-1.901438 -1.412166,-0.465382 -2.709697,-1.257285 -4.148418,-1.629801 -0.401942,-0.104071 -0.827114,0.114531 -1.226355,0 -0.282308,-0.08098 -0.389553,-0.448155 -0.667439,-0.543269 -0.294735,-0.100881 -0.620334,0.0859 -0.919769,0 -2.22793,-1.242641 0.212996,-0.08672 -1.893782,-0.543267 -0.143315,-0.03105 -0.242906,-0.165091 -0.333714,-0.271633 -0.285998,-0.335547 -1.155951,-1.04795 -1.361993,-1.358168 -0.110651,-0.166636 -0.550904,-1.550547 -0.469364,-1.629804 0.100502,-0.09764 7.153121,-0.02302 8.250782,-0.271633 0.433573,-0.09821 0.751302,-0.415218 1.172088,-0.543266 0.188188,-0.05727 0.408792,0 0.613183,0 0.297544,-0.09054 0.60009,-0.1711 0.892642,-0.271636 0.911158,-0.313118 1.724082,-0.804535 2.650785,-1.086533 0.188187,-0.05727 0.419271,0.04392 0.613183,0 2.732516,-0.618936 5.62829,-0.93544 8.448848,-1.358171 1.860993,-0.278916 3.674967,-1.325691 5.743802,-0.814899 0.363251,0.08968 0.610768,0.45358 0.974026,0.543266 4.40076,1.086535 -0.667426,-0.543266 1.83954,0 1.01317,0.21956 1.91974,0.781663 2.8678,1.086535 1.44577,0.464925 1.32204,0.04058 2.50698,0.543269 0.53655,0.227622 1.52712,0.907969 1.94804,1.086533 0.19089,0.08099 0.42227,-0.08099 0.61318,0 0.26997,0.114531 0.40641,0.411506 0.66743,0.543269 1.03177,0.520834 2.15932,0.855918 3.20153,1.358168 z"
       id="path16" />
    <path
       style="fill:#008000;fill-opacity:1;stroke:#0a0a0a;stroke-width:0.387706;stroke-opacity:1"
       d="m 114.81532,74.251976 c -0.32406,0.213842 -0.72963,0.355658 -0.97221,0.641408 -0.71807,0.846135 -1.12786,1.88458 -1.82424,2.745439 -2.9117,3.599383 0.28767,-0.30748 -3.3499,3.580676 -0.50327,0.537923 -0.829,1.210112 -1.39823,1.693425 -0.65092,0.55269 -1.52207,0.873962 -2.22114,1.379741 -0.64784,0.468715 -1.10022,1.13918 -1.80969,1.536588 -0.74731,0.418604 -1.68911,0.531504 -2.49059,0.872223 -1.403778,0.596842 -2.696729,1.512957 -4.292995,1.804374 -2.723555,0.497211 -5.576071,0.846288 -8.414896,0.840369 -1.463511,-0.003 -2.956086,-0.357686 -4.40588,-0.262663 -0.405041,0.0266 -0.700091,0.372063 -1.10693,0.38766 -0.287692,0.011 -0.533509,-0.309674 -0.822937,-0.313693 -0.30695,-0.004 -0.525066,0.27904 -0.830201,0.290748 -2.515296,-0.495841 0.157077,-0.151053 -1.929841,0.07399 -0.141981,0.0153 -0.286258,-0.08268 -0.411455,-0.156841 -0.394334,-0.233648 -1.468694,-0.646664 -1.780573,-0.881122 -0.167497,-0.125957 -1.126542,-1.323311 -1.085111,-1.425633 0.05106,-0.126107 6.447218,-2.283333 7.337074,-2.870437 0.35151,-0.231868 0.509628,-0.638485 0.837468,-0.895169 0.146611,-0.114809 0.368983,-0.129217 0.553471,-0.193825 0.231806,-0.181537 0.472213,-0.354926 0.695476,-0.544492 0.695347,-0.590423 1.229669,-1.321982 1.951687,-1.88725 0.146614,-0.114799 0.396266,-0.09008 0.553471,-0.193835 2.21522,-1.461496 4.700556,-2.682527 7.07488,-3.982367 1.566578,-0.857631 2.779062,-2.441964 4.853743,-2.60263 0.364283,-0.02822 0.735379,0.244983 1.099649,0.216771 4.41319,-0.341764 -0.822909,-0.313686 1.6604,-0.581483 1.00363,-0.108226 2.05004,0.148058 3.02952,0.142806 1.49366,-0.008 1.20976,-0.378704 2.48331,-0.267794 0.57669,0.05022 1.74692,0.394143 2.1993,0.433542 0.20519,0.01787 0.3483,-0.211692 0.55348,-0.193829 0.29017,0.02527 0.53384,0.268948 0.82293,0.313693 1.14266,0.176845 2.2964,0.144038 3.44095,0.299644 z"
       id="path17" />
    <path
       style="fill:url(#linearGradient28);fill-opacity:1;stroke:#0a0a0a;stroke-width:0.387706;stroke-opacity:1"
       d="m 119.23152,88.081307 c -0.32406,0.213841 -0.72964,0.355656 -0.97221,0.641404 -0.71807,0.846138 -1.12786,1.884581 -1.82425,2.745441 -2.91169,3.599388 0.28768,-0.30748 -3.3499,3.580678 -0.50327,0.53792 -0.829,1.21011 -1.39823,1.69342 -0.65091,0.5527 -1.52206,0.87397 -2.22115,1.37975 -0.64783,0.46871 -1.10021,1.13917 -1.80967,1.53658 -0.74732,0.4186 -1.68911,0.5315 -2.49059,0.87222 -1.40379,0.59684 -2.69673,1.51296 -4.293,1.80438 -2.723555,0.49721 -5.576072,0.84628 -8.414896,0.84037 -1.463511,-0.003 -2.956086,-0.35769 -4.405881,-0.26267 -0.40504,0.0266 -0.70009,0.37207 -1.106931,0.38766 -0.287691,0.011 -0.533506,-0.30967 -0.822935,-0.31369 -0.306951,-0.004 -0.525067,0.27904 -0.830201,0.29075 -2.515296,-0.49584 0.157076,-0.15106 -1.929839,0.074 -0.141981,0.0153 -0.286262,-0.0827 -0.411456,-0.15684 -0.394335,-0.23365 -1.468694,-0.64666 -1.780572,-0.88112 -0.167499,-0.12596 -1.126542,-1.32331 -1.08511,-1.42563 0.05106,-0.12611 6.447217,-2.28333 7.337072,-2.87044 0.351512,-0.23186 0.509629,-0.63848 0.837468,-0.89516 0.146613,-0.11481 0.368985,-0.12922 0.553472,-0.19383 0.231805,-0.18154 0.472213,-0.35492 0.695476,-0.54449 0.695346,-0.59042 1.229669,-1.32198 1.951687,-1.88725 0.146612,-0.1148 0.396261,-0.0901 0.553469,-0.19384 2.215223,-1.461488 4.700558,-2.682518 7.074878,-3.982368 1.566579,-0.857624 2.779069,-2.441958 4.853749,-2.60262 0.36428,-0.02819 0.73537,0.244976 1.09965,0.216771 4.41318,-0.341768 -0.8229,-0.313693 1.66041,-0.581485 1.00361,-0.10823 2.05002,0.148054 3.0295,0.142804 1.49366,-0.008 1.20977,-0.378701 2.48332,-0.267791 0.57668,0.05019 1.74691,0.394139 2.1993,0.433542 0.20519,0.0179 0.34829,-0.211692 0.55348,-0.193835 0.29017,0.02529 0.53384,0.268951 0.82292,0.313693 1.14267,0.176848 2.29641,0.144044 3.44096,0.299646 z"
       id="path18" />
    <path
       style="fill:#008000;fill-opacity:1;stroke:#0a0a0a;stroke-width:0.387706;stroke-opacity:1"
       d="m 118.61508,104.79524 c -0.47411,0.0906 -0.92311,0.0903 -1.42222,0.27164 -1.47747,0.53675 -2.95775,1.34454 -4.43681,1.90144 -6.18413,2.32846 0.55577,-0.1866 -6.47219,2.17307 -0.97233,0.32646 -1.97323,0.83021 -2.92951,1.08653 -1.09354,0.29311 -2.07725,0.30772 -3.15099,0.54327 -0.995078,0.21829 -2.083441,0.68045 -3.040259,0.8149 -1.007878,0.14162 -1.802499,-0.0542 -2.759296,0 -1.67591,0.095 -3.639664,0.51318 -5.101268,0.27164 -2.49379,-0.41213 -4.908768,-0.99874 -6.906992,-1.90144 -1.03014,-0.46538 -1.67762,-1.25729 -2.810556,-1.6298 -0.316517,-0.10407 -0.921127,0.11453 -1.226355,0 -0.215832,-0.081 -0.02162,-0.44816 -0.221489,-0.54328 -0.211926,-0.10088 -0.690843,0.0859 -0.919769,0 -1.207894,-1.24263 0.284147,-0.0867 -1.44784,-0.54326 -0.117793,-0.0311 -0.107326,-0.16509 -0.110745,-0.27163 -0.01049,-0.33555 -0.295722,-1.04795 -0.247133,-1.35817 0.02613,-0.16663 0.721878,-1.55054 0.868474,-1.6298 0.180685,-0.0977 7.172003,-0.023 8.47377,-0.27164 0.514168,-0.0982 1.092137,-0.41522 1.61803,-0.54326 0.235209,-0.0573 0.408793,0 0.613184,0 0.371894,-0.0906 0.740542,-0.1711 1.115616,-0.27164 1.168183,-0.31312 2.384505,-0.80454 3.542682,-1.08653 0.235208,-0.0573 0.383239,0.0439 0.613183,0 3.240576,-0.61894 6.396162,-0.93544 9.563713,-1.35817 2.08996,-0.27892 4.76319,-1.32569 6.41273,-0.81491 0.28964,0.0897 0.23842,0.45359 0.52808,0.54328 3.50886,1.08653 -0.22152,-0.54328 1.83954,0 0.83294,0.21956 1.27811,0.78165 1.97591,1.08653 1.06413,0.46493 1.2887,0.0406 2.06101,0.54327 0.34972,0.22762 0.78181,0.90797 1.05616,1.08653 0.12443,0.081 0.48874,-0.081 0.61318,0 0.17596,0.11454 0.0687,0.41151 0.22151,0.54327 0.60424,0.52083 1.45674,0.85591 2.08667,1.35816 z"
       id="path19" />
    <path
       style="fill:#008000;fill-opacity:1;stroke:#0a0a0a;stroke-width:0.387706;stroke-opacity:1"
       d="m 116.88455,108.05701 c -0.49187,0.21384 -1.00874,0.35565 -1.47556,0.6414 -1.38207,0.84614 -2.60678,1.88458 -3.97872,2.74543 -5.7363,3.5994 0.52897,-0.30747 -6.15982,3.58069 -0.9254,0.53792 -1.77864,1.21011 -2.72714,1.69342 -1.08464,0.55269 -2.20791,0.87397 -3.303896,1.37975 -1.015654,0.46871 -1.99418,1.13917 -3.015513,1.53658 -1.075812,0.4186 -2.106212,0.5315 -3.175066,0.87222 -1.872149,0.59684 -3.884011,1.51296 -5.708972,1.80438 -3.113746,0.49721 -6.240199,0.84628 -9.074373,0.84036 -1.461159,-0.003 -2.675395,-0.35768 -4.19976,-0.26266 -0.425905,0.0266 -0.992064,0.37206 -1.411149,0.38766 -0.296323,0.011 -0.29049,-0.30967 -0.576757,-0.31369 -0.303812,-0.004 -0.744048,0.27904 -1.058362,0.29075 -2.126195,-0.49584 0.275605,-0.15106 -1.987902,0.074 -0.153989,0.0153 -0.221381,-0.0827 -0.288373,-0.15684 -0.210988,-0.23365 -0.961235,-0.64666 -1.089118,-0.88112 -0.0687,-0.12596 -0.08809,-1.32331 0.03364,-1.42563 0.150013,-0.12611 8.239057,-2.28333 9.589647,-2.87044 0.533467,-0.23186 1.010669,-0.63848 1.539948,-0.89516 0.236704,-0.11481 0.470383,-0.12922 0.705574,-0.19383 0.374267,-0.18154 0.750734,-0.35493 1.122757,-0.54449 1.158683,-0.59042 2.267094,-1.32198 3.432706,-1.88725 0.236705,-0.1148 0.466957,-0.0901 0.705584,-0.19384 3.362124,-1.46149 6.805663,-2.68253 10.200027,-3.98237 2.23961,-0.85763 4.695392,-2.44196 6.896158,-2.60263 0.3864,-0.0282 0.54313,0.24499 0.92954,0.21677 4.68138,-0.34176 -0.57674,-0.31368 2.11673,-0.58148 1.08854,-0.10822 1.93384,0.14806 2.91743,0.14281 1.49994,-0.008 1.50695,-0.37871 2.69348,-0.2678 0.5373,0.0502 1.4376,0.39415 1.85907,0.43354 0.19115,0.0179 0.51443,-0.21169 0.70558,-0.19382 0.27033,0.0253 0.32279,0.26895 0.57676,0.31369 1.00389,0.17685 2.18338,0.14403 3.20582,0.29965 z"
       id="path20" />
    <path
       style="fill:#008000;fill-opacity:1;stroke:#0a0a0a;stroke-width:0.387706;stroke-opacity:1"
       d="m 116.211,128.99659 c -0.36039,0.0906 -0.80972,0.0904 -1.08119,0.27163 -0.80361,0.53675 -1.26976,1.34454 -2.04966,1.90144 -3.26088,2.32847 0.32151,-0.18661 -3.74402,2.17307 -0.56248,0.32646 -0.93094,0.83022 -1.56542,1.08653 -0.72557,0.29312 -1.69092,0.30773 -2.46895,0.54327 -0.72103,0.21829 -1.22916,0.68046 -2.01719,0.81491 -0.83008,0.14161 -1.87054,-0.0542 -2.7593,0 -1.556664,0.095 -2.995393,0.51317 -4.760254,0.27163 -3.011188,-0.41213 -6.162611,-0.99873 -9.294137,-1.90144 -1.614401,-0.46538 -3.256082,-1.25728 -4.856696,-1.6298 -0.447161,-0.10407 -0.777325,0.11453 -1.226355,0 -0.317498,-0.081 -0.584306,-0.44816 -0.903528,-0.54327 -0.338564,-0.10088 -0.583005,0.0859 -0.919769,0 -2.767953,-1.24264 0.175338,-0.0867 -2.129873,-0.54327 -0.156828,-0.0311 -0.314644,-0.16509 -0.451764,-0.27163 -0.431808,-0.33555 -1.61136,-1.04795 -1.952224,-1.35817 -0.183059,-0.16664 -1.224753,-1.55055 -1.177643,-1.6298 0.05806,-0.0977 7.143124,-0.023 8.132731,-0.27163 0.390905,-0.0982 0.570847,-0.41522 0.935998,-0.54327 0.16329,-0.0573 0.408793,0 0.613183,0 0.258166,-0.0906 0.525736,-0.17109 0.774591,-0.27164 0.775087,-0.31311 1.374446,-0.80453 2.178606,-1.08653 0.163278,-0.0573 0.438342,0.0439 0.613183,0 2.463526,-0.61894 5.221751,-0.93544 7.858605,-1.35817 1.739775,-0.27892 3.098841,-1.32569 5.389653,-0.8149 0.402236,0.0897 0.807893,0.45358 1.210123,0.54326 4.87295,1.08655 -0.903526,-0.54326 1.83954,0 1.10859,0.21956 2.25943,0.78167 3.34,1.08655 1.64781,0.46491 1.33967,0.0406 2.74306,0.54326 0.63549,0.22763 1.92171,0.90797 2.42023,1.08653 0.22609,0.081 0.38707,-0.081 0.61318,0 0.31974,0.11453 0.58525,0.41151 0.90352,0.54328 1.25813,0.52083 2.53129,0.85591 3.79177,1.35816 z"
       id="path21" />
    <path
       style="fill:#008000;fill-opacity:1;stroke:#0a0a0a;stroke-width:0.387706;stroke-opacity:1"
       d="m 118.77289,132.25834 c -0.23112,0.21384 -0.57506,0.35566 -0.69346,0.64142 -0.35034,0.84612 -0.30888,1.88458 -0.63112,2.74543 -1.34747,3.59938 0.15404,-0.30748 -1.7938,3.58068 -0.2695,0.53792 -0.30313,1.21011 -0.66231,1.69342 -0.41072,0.55269 -1.14227,0.87396 -1.62153,1.37974 -0.44414,0.46872 -0.60514,1.13919 -1.14191,1.5366 -0.5654,0.4186 -1.45812,0.5315 -2.11153,0.87222 -1.14442,0.59684 -2.03923,1.51296 -3.50886,1.80437 -2.50747,0.49721 -5.20829,0.84629 -8.049684,0.84037 -1.46481,-0.003 -3.111522,-0.35768 -4.520028,-0.26266 -0.393484,0.0266 -0.53839,0.37206 -0.938459,0.38766 -0.282906,0.011 -0.66809,-0.30967 -0.959256,-0.31369 -0.308689,-0.004 -0.40381,0.27904 -0.703856,0.29074 -2.73077,-0.49584 0.09144,-0.15105 -1.897679,0.074 -0.135333,0.0153 -0.322191,-0.0827 -0.479616,-0.15684 -0.495875,-0.23365 -1.74972,-0.64666 -2.1635,-0.88112 -0.22223,-0.12596 -1.701616,-1.32331 -1.704671,-1.42564 -0.0036,-0.1261 5.454934,-2.28333 6.08965,-2.87044 0.250737,-0.23187 0.232147,-0.63848 0.448434,-0.89517 0.09676,-0.11481 0.312845,-0.12921 0.469242,-0.19382 0.152915,-0.18154 0.317972,-0.35493 0.458857,-0.54449 0.438751,-0.59043 0.655156,-1.32199 1.131519,-1.88725 0.09664,-0.1148 0.357114,-0.0901 0.469229,-0.19384 1.580088,-1.4615 3.534777,-2.68253 5.344226,-3.98236 1.193862,-0.85764 1.717832,-2.44197 3.722692,-2.60263 0.35202,-0.0282 0.84183,0.24497 1.19386,0.21677 4.26464,-0.34177 -0.95924,-0.31369 1.40769,-0.58149 0.95659,-0.10823 2.11438,0.14806 3.09157,0.14281 1.49019,-0.008 1.04517,-0.3787 2.36694,-0.26779 0.5985,0.0502 1.91819,0.39414 2.38771,0.43354 0.21296,0.0179 0.25629,-0.21169 0.46923,-0.19383 0.30117,0.0253 0.65073,0.26894 0.95925,0.31369 1.21953,0.17684 2.35902,0.14404 3.57119,0.29964 z"
       id="path22" />
    <path
       style="fill:url(#linearGradient27);fill-opacity:1;stroke:#0a0a0a;stroke-width:0.387706;stroke-opacity:1"
       d="m 121.1305,151.85094 c -0.23112,0.21384 -0.57506,0.35566 -0.69345,0.6414 -0.35036,0.84614 -0.30889,1.88458 -0.63112,2.74545 -1.34749,3.59938 0.15403,-0.30749 -1.79383,3.58067 -0.26948,0.53793 -0.3031,1.21012 -0.66229,1.69343 -0.41073,0.55269 -1.14226,0.87396 -1.62153,1.37974 -0.44414,0.46872 -0.60515,1.13917 -1.1419,1.53658 -0.56541,0.41861 -1.45815,0.53151 -2.11155,0.87223 -1.14442,0.59684 -2.03922,1.51295 -3.50885,1.80437 -2.50749,0.49721 -5.2083,0.84629 -8.04969,0.84037 -1.464817,-0.003 -3.111531,-0.35769 -4.520022,-0.26266 -0.393486,0.0266 -0.538403,0.37206 -0.938471,0.38766 -0.282896,0.011 -0.66808,-0.30968 -0.959258,-0.3137 -0.308688,-0.004 -0.403799,0.27904 -0.703844,0.29075 -2.730791,-0.49584 0.09145,-0.15105 -1.897689,0.074 -0.135334,0.0153 -0.322192,-0.0827 -0.479615,-0.15684 -0.495876,-0.23365 -1.749722,-0.64667 -2.163491,-0.88113 -0.222228,-0.12595 -1.701639,-1.32331 -1.704669,-1.42563 -0.0036,-0.12611 5.454932,-2.28333 6.089639,-2.87043 0.250748,-0.23187 0.232155,-0.63849 0.448435,-0.89517 0.09664,-0.11481 0.312841,-0.12922 0.469253,-0.19382 0.152902,-0.18154 0.317972,-0.35493 0.458843,-0.5445 0.438753,-0.59042 0.65516,-1.32198 1.131529,-1.88725 0.09676,-0.1148 0.357116,-0.0901 0.469219,-0.19383 1.580099,-1.4615 3.534791,-2.68253 5.344221,-3.98237 1.19388,-0.85763 1.71785,-2.44196 3.7227,-2.60262 0.35202,-0.0282 0.84183,0.24497 1.19386,0.21677 4.26465,-0.34177 -0.95924,-0.3137 1.40769,-0.58149 0.95659,-0.10823 2.11438,0.14805 3.09156,0.14281 1.49019,-0.008 1.0452,-0.37871 2.36696,-0.2678 0.59849,0.0502 1.91819,0.39414 2.38771,0.43355 0.21297,0.0179 0.25629,-0.2117 0.46923,-0.19384 0.30118,0.0253 0.65072,0.26895 0.95926,0.31369 1.21952,0.17685 2.359,0.14405 3.57118,0.29965 z"
       id="path23" />
    <path
       style="fill:#008000;fill-opacity:1;stroke:#0a0a0a;stroke-width:0.387706;stroke-opacity:1"
       d="m 114.01894,173.17549 c -0.44379,0.0906 -0.89289,0.0903 -1.33128,0.27164 -1.29783,0.53674 -2.50775,1.34454 -3.80039,1.90144 -5.40479,2.32846 0.49331,-0.18661 -5.74483,2.17306 -0.86308,0.32646 -1.69535,0.83021 -2.56585,1.08654 -0.995437,0.2931 -1.974248,0.30771 -2.969151,0.54326 -0.922015,0.21829 -1.855676,0.68046 -2.767501,0.8149 -0.960473,0.14163 -1.820636,-0.0542 -2.759295,0 -1.644119,0.095 -3.467892,0.51318 -5.010346,0.27164 -2.631721,-0.41212 -5.243051,-0.99874 -7.543427,-1.90143 -1.18591,-0.46539 -2.098445,-1.2573 -3.356082,-1.62981 -0.351341,-0.10407 -0.882777,0.11453 -1.226355,0 -0.242928,-0.081 -0.171608,-0.44816 -0.403319,-0.54327 -0.245693,-0.10088 -0.662091,0.0859 -0.919769,0 -1.623829,-1.24264 0.25515,-0.0867 -1.629674,-0.54326 -0.128196,-0.0311 -0.162592,-0.16509 -0.20166,-0.27163 -0.122813,-0.33555 -0.646496,-1.04796 -0.701735,-1.35818 -0.02957,-0.16663 0.202901,-1.55054 0.323005,-1.6298 0.147989,-0.0977 7.164313,-0.023 8.382859,-0.27164 0.481297,-0.0982 0.953149,-0.41521 1.436185,-0.54326 0.216025,-0.0573 0.408792,0 0.613183,0 0.341569,-0.0906 0.683262,-0.1711 1.024684,-0.27164 1.063391,-0.31311 2.115226,-0.80454 3.179012,-1.08652 0.216036,-0.0573 0.397925,0.0439 0.613183,0 3.033415,-0.61894 6.083069,-0.93545 9.109127,-1.35818 1.9966,-0.27892 4.319466,-1.32569 6.139976,-0.8149 0.31966,0.0897 0.39025,0.45359 0.70992,0.54327 3.87253,1.08653 -0.40332,-0.54327 1.83954,0 0.90643,0.21956 1.53973,0.78166 2.33958,1.08653 1.21974,0.46493 1.30229,0.0406 2.24284,0.54328 0.42591,0.22761 1.08574,0.90796 1.41982,1.08652 0.15155,0.081 0.46166,-0.081 0.61319,0 0.21431,0.11454 0.20637,0.41152 0.40332,0.54327 0.77857,0.52084 1.74323,0.85592 2.54126,1.35817 z"
       id="path24" />
    <path
       style="fill:#008000;fill-opacity:1;stroke:#0a0a0a;stroke-width:0.387706;stroke-opacity:1"
       d="m 113.57762,176.43725 c -0.42801,0.21384 -0.90254,0.35566 -1.28403,0.6414 -1.12942,0.84614 -2.04405,1.88458 -3.15894,2.74544 -4.66155,3.59939 0.43715,-0.30748 -5.09066,3.58068 -0.76478,0.53793 -1.41729,1.21012 -2.22149,1.69343 -0.91961,0.55269 -1.946937,0.87396 -2.891905,1.37974 -0.875713,0.46871 -1.654039,1.13917 -2.5567,1.53658 -0.950825,0.41861 -1.9475,0.53151 -2.91462,0.87223 -1.693941,0.59684 -3.432255,1.51295 -5.170207,1.80437 -2.965266,0.49721 -5.987498,0.84629 -8.82344,0.84037 -1.46205,-0.003 -2.782193,-0.35769 -4.278176,-0.26266 -0.417967,0.0266 -0.880972,0.37206 -1.295407,0.38766 -0.293044,0.011 -0.382961,-0.30968 -0.670419,-0.3137 -0.305007,-0.004 -0.660727,0.27904 -0.971556,0.29075 -2.274251,-0.49584 0.230515,-0.15105 -1.965815,0.074 -0.149411,0.0153 -0.246054,-0.0827 -0.335193,-0.15685 -0.280755,-0.23364 -1.154335,-0.64666 -1.352225,-0.88112 -0.106303,-0.12595 -0.483216,-1.32331 -0.392035,-1.42563 0.112397,-0.12611 7.557262,-2.28333 8.732552,-2.87043 0.464224,-0.23187 0.820023,-0.63849 1.272646,-0.89517 0.202427,-0.11481 0.431802,-0.12922 0.647703,-0.19383 0.32006,-0.18153 0.644758,-0.35492 0.96018,-0.54449 0.982377,-0.59042 1.872354,-1.32198 2.869187,-1.88725 0.202416,-0.1148 0.440052,-0.0901 0.647693,-0.19383 2.925735,-1.4615 6.004673,-2.68254 9.010915,-3.98237 1.983521,-0.85764 3.966241,-2.44196 6.119023,-2.60264 0.377985,-0.0282 0.616275,0.24499 0.99426,0.21678 4.579349,-0.34176 -0.670397,-0.31369 1.943099,-0.58149 1.05624,-0.10822 1.97807,0.14806 2.96009,0.14281 1.49754,-0.008 1.39387,-0.37871 2.6135,-0.2678 0.5523,0.0502 1.55531,0.39415 1.98855,0.43354 0.19648,0.0179 0.4512,-0.21169 0.64769,-0.19382 0.27788,0.0253 0.4031,0.26895 0.67043,0.31369 1.05669,0.17685 2.22638,0.14404 3.29529,0.29965 z"
       id="path25" />
    <path
       style="fill:url(#linearGradient26);fill-opacity:1;stroke:#0a0a0a;stroke-width:0.387706;stroke-opacity:1"
       d="m 114.7393,187.19339 c -0.42801,0.21384 -0.90251,0.35566 -1.28403,0.6414 -1.12939,0.84614 -2.04404,1.88458 -3.15894,2.74545 -4.66154,3.59938 0.43716,-0.30748 -5.09064,3.58067 -0.76479,0.53793 -1.41732,1.21012 -2.2215,1.69343 -0.91961,0.55269 -1.94695,0.87396 -2.8919,1.37974 -0.875715,0.46872 -1.654029,1.13918 -2.556702,1.53658 -0.950825,0.41861 -1.9475,0.53151 -2.914631,0.87223 -1.693942,0.59684 -3.432244,1.51295 -5.170196,1.80437 -2.965278,0.49721 -5.987498,0.84629 -8.823441,0.84037 -1.462038,-0.003 -2.782181,-0.35769 -4.278186,-0.26266 -0.417979,0.0266 -0.880961,0.37206 -1.295385,0.38766 -0.293044,0.011 -0.382972,-0.30968 -0.670442,-0.3137 -0.305006,-0.004 -0.660726,0.27904 -0.971544,0.29075 -2.27424,-0.49584 0.230515,-0.15105 -1.965826,0.074 -0.1494,0.0153 -0.246054,-0.0827 -0.335193,-0.15684 -0.280755,-0.23365 -1.154324,-0.64667 -1.352226,-0.88113 -0.10619,-0.12595 -0.483216,-1.32331 -0.392023,-1.42563 0.112397,-0.12611 7.557273,-2.28333 8.732541,-2.87043 0.464235,-0.23187 0.820023,-0.63849 1.272657,-0.89517 0.202427,-0.11481 0.431802,-0.12922 0.647692,-0.19382 0.320071,-0.18154 0.64478,-0.35493 0.960191,-0.5445 0.982377,-0.59042 1.872354,-1.32198 2.869176,-1.88725 0.202416,-0.1148 0.440052,-0.0901 0.647692,-0.19383 2.925758,-1.4615 6.004685,-2.68253 9.010927,-3.98237 1.983521,-0.85763 3.966241,-2.44196 6.119023,-2.60262 0.377986,-0.0282 0.616276,0.24497 0.994266,0.21677 4.57934,-0.34177 -0.670414,-0.3137 1.94309,-0.58149 1.05624,-0.10823 1.97806,0.14805 2.96009,0.14281 1.49755,-0.008 1.39387,-0.37871 2.61351,-0.2678 0.55228,0.0502 1.55528,0.39414 1.98854,0.43355 0.19647,0.0179 0.4512,-0.2117 0.6477,-0.19384 0.27788,0.0253 0.40307,0.26895 0.67042,0.31369 1.05669,0.17685 2.22639,0.14405 3.29529,0.29965 z"
       id="path26" />
    <path
       style="fill:#008000;fill-opacity:1;stroke:#0a0a0a;stroke-width:0.394911;stroke-opacity:1"
       d="m 117.529,79.430963 c 0.3839,-0.181538 0.7531,-0.466279 1.15167,-0.544583 1.17995,-0.231806 2.34466,-0.109832 3.52459,-0.316199 4.9335,-0.862877 -0.44485,0.107276 5.18038,-1.24921 0.77827,-0.187678 1.56853,-0.160866 2.33813,-0.43039 0.88007,-0.308212 1.68787,-0.912192 2.55539,-1.283372 0.80396,-0.343993 1.66883,-0.427141 2.44676,-0.856887 0.81945,-0.452675 1.4854,-1.212934 2.26853,-1.747929 1.37166,-0.93707 2.95909,-1.632411 4.17637,-2.875155 2.07692,-2.120381 4.10035,-4.419746 5.80159,-6.869754 0.87706,-1.263077 1.46064,-2.712091 2.41619,-3.918454 0.26695,-0.337028 0.74988,-0.433261 1.00823,-0.776858 0.18269,-0.242955 0.0468,-0.601647 0.21726,-0.852989 0.18077,-0.266594 0.56242,-0.324946 0.75618,-0.582645 1.0735,-2.395314 -0.22801,0.06625 1.22549,-1.629839 0.0989,-0.115377 0.099,-0.284602 0.10863,-0.426493 0.0304,-0.446879 0.31097,-1.562081 0.29109,-1.93825 -0.0107,-0.202043 -0.49311,-1.576788 -0.60851,-1.587894 -0.14221,-0.01365 -5.89492,4.513063 -6.94903,5.01153 -0.41639,0.196886 -0.87101,0.147135 -1.29508,0.312291 -0.18966,0.07386 -0.3361,0.258965 -0.50413,0.388438 -0.29986,0.116786 -0.59775,0.244652 -0.89961,0.350363 -0.94014,0.329251 -1.9083,0.45508 -2.84224,0.818819 -0.18966,0.07386 -0.31791,0.300373 -0.50413,0.388438 -2.62414,1.240855 -5.19798,2.824616 -7.7748,4.276617 -1.70017,0.958022 -3.83017,1.278223 -5.2194,2.993241 -0.24392,0.301122 -0.22539,0.746074 -0.46932,1.0472 -2.95511,3.648123 0.21725,-0.852975 -1.51235,1.16529 -0.69901,0.815671 -1.10139,1.835062 -1.69481,2.67704 -0.90496,1.284004 -1.06214,0.869609 -1.72962,2.018285 -0.30224,0.520128 -0.70153,1.686361 -0.93863,2.094394 -0.10753,0.185054 -0.39658,0.203367 -0.50412,0.388432 -0.15208,0.261711 -0.0831,0.583297 -0.21726,0.852983 -0.53048,1.066021 -1.25304,2.045625 -1.80344,3.10354 z"
       id="path28" />
    <path
       style="fill:#008000;fill-opacity:1;stroke:#0a0a0a;stroke-width:0.394911;stroke-opacity:1"
       d="m 118.57824,82.738729 c 0.39689,-0.03595 0.81686,-0.18057 1.19064,-0.107967 1.10661,0.215139 2.0771,0.777846 3.17486,1.018383 4.58992,1.005702 -0.42412,-0.06125 4.93877,0.713303 0.74196,0.107151 1.41988,0.433084 2.18275,0.455202 0.87236,0.02532 1.78458,-0.272131 2.66791,-0.314474 0.8186,-0.03923 1.59958,0.20511 2.42534,0.07037 0.8698,-0.141927 1.71297,-0.649124 2.57979,-0.887044 1.51824,-0.416631 3.14019,-0.510256 4.63034,-1.29068 2.54251,-1.331573 5.10066,-2.862136 7.43096,-4.665136 1.20138,-0.929466 2.21208,-2.155821 3.46199,-2.99898 0.34923,-0.235516 0.80258,-0.148868 1.14658,-0.394236 0.24323,-0.173531 0.24967,-0.583179 0.48516,-0.769698 0.24992,-0.197613 0.60193,-0.111657 0.85995,-0.295683 1.76539,-1.985991 -0.22131,-0.02011 1.63174,-1.163912 0.12606,-0.07783 0.18489,-0.246799 0.24257,-0.384833 0.18165,-0.434818 0.81293,-1.44244 0.92628,-1.825654 0.0609,-0.205848 0.11879,-1.761503 0.0223,-1.816282 -0.11893,-0.06751 -6.69365,2.276057 -7.78345,2.374858 -0.43046,0.03906 -0.80855,-0.182754 -1.23469,-0.178332 -0.19059,0.002 -0.38219,0.131418 -0.57329,0.197128 -0.30133,0.0031 -0.60478,0.01808 -0.90398,0.0094 -0.93192,-0.02704 -1.81755,-0.26785 -2.75604,-0.258081 -0.19058,0.002 -0.38075,0.179693 -0.57329,0.197114 -2.71293,0.24599 -5.50122,0.853503 -8.24632,1.32828 -1.81121,0.313262 -3.77469,-0.173225 -5.57839,1.013797 -0.31672,0.208421 -0.45512,0.659833 -0.77181,0.868247 -3.83678,2.524997 0.48515,-0.769679 -1.71986,0.591366 -0.89116,0.550071 -1.59509,1.415879 -2.40356,2.032189 -1.23288,0.939849 -1.22566,0.46647 -2.20502,1.361047 -0.44348,0.405083 -1.19574,1.418726 -1.54361,1.736489 -0.1578,0.144133 -0.41552,0.05301 -0.5733,0.197131 -0.22315,0.203822 -0.2748,0.551136 -0.48517,0.769697 -0.83153,0.863878 -1.80008,1.568755 -2.64612,2.417012 z"
       id="path29" />
    <path
       style="fill:#225500;fill-opacity:1;stroke:#0a0a0a;stroke-width:0.363448;stroke-opacity:1"
       d="m 119.3038,79.506756 c -10.90956,46.867484 -22.858208,38.199584 -22.858208,38.199584 0,0 6.794218,11.83243 8.357648,10.57084 11.55946,-9.32792 18.47622,-24.05703 18.47622,-24.05703 z"
       id="path30" />
    <path
       style="fill:#225500;fill-opacity:1;stroke:#0a0a0a;stroke-width:0.296482;stroke-opacity:1"
       d="m 124.71608,102.91068 c -6.72344,50.60586 -14.08725,41.24657 -14.08725,41.24657 0,0 4.18719,12.77623 5.15072,11.41401 7.12396,-10.07195 11.38668,-25.97592 11.38668,-25.97592 z"
       id="path31" />
    <path
       style="fill:#225500;fill-opacity:1;stroke:#0a0a0a;stroke-width:0.296482;stroke-opacity:1"
       d="m 124.96663,137.62723 c 4.45566,50.85572 -4.76919,43.32418 -4.76919,43.32418 0,0 6.86836,11.55812 7.5122,10.0188 4.76022,-11.38136 5.4581,-27.83189 5.4581,-27.83189 z"
       id="path32" />
    <path
       style="fill:#225500;fill-opacity:1;stroke:#0a0a0a;stroke-width:0.331941;stroke-opacity:1"
       d="m 113.55091,185.32377 c 27.06428,46.23769 32.35876,35.10885 32.35876,35.10885 0,0 -0.20903,13.43555 -1.87399,12.42524 -12.31011,-7.47003 -23.38811,-21.35748 -23.38811,-21.35748 z"
       id="path33" />
    <path
       style="fill:#225500;fill-opacity:1;stroke:#0a0a0a;stroke-width:0.331941;stroke-opacity:1"
       d="m 104.32969,48.158181 c 27.06428,46.23769 32.35876,35.10885 32.35876,35.10885 0,0 -0.20903,13.43555 -1.87399,12.42524 -12.31011,-7.47003 -23.38811,-21.35748 -23.38811,-21.35748 z"
       id="path34" />
    <path
       style="fill:#008000;fill-opacity:1;stroke:#0a0a0a;stroke-width:0.365001;stroke-opacity:1"
       d="m 109.30965,62.688834 c 0.35883,-0.103264 0.70316,-0.303029 1.07649,-0.30978 1.10526,-0.01998 2.19875,0.280156 3.30418,0.283361 4.62197,0.01339 -0.41655,0.02566 4.85081,-0.298844 0.72875,-0.0449 1.4703,0.107729 2.19034,-0.01321 0.82339,-0.138297 1.57687,-0.558017 2.38805,-0.755775 0.75174,-0.183266 1.56248,-0.118806 2.28919,-0.384492 0.76549,-0.279861 1.3848,-0.865093 2.11562,-1.225911 1.28007,-0.631993 2.76427,-1.008557 3.89733,-1.944326 1.93321,-1.596611 3.81496,-3.365106 5.39339,-5.323228 0.81374,-1.009491 1.35085,-2.236132 2.23862,-3.181175 0.24803,-0.264022 0.70038,-0.273442 0.94028,-0.54485 0.16964,-0.191916 0.0396,-0.541017 0.19772,-0.742567 0.16767,-0.213771 0.52528,-0.205084 0.70521,-0.408639 0.98993,-2.010067 -0.21344,0.02343 1.13799,-1.28741 0.0919,-0.08917 0.0908,-0.243463 0.0988,-0.37128 0.0253,-0.402556 0.28055,-1.37396 0.25922,-1.720196 -0.0115,-0.18597 -0.47387,-1.517789 -0.5822,-1.546635 -0.1335,-0.03552 -5.49779,3.159119 -6.4831,3.442672 -0.3892,0.111994 -0.81605,-0.0071 -1.21269,0.07471 -0.17739,0.03659 -0.31343,0.181619 -0.47014,0.272427 -0.28047,0.05785 -0.55901,0.126134 -0.84143,0.173567 -0.8796,0.147736 -1.78694,0.105442 -2.66047,0.285635 -0.17739,0.03659 -0.29608,0.222337 -0.47014,0.272427 -2.45285,0.70585 -4.85607,1.732544 -7.263,2.638597 -1.5881,0.597815 -3.58398,0.544307 -4.87496,1.88283 -0.22668,0.23502 -0.20611,0.643754 -0.43278,0.878776 -2.74613,2.847254 0.19771,-0.74256 -1.41042,0.817277 -0.64992,0.630399 -1.0201,1.494674 -1.57078,2.166188 -0.83977,1.024045 -0.99017,0.620675 -1.60812,1.559839 -0.27983,0.425269 -0.64606,1.423942 -0.86558,1.757552 -0.0995,0.151306 -0.37057,0.121117 -0.47014,0.272428 -0.14079,0.213977 -0.0737,0.518416 -0.19771,0.742562 -0.49003,0.886017 -1.16086,1.66208 -1.66963,2.537473 z"
       id="path35" />
    <path
       style="fill:#008000;fill-opacity:1;stroke:#0a0a0a;stroke-width:0.365001;stroke-opacity:1"
       d="m 113.9931,66.853873 c 0.37206,0.0316 0.765,-0.03216 1.11617,0.09467 1.03964,0.375671 1.95409,1.04619 2.98563,1.443584 4.31302,1.661549 -0.3983,-0.124641 4.63819,1.451502 0.6968,0.218055 1.33509,0.625216 2.0509,0.769128 0.81855,0.164578 1.67218,0.04131 2.50053,0.145977 0.76765,0.097 1.50205,0.446486 2.27573,0.457563 0.81495,0.01166 1.60231,-0.31407 2.41377,-0.390417 1.42131,-0.133659 2.94218,0.04406 4.33453,-0.42588 2.37561,-0.80181 4.76449,-1.782537 6.93766,-3.04864 1.12038,-0.652677 2.05976,-1.607008 3.22628,-2.173112 0.32593,-0.158119 0.75184,-0.0056 1.07279,-0.173515 0.22693,-0.118787 0.23005,-0.491277 0.44964,-0.623165 0.23303,-0.139657 0.56387,-0.0042 0.80459,-0.130135 1.64194,-1.524601 -0.20774,-0.05423 1.52243,-0.796653 0.1177,-0.05052 0.17169,-0.195066 0.22481,-0.311573 0.16729,-0.367026 0.7523,-1.183442 0.8559,-1.514499 0.0556,-0.17783 0.0988,-1.586971 0.008,-1.652571 -0.11203,-0.08085 -6.26307,0.989724 -7.28471,0.903047 -0.40354,-0.0342 -0.75981,-0.297786 -1.15954,-0.362875 -0.17877,-0.02912 -0.3576,0.05784 -0.5364,0.08676 -0.28266,-0.04606 -0.56721,-0.08161 -0.84797,-0.138051 -0.87442,-0.175819 -1.70696,-0.539053 -2.58729,-0.682369 -0.17877,-0.02912 -0.35589,0.102093 -0.5364,0.08675 -2.54325,-0.215733 -5.15461,-0.114031 -7.72641,-0.126355 -1.69687,-0.0081 -3.5423,-0.770209 -5.22588,0.01963 -0.29561,0.138678 -0.42223,0.527852 -0.71783,0.666532 -3.58125,1.680109 0.44962,-0.62315 -1.60919,0.26028 -0.83206,0.357035 -1.48623,1.032357 -2.24025,1.463208 -1.14986,0.657042 -1.14646,0.226553 -2.05882,0.883431 -0.41313,0.297448 -1.11157,1.099725 -1.43566,1.333064 -0.14699,0.105828 -0.38941,-0.01907 -0.5364,0.08676 -0.20788,0.149663 -0.25385,0.457988 -0.44963,0.62316 -0.77389,0.652862 -1.67746,1.138516 -2.46507,1.774778 z"
       id="path36" />
    <path
       style="fill:#008000;fill-opacity:1;stroke:#0a0a0a;stroke-width:0.365001;stroke-opacity:1"
       d="m 105.35164,56.154352 c 0.28568,-0.240438 0.51882,-0.563109 0.85704,-0.721305 1.00133,-0.468338 2.12227,-0.639513 3.13319,-1.086746 4.22683,-1.869955 -0.37,0.193066 4.30868,-2.248317 0.64731,-0.337774 1.38674,-0.500352 1.99512,-0.904028 0.69571,-0.461616 1.21296,-1.151794 1.8733,-1.662745 0.61196,-0.47351 1.37868,-0.744791 1.93421,-1.283385 0.58517,-0.567332 0.91249,-1.354039 1.43303,-1.981193 0.91176,-1.098494 2.11397,-2.046825 2.76776,-3.3629 1.11547,-2.245481 2.11395,-4.626993 2.75817,-7.058178 0.33212,-1.253371 0.32316,-2.592421 0.74914,-3.817078 0.11902,-0.342143 0.52833,-0.534955 0.63691,-0.880533 0.0768,-0.244364 -0.18415,-0.510252 -0.12181,-0.758723 0.0661,-0.263523 0.39624,-0.401217 0.47768,-0.660401 0.0856,-2.238975 -0.1854,0.108317 0.51509,-1.639246 0.0476,-0.118866 -0.0162,-0.259338 -0.061,-0.379334 -0.14082,-0.377969 -0.30328,-1.369123 -0.46375,-1.676664 -0.0862,-0.165168 -1.05089,-1.193266 -1.16157,-1.175497 -0.1364,0.02192 -3.73481,5.124152 -4.51925,5.784372 -0.30986,0.26078 -0.74821,0.325832 -1.07716,0.562074 -0.14712,0.105656 -0.21231,0.293514 -0.31845,0.440268 -0.23261,0.16705 -0.4592,0.342845 -0.69782,0.501175 -0.74321,0.493127 -1.58913,0.823991 -2.31357,1.344291 -0.14711,0.105656 -0.17987,0.323637 -0.31845,0.440268 -1.95281,1.643536 -3.72965,3.559897 -5.55899,5.367584 -1.20701,1.192716 -3.05169,1.956619 -3.6857,3.704849 -0.11133,0.306961 0.0739,0.671892 -0.0374,0.97885 -1.34864,3.71877 -0.12182,-0.758713 -0.95536,1.320801 -0.33687,0.840425 -0.32302,1.780538 -0.55251,2.618101 -0.34997,1.277265 -0.65159,0.970102 -0.83353,2.079512 -0.0824,0.502364 -0.0102,1.563618 -0.0748,1.957707 -0.0293,0.178711 -0.28913,0.261525 -0.31845,0.440269 -0.0414,0.252765 0.1438,0.503496 0.12181,0.758715 -0.0867,1.008777 -0.3834,1.990756 -0.49159,2.99746 z"
       id="path37" />
    <path
       style="fill:#008000;fill-opacity:1;stroke:#0a0a0a;stroke-width:0.365001;stroke-opacity:1"
       d="m 111.32528,58.051176 c 0.35268,-0.122652 0.6856,-0.340901 1.05798,-0.368069 1.10251,-0.08026 2.21076,0.159758 3.31472,0.10264 4.61583,-0.238835 -0.41453,0.04836 4.82728,-0.563094 0.7252,-0.0846 1.47398,0.02734 2.18635,-0.132714 0.81463,-0.183021 1.54407,-0.643225 2.34325,-0.884955 0.74062,-0.224014 1.55368,-0.203886 2.26482,-0.508831 0.74906,-0.321219 1.33553,-0.939351 2.04557,-1.339528 1.24369,-0.700868 2.70512,-1.15789 3.78542,-2.1541 1.84319,-1.699725 3.62564,-3.568263 5.09487,-5.609601 0.75749,-1.052355 1.22682,-2.306512 2.0617,-3.298587 0.23329,-0.277142 0.6844,-0.311283 0.90915,-0.595344 0.15889,-0.200903 0.0101,-0.542379 0.1569,-0.752259 0.15596,-0.222448 0.51329,-0.233458 0.68186,-0.446505 0.87877,-2.061101 -0.21182,0.03507 1.06606,-1.347578 0.0869,-0.09407 0.0774,-0.248076 0.0785,-0.376117 0.003,-0.40334 0.20516,-1.387226 0.16497,-1.731778 -0.0216,-0.185059 -0.55602,-1.489658 -0.66566,-1.512596 -0.13525,-0.02822 -5.3172,3.454425 -6.28559,3.791299 -0.38249,0.133096 -0.81522,0.03744 -1.20681,0.140771 -0.17513,0.0462 -0.30305,0.198451 -0.45458,0.297676 -0.27691,0.07304 -0.55128,0.156446 -0.83069,0.219229 -0.87023,0.195506 -1.77853,0.202787 -2.64092,0.430385 -0.17513,0.0462 -0.28347,0.238172 -0.45458,0.297667 -2.41067,0.838642 -4.75428,1.994943 -7.1082,3.03099 -1.5531,0.683611 -3.54893,0.739063 -4.76495,2.146041 -0.21351,0.247039 -0.17067,0.654045 -0.38418,0.901081 -2.58667,2.992867 0.15689,-0.752237 -1.36373,0.893025 -0.61454,0.664926 -0.93701,1.548111 -1.45022,2.248676 -0.78264,1.068347 -0.95484,0.673785 -1.52062,1.645266 -0.2562,0.439905 -0.56739,1.457069 -0.76837,1.802162 -0.0912,0.156513 -0.36343,0.14116 -0.45458,0.297676 -0.12892,0.221345 -0.0453,0.521667 -0.15689,0.75225 -0.44096,0.911425 -1.06844,1.722943 -1.52868,2.624794 z"
       id="path38" />
    <path
       style="fill:#008000;fill-opacity:1;stroke:#0a0a0a;stroke-width:0.380988;stroke-opacity:1"
       d="m 106.03879,66.136505 c -0.31141,-0.240315 -0.56555,-0.562822 -0.93424,-0.720937 -1.09152,-0.468099 -2.31342,-0.639187 -3.4154,-1.086192 -4.607544,-1.869001 0.40333,0.192968 -4.696766,-2.24717 -0.705614,-0.337602 -1.511646,-0.500097 -2.174824,-0.903567 -0.758373,-0.461381 -1.322213,-1.151207 -2.042031,-1.661897 -0.66708,-0.473269 -1.50286,-0.744411 -2.108427,-1.282731 -0.637877,-0.567042 -0.994679,-1.353348 -1.562105,-1.980182 -0.993884,-1.097934 -2.304379,-2.045781 -3.017057,-3.361185 -1.215942,-2.244336 -2.304357,-4.624634 -3.006603,-7.054579 -0.362034,-1.252732 -0.352267,-2.591099 -0.816616,-3.815131 -0.12974,-0.341969 -0.575917,-0.534682 -0.694277,-0.880084 -0.08372,-0.244239 0.200736,-0.509992 0.132781,-0.758336 -0.07205,-0.263389 -0.43193,-0.401012 -0.520705,-0.660064 -0.09331,-2.237833 0.202099,0.108261 -0.561485,-1.63841 -0.05189,-0.118806 0.01766,-0.259206 0.06649,-0.379141 0.153504,-0.377776 0.330597,-1.368425 0.505521,-1.675809 0.09396,-0.165084 1.145545,-1.192657 1.266194,-1.174897 0.148686,0.02191 4.071211,5.121538 4.926306,5.781422 0.33777,0.260647 0.815603,0.325666 1.174182,0.561787 0.160371,0.105602 0.231433,0.293364 0.347133,0.440044 0.253562,0.166964 0.500561,0.34267 0.760674,0.500919 0.810152,0.492876 1.732265,0.823571 2.521957,1.343605 0.16036,0.105603 0.196071,0.323472 0.347133,0.440044 2.128703,1.642698 4.065586,3.558081 6.059697,5.364847 1.315728,1.192107 3.326558,1.955621 4.017678,3.702959 0.12136,0.306805 -0.0806,0.67155 0.0408,0.978351 1.47011,3.716873 0.13279,-0.758326 1.04141,1.320127 0.36721,0.839997 0.35211,1.77963 0.60228,2.616766 0.38149,1.276614 0.71027,0.969608 0.9086,2.078452 0.0898,0.502108 0.0111,1.56282 0.0815,1.956708 0.0319,0.17862 0.31517,0.261392 0.34713,0.440045 0.0451,0.252636 -0.15675,0.503239 -0.13278,0.758328 0.0945,1.008262 0.41794,1.989741 0.53587,2.995931 z"
       id="path39" />
    <path
       style="fill:#008000;fill-opacity:1;stroke:#0a0a0a;stroke-width:0.380988;stroke-opacity:1"
       d="m 99.527095,68.032362 c -0.384447,-0.12259 -0.747353,-0.340727 -1.153274,-0.367881 -1.201815,-0.08022 -2.409887,0.159676 -3.613282,0.102587 -5.031585,-0.238713 0.451867,0.04834 -5.262081,-0.562807 -0.79052,-0.08456 -1.606744,0.02733 -2.383278,-0.132646 -0.888005,-0.182928 -1.683147,-0.642897 -2.55431,-0.884504 -0.807329,-0.223899 -1.693623,-0.203782 -2.468816,-0.508571 -0.816529,-0.321055 -1.455824,-0.938872 -2.229818,-1.338845 -1.355711,-0.700511 -2.948775,-1.157299 -4.126379,-2.153001 -2.009209,-1.698859 -3.952207,-3.566444 -5.553773,-5.606741 -0.825718,-1.051818 -1.337322,-2.305335 -2.247401,-3.296904 -0.254302,-0.277001 -0.746045,-0.311125 -0.991038,-0.595041 -0.173202,-0.2008 -0.01101,-0.542102 -0.171032,-0.751875 -0.170008,-0.222335 -0.559523,-0.233339 -0.743277,-0.446277 -0.957922,-2.06005 0.230899,0.03505 -1.162081,-1.346891 -0.09473,-0.09402 -0.08437,-0.24795 -0.08557,-0.375925 -0.0033,-0.403135 -0.223639,-1.386519 -0.179829,-1.730895 0.02354,-0.184965 0.606102,-1.488899 0.725617,-1.511825 0.147432,-0.02821 5.796129,3.452663 6.851743,3.789366 0.416942,0.133028 0.888648,0.03742 1.315509,0.140699 0.190905,0.04618 0.330347,0.19835 0.495525,0.297524 0.301852,0.073 0.600935,0.156366 0.905512,0.219117 0.948613,0.195407 1.938725,0.202684 2.878792,0.430166 0.190904,0.04618 0.309002,0.23805 0.495524,0.297515 2.627803,0.838214 5.182506,1.993926 7.748447,3.029444 1.692991,0.683263 3.868588,0.738686 5.194137,2.144947 0.232741,0.246913 0.186043,0.653711 0.418784,0.900621 2.819655,2.991341 -0.171022,-0.751853 1.486563,0.89257 0.669893,0.664587 1.021408,1.547321 1.580844,2.247529 0.853133,1.067802 1.040844,0.673441 1.657584,1.644427 0.279277,0.439681 0.618496,1.456326 0.837579,1.801243 0.09941,0.156433 0.396164,0.141088 0.495524,0.297524 0.140532,0.221232 0.04938,0.521401 0.171022,0.751867 0.480678,0.91096 1.164676,1.722064 1.66637,2.623455 z"
       id="path40" />
    <path
       style="fill:#008000;fill-opacity:1;stroke:#0a0a0a;stroke-width:0.525138;stroke-opacity:1"
       d="m 118.00783,146.54474 c -0.51845,-0.15495 -1.00581,-0.44486 -1.55536,-0.46486 -1.62699,-0.0592 -3.2689,0.33081 -4.89847,0.30406 -6.81348,-0.11177 0.61136,0.0478 -7.11927,-0.55615 -1.06955,-0.0836 -2.17788,0.10957 -3.22691,-0.0804 -1.19962,-0.21721 -2.267819,-0.82716 -3.443439,-1.12743 -1.089486,-0.27826 -2.290902,-0.21076 -3.335176,-0.60391 -1.099993,-0.41413 -1.953767,-1.25241 -2.994503,-1.77911 -1.822915,-0.92253 -3.972435,-1.49258 -5.548051,-2.83701 -2.688271,-2.29385 -5.283377,-4.82733 -7.412299,-7.6182 -1.09754,-1.4388 -1.765473,-3.17433 -2.978625,-4.52483 -0.338945,-0.3773 -1.004696,-0.40329 -1.330899,-0.79071 -0.230701,-0.27395 -0.0038,-0.75989 -0.216535,-1.04704 -0.225586,-0.30455 -0.753511,-0.30247 -0.998173,-0.59304 -1.256353,-2.84708 0.31222,0.0389 -1.547411,-1.83774 -0.126429,-0.12767 -0.109292,-0.34401 -0.10812,-0.52353 0.0033,-0.5653 -0.274942,-1.93491 -0.2086,-2.4199 0.03564,-0.26049 0.851481,-2.11532 1.014039,-2.15272 0.20037,-0.046 7.784405,4.58597 9.208017,5.01149 0.562335,0.16807 1.203458,0.0131 1.779805,0.13904 0.257761,0.0563 0.44364,0.26356 0.665439,0.39535 0.407553,0.0891 0.811191,0.19269 1.222651,0.26721 1.28152,0.23204 2.623067,0.19834 3.892362,0.47575 0.257748,0.0563 0.413948,0.32019 0.665443,0.39535 3.543969,1.05925 6.982456,2.56706 10.438554,3.9058 2.280351,0.88331 5.227391,0.86464 6.995141,2.77838 0.3104,0.33602 0.23882,0.90871 0.54927,1.2447 3.76029,4.07086 -0.21652,-1.04703 1.99635,1.18609 0.89431,0.90249 1.35276,2.12509 2.09667,3.08243 1.13445,1.45996 1.39677,0.89849 2.21284,2.23312 0.36952,0.60435 0.80859,2.01534 1.09841,2.48945 0.1314,0.21502 0.53395,0.18034 0.66544,0.39537 0.18582,0.30413 0.0563,0.72917 0.21653,1.04703 0.63281,1.25651 1.54335,2.36387 2.20492,3.60598 z"
       id="path41" />
    <path
       style="fill:#008000;fill-opacity:1;stroke:#0a0a0a;stroke-width:0.525138;stroke-opacity:1"
       d="m 110.68508,152.25393 c -0.55155,0.0338 -1.12426,-0.0667 -1.65461,0.10125 -1.57015,0.49754 -2.98556,1.41208 -4.54596,1.94029 -6.524342,2.20849 0.59957,-0.16361 -6.982417,1.90471 -1.048987,0.28609 -2.030808,0.83909 -3.100289,1.02078 -1.223031,0.2077 -2.468719,0.0107 -3.700146,0.1341 -1.141195,0.11436 -2.258825,0.58377 -3.400246,0.57745 -1.202291,-0.007 -2.3299,-0.48575 -3.51818,-0.61574 -2.081328,-0.22761 -4.340805,-0.0213 -6.345546,-0.71975 -3.420454,-1.19164 -6.842422,-2.63458 -9.917702,-4.47169 -1.585473,-0.94703 -2.873746,-2.31201 -4.53594,-3.13892 -0.464425,-0.23097 -1.10755,-0.0291 -1.563642,-0.27366 -0.322488,-0.173 -0.289599,-0.69549 -0.599871,-0.8867 -0.329366,-0.20244 -0.830644,-0.0218 -1.172728,-0.20524 -2.266249,-2.18464 0.311614,-0.0703 -2.163513,-1.16031 -0.168336,-0.0742 -0.233416,-0.27843 -0.299993,-0.4433 -0.209126,-0.51966 -0.989437,-1.68104 -1.108755,-2.14828 -0.06407,-0.25095 0.01442,-2.22851 0.154852,-2.31795 0.173274,-0.11023 9.131083,1.565 10.645575,1.47229 0.598209,-0.0366 1.14988,-0.39618 1.745588,-0.47617 0.266426,-0.0358 0.521216,0.0912 0.781835,0.13684 0.421234,-0.0566 0.844209,-0.0985 1.2637,-0.16968 1.306503,-0.22188 2.570181,-0.70779 3.882111,-0.88393 0.266425,-0.0358 0.514234,0.15323 0.781819,0.1368 3.770144,-0.23071 7.608661,-0.0143 11.400381,0.041 2.501768,0.0366 5.298516,-0.98016 7.700233,0.17515 0.421695,0.20285 0.569069,0.75225 0.990761,0.95509 5.108833,2.45752 -0.599844,-0.88667 2.345477,0.4105 1.190322,0.52424 2.086387,1.48986 3.154256,2.11544 1.62848,0.95398 1.66688,0.35012 2.94532,1.29717 0.57891,0.42883 1.5274,1.57376 1.98154,1.91018 0.20603,0.15255 0.57586,-0.0158 0.78183,0.13683 0.2913,0.21577 0.32789,0.64952 0.59985,0.88669 1.07478,0.9375 2.35753,1.64414 3.45419,2.55875 z"
       id="path42" />
    <circle
       id="path43"
       style="fill:#484537;stroke:#0a0a0a;stroke-width:0.264583"
       cx="33.426907"
       cy="63.780079"
       r="0.070600599" />
    <circle
       id="path44"
       style="fill:none;stroke:#0a0a0a;stroke-width:0.264583"
       cx="36.116428"
       cy="54.174644"
       r="0.070600599" />
    <path
       style="fill:#504416;fill-opacity:1;stroke:none;stroke-width:0.365001;stroke-opacity:1"
       id="path45"
       d="m 76.5729,233.83061 c -0.330509,-0.23575 -0.683501,-0.44281 -0.991531,-0.70725 -2.051659,-1.76137 -3.793487,-3.55427 -5.631971,-5.56672 -2.861511,-3.13227 -5.064818,-5.7972 -7.678616,-9.18566 -1.468628,-1.9039 -2.874311,-3.85552 -4.311465,-5.78327 -5.895038,-8.40232 -11.48289,-17.06837 -15.709698,-26.44774 -2.374138,-5.26825 -2.969969,-7.3597 -4.851382,-12.76822 -2.791682,-9.12128 -4.731181,-18.50227 -5.778211,-27.98403 -0.624793,-5.65802 -0.714314,-8.7814 -1.015987,-14.42014 -0.06939,-2.24054 -0.153681,-4.48067 -0.208169,-6.72163 -0.119607,-4.91897 -0.175805,-8.04099 -0.02673,-12.94688 0.178007,-5.85774 0.681916,-11.686343 1.227752,-17.518199 0.934738,-7.970351 2.19261,-15.922075 4.080351,-23.727272 0.338108,-1.397974 0.725842,-2.783478 1.088763,-4.175215 1.45986,-5.257948 3.184387,-10.441697 5.298075,-15.474799 1.004162,-2.391103 1.751573,-3.891431 2.857201,-6.210295 1.67464,-3.304622 3.534095,-6.524069 5.696177,-9.535528 1.043308,-1.453176 1.921714,-2.552274 3.021476,-3.964228 1.776603,-2.134256 3.563371,-4.289642 5.604668,-6.181406 0.235083,-0.21786 1.459963,-1.256653 1.776551,-1.526104 0,0 -9.033714,-5.570922 -9.033714,-5.570922 v 0 c -2.465001,2.591419 -4.738582,5.346053 -6.97843,8.133794 -1.292082,1.651249 -1.846945,2.310916 -3.040185,4.032319 -2.143233,3.091892 -3.934936,6.416053 -5.537631,9.81529 -3.147351,7.143856 -5.888246,14.474077 -7.897317,22.025356 -0.349555,1.410973 -0.723006,2.816238 -1.048661,4.232915 -1.817714,7.907489 -3.024754,15.946811 -3.774322,24.022997 -0.449923,5.901748 -0.84615,11.801067 -0.975662,17.720707 -0.111719,5.1064 -0.06371,7.92133 0.12149,13.04199 0.08195,2.26571 0.207589,4.52963 0.311384,6.79444 0.161067,2.37364 0.291277,4.74956 0.483203,7.1209 0.440177,5.4386 0.889332,9.61982 1.648207,15.03325 0.344735,2.45917 0.684726,4.92088 1.143316,7.36138 1.015127,5.40225 1.81193,7.76606 3.305011,13.04287 2.127782,6.00162 2.372268,7.10609 5.059524,12.97141 1.046334,2.28377 2.137307,4.54915 3.317994,6.76645 3.639487,6.83486 7.975222,13.27159 12.196059,19.75064 3.198611,4.52798 4.383092,6.32615 7.707418,10.58966 2.87592,3.68843 3.198749,3.89366 6.007097,7.22099 0.582131,0.68971 1.122511,1.4148 1.722109,2.08937 0.217311,0.24448 0.482606,0.44167 0.723908,0.66251 z" />
    <path
       style="fill:#504416;fill-opacity:1;stroke:#0a0a0a;stroke-width:0.365001;stroke-opacity:1"
       id="path46"
       d="m 17.178619,26.161572 c 1.370533,2.264708 2.26972,4.783986 2.767917,7.376262 0.03877,0.309145 0.07754,0.618292 0.116303,0.927436 0,0 5.203997,2.565876 5.203997,2.565876 v 0 c -0.04524,-0.325554 -0.09048,-0.651107 -0.135725,-0.976661 -0.519286,-2.607773 -1.409667,-5.112221 -2.568054,-7.506452 z" />
    <path
       style="fill:#504416;fill-opacity:1;stroke:#0a0a0a;stroke-width:0.365001;stroke-opacity:1"
       id="path53"
       d="m 43.804551,100.39169 c 0.273868,-1.536778 1.097349,-2.863335 2.209297,-3.953826 0.514866,-0.504928 1.12639,-0.900784 1.689584,-1.351177 0,0 -4.693422,-2.948045 -4.693422,-2.948045 v 0 c -0.593037,0.474641 -1.229297,0.899821 -1.779111,1.423924 -1.184169,1.128781 -2.139403,2.494595 -2.629107,4.059219 z" />
    <path
       style="fill:#800000;fill-opacity:1;stroke:none;stroke-width:0.365001;stroke-opacity:1"
       id="path55"
       d="m 48.477585,33.550317 c 0.107024,0.949846 0.458023,2.02202 0.112548,2.961505 -0.0714,0.194157 -0.189846,0.367607 -0.284771,0.55141 -0.971042,1.264468 -2.381837,2.109997 -3.756067,2.876209 -1.361448,0.615633 -2.705002,1.272638 -4.135207,1.712322 -1.505903,0.410314 -3.028535,0.753682 -4.534226,1.164588 -1.891218,0.473575 -3.681484,1.296606 -5.39832,2.207813 -1.602306,0.944909 -3.135238,1.996651 -4.578351,3.169483 -1.100486,0.950481 -1.912576,2.124708 -2.582556,3.402103 -0.681611,1.374544 -1.346555,2.756077 -2.01442,4.137107 -0.577231,1.375473 -0.74279,2.874896 -0.776024,4.353851 -0.03913,1.338778 0.538656,2.528749 1.125795,3.692977 0.471011,0.926195 1.025023,1.805757 1.526455,2.714874 0,0 5.365579,2.40952 5.365579,2.40952 v 0 c -0.481491,-0.925597 -1.071359,-1.785712 -1.534414,-2.721813 -0.614969,-1.056024 -1.206296,-2.196293 -1.264741,-3.43815 -0.04055,-1.397055 0.133545,-2.815301 0.665111,-4.116853 0.64353,-1.381646 1.25114,-2.780884 1.97187,-4.12511 0.668198,-1.190686 1.419231,-2.314486 2.47545,-3.20361 1.393521,-1.160677 2.870205,-2.217333 4.454792,-3.104557 1.708801,-0.870855 3.485452,-1.62042 5.351381,-2.084808 1.528619,-0.390845 3.077879,-0.703086 4.586718,-1.169461 1.437341,-0.497827 2.823835,-1.136939 4.178557,-1.826744 1.451771,-0.854242 2.949966,-1.757506 3.95746,-3.140443 0.28693,-0.536739 0.463494,-0.756084 0.558758,-1.366547 0.126034,-0.807653 -0.151903,-1.637498 -0.132819,-2.445673 z" />
    <path
       style="fill:#800000;fill-opacity:1;stroke:none;stroke-width:0.365001;stroke-opacity:1"
       id="path56"
       d="m 32.724674,75.814223 c 0.332293,1.202405 0.520237,2.43603 0.75437,3.659706 0.308858,1.545971 0.384029,3.106746 0.276764,4.675553 -0.272071,1.854494 -0.780801,3.631631 -1.77402,5.22556 -0.772176,1.287563 -1.946056,2.202495 -3.166526,3.034239 -1.886196,1.070227 -3.687702,2.276909 -5.489937,3.480475 -1.966786,1.253617 -3.942307,2.508589 -5.75504,3.980355 -1.525058,1.258079 -2.576442,2.966659 -3.500528,4.689159 -1.119537,2.16079 -1.680646,4.5431 -2.194064,6.90537 -0.169267,1.42695 -0.710002,2.91244 -0.482317,4.36735 0.03476,0.22212 0.111159,0.43569 0.166738,0.65354 0.579473,1.56693 1.639868,2.87391 2.799087,4.04976 2.126275,2.18168 4.662932,3.30306 7.42362,4.83745 0.343659,0.191 0.743222,0.25778 1.107926,0.40467 0.855458,0.17171 1.689235,0.40009 2.491947,0.73881 0,0 -4.601518,-3.60528 -4.601518,-3.60528 v 0 c -0.833397,-0.28398 -1.685518,-0.49099 -2.519595,-0.77245 -1.91325,-0.75228 -4.492032,-2.3988 3.391926,2.14444 0.215272,0.12406 -0.425554,-0.25745 -0.628011,-0.40147 -0.645582,-0.45926 -0.716993,-0.57118 -1.297243,-1.13062 -1.157507,-1.08028 -2.211861,-2.30385 -2.856531,-3.76565 -0.07392,-0.18115 -0.16997,-0.35478 -0.221765,-0.54345 -0.379134,-1.38105 0.174525,-2.88592 0.299255,-4.25687 0.479144,-2.31302 1.014758,-4.64629 2.129826,-6.74899 0.917921,-1.6463 1.937175,-3.27006 3.404118,-4.48714 1.78707,-1.47171 3.723081,-2.74391 5.69736,-3.949281 1.815103,-1.200517 3.632089,-2.396198 5.533753,-3.45777 1.296331,-0.869164 2.529472,-1.857595 3.315303,-3.23622 1.053574,-1.764299 1.492049,-3.469118 1.863789,-5.481719 0.169465,-1.605084 0.170812,-3.195757 -0.146466,-4.786794 -0.218495,-1.205569 -0.411662,-2.418966 -0.683662,-3.61274 z" />
    <path
       style="fill:#800000;fill-opacity:1;stroke:none;stroke-width:0.365001;stroke-opacity:1"
       id="path58"
       d="m 21.894162,139.52592 c -0.47953,2.14291 -1.018554,4.28832 -1.086076,6.49638 -0.01922,0.62856 0.0226,1.25751 0.0339,1.88627 0.438652,3.86781 2.306352,6.78869 4.785607,9.65833 1.872498,2.14898 4.123769,3.9031 6.256126,5.77643 1.680842,1.57705 3.421343,3.08986 4.776567,4.96443 1.373159,1.89294 1.816646,4.12938 2.093003,6.39952 0.192614,1.90234 -0.171747,3.78525 -0.420209,5.66262 -0.314333,1.45753 -0.919956,2.83091 -1.4136,4.23331 -0.448167,0.8459 -0.673915,1.79266 -1.113639,2.64066 -0.193106,0.3724 -0.420089,0.72656 -0.613471,1.09882 -0.588841,1.27296 -0.741611,2.67334 -0.723752,4.05979 0.03173,1.15388 0.547352,2.18624 0.899592,3.261 0.559011,1.46337 0.972473,2.98589 1.660834,4.39556 0.775997,1.24033 1.939462,2.16532 3.02641,3.12055 0.88891,0.8035 1.78779,1.59659 2.62346,2.45587 1.934451,2.2693 3.859943,2.83845 6.882191,4.5541 1.571181,0.89191 -3.13613,-1.79475 -4.704196,-2.69213 1.73605,0.39688 4.7273,3.7619 7.372032,3.53592 0,0 -4.790069,-3.49691 -4.790069,-3.49691 v 0 c -2.202493,-0.34611 -5.958859,-3.29775 2.936314,2.08359 -8.438896,-4.84562 -6.002668,-3.46519 -0.738172,-0.37579 0.125185,0.0735 -0.259786,-0.13117 -0.380402,-0.21192 -0.45494,-0.30457 -0.810776,-0.72534 -1.155626,-1.14368 -0.286464,-0.29164 -0.542226,-0.61296 -0.835287,-0.89798 -0.56964,-0.55399 -1.218877,-1.03588 -1.779569,-1.60228 -1.074198,-0.94524 -2.208445,-1.82736 -3.120675,-2.93962 -0.810186,-1.31493 -1.110674,-2.84214 -1.687897,-4.26494 -0.26734,-1.06526 -0.843391,-2.021 -0.952754,-3.12674 -0.07721,-1.30295 -0.01998,-2.60316 0.561534,-3.80286 0.199384,-0.3819 0.425582,-0.74958 0.620249,-1.13392 0.440338,-0.86937 0.675772,-1.82832 1.123124,-2.69617 0.486974,-1.44803 1.148459,-2.83799 1.48948,-4.33229 0.214297,-1.93604 0.506143,-3.87762 0.389866,-5.83106 -0.248811,-2.32421 -0.618955,-4.65487 -1.940345,-6.64419 -0.449361,-0.66505 -0.733946,-1.13402 -1.277189,-1.7372 -1.07528,-1.1939 -2.36624,-2.1905 -3.467293,-3.36027 -2.127591,-1.91733 -4.479488,-3.59269 -6.382623,-5.7536 -2.407851,-2.68304 -4.548326,-5.62859 -4.989212,-9.3162 -0.01259,-0.60802 -0.05528,-1.21616 -0.03778,-1.82406 0.06189,-2.14987 0.603081,-4.23487 1.287206,-6.26067 z" />
  </g>
</svg>
