<?xml version="1.0" encoding="UTF-8" standalone="no"?>
<!-- Created with Inkscape (http://www.inkscape.org/) -->

<svg
   width="210mm"
   height="297mm"
   viewBox="0 0 210 297"
   version="1.1"
   id="svg1"
   xmlns:xlink="http://www.w3.org/1999/xlink"
   xmlns="http://www.w3.org/2000/svg"
   xmlns:svg="http://www.w3.org/2000/svg">
  <defs
     id="defs1">
    <rect
       x="112.80209"
       y="584.19604"
       width="68.784256"
       height="82.001961"
       id="rect148" />
    <linearGradient
       id="linearGradient147">
      <stop
         style="stop-color:#780000;stop-opacity:1;"
         offset="0.37356323"
         id="stop147" />
      <stop
         style="stop-color:#550000;stop-opacity:0;"
         offset="1"
         id="stop148" />
    </linearGradient>
    <linearGradient
       id="linearGradient135">
      <stop
         style="stop-color:#1a1a1a;stop-opacity:1;"
         offset="0"
         id="stop135" />
      <stop
         style="stop-color:#1a1a1a;stop-opacity:0;"
         offset="1"
         id="stop136" />
    </linearGradient>
    <linearGradient
       id="linearGradient133">
      <stop
         style="stop-color:#000000;stop-opacity:0.50110869;"
         offset="0"
         id="stop133" />
      <stop
         style="stop-color:#7f7f7f;stop-opacity:1;"
         offset="0.5670498"
         id="stop134" />
    </linearGradient>
    <linearGradient
       id="linearGradient128">
      <stop
         style="stop-color:#a0892c;stop-opacity:1;"
         offset="0.45019156"
         id="stop128" />
      <stop
         style="stop-color:#a0892c;stop-opacity:0;"
         offset="1"
         id="stop129" />
    </linearGradient>
    <linearGradient
       id="linearGradient126">
      <stop
         style="stop-color:#f2f2f2;stop-opacity:1;"
         offset="0.23180076"
         id="stop126" />
      <stop
         style="stop-color:#0e0e0e;stop-opacity:0;"
         offset="1"
         id="stop127" />
    </linearGradient>
    <linearGradient
       id="linearGradient112">
      <stop
         style="stop-color:#646464;stop-opacity:1;"
         offset="0"
         id="stop112" />
      <stop
         style="stop-color:#ffffff;stop-opacity:0;"
         offset="1"
         id="stop113" />
    </linearGradient>
    <linearGradient
       id="linearGradient92">
      <stop
         style="stop-color:#504416;stop-opacity:1;"
         offset="0.25862068"
         id="stop92" />
      <stop
         style="stop-color:#504416;stop-opacity:0;"
         offset="1"
         id="stop93" />
    </linearGradient>
    <linearGradient
       id="linearGradient29">
      <stop
         style="stop-color:#1a1a1a;stop-opacity:1;"
         offset="0.5"
         id="stop29" />
      <stop
         style="stop-color:#1a1a1a;stop-opacity:0;"
         offset="1"
         id="stop30" />
    </linearGradient>
    <linearGradient
       id="linearGradient27">
      <stop
         style="stop-color:#1a1a1a;stop-opacity:1;"
         offset="0.3275862"
         id="stop27" />
      <stop
         style="stop-color:#1a1a1a;stop-opacity:0;"
         offset="1"
         id="stop28" />
    </linearGradient>
    <linearGradient
       xlink:href="#linearGradient27"
       id="linearGradient28"
       x1="170.02243"
       y1="76.543839"
       x2="199.86798"
       y2="76.543839"
       gradientUnits="userSpaceOnUse" />
    <linearGradient
       xlink:href="#linearGradient29"
       id="linearGradient30"
       x1="130.61322"
       y1="41.361153"
       x2="160.45877"
       y2="41.361153"
       gradientUnits="userSpaceOnUse" />
    <linearGradient
       xlink:href="#linearGradient92"
       id="linearGradient93"
       x1="133.72339"
       y1="100.29356"
       x2="142.78595"
       y2="97.173073"
       gradientUnits="userSpaceOnUse"
       gradientTransform="rotate(-3.3480328,138.25467,98.73333)" />
    <filter
       style="color-interpolation-filters:sRGB"
       id="filter93"
       x="-0.00054358526"
       y="-0.00018113857"
       width="1.0010872"
       height="1.0003623">
      <feGaussianBlur
         stdDeviation="0.0025497433"
         id="feGaussianBlur93" />
    </filter>
    <linearGradient
       xlink:href="#linearGradient92"
       id="linearGradient95"
       gradientUnits="userSpaceOnUse"
       gradientTransform="rotate(-3.3480328,138.25467,98.73333)"
       x1="133.72339"
       y1="100.29356"
       x2="142.78595"
       y2="97.173073" />
    <linearGradient
       xlink:href="#linearGradient112"
       id="linearGradient113"
       x1="136.23021"
       y1="160.14851"
       x2="157.84258"
       y2="160.14851"
       gradientUnits="userSpaceOnUse"
       gradientTransform="translate(0.15708157,-0.15708242)" />
    <linearGradient
       xlink:href="#linearGradient112"
       id="linearGradient117"
       gradientUnits="userSpaceOnUse"
       gradientTransform="rotate(-40.194952,121.12735,151.45057)"
       x1="136.23021"
       y1="160.14851"
       x2="157.84258"
       y2="160.14851" />
    <linearGradient
       xlink:href="#linearGradient112"
       id="linearGradient118"
       gradientUnits="userSpaceOnUse"
       gradientTransform="rotate(-40.194952,121.12735,151.45057)"
       x1="136.23021"
       y1="160.14851"
       x2="157.84258"
       y2="160.14851" />
    <linearGradient
       xlink:href="#linearGradient112"
       id="linearGradient120"
       gradientUnits="userSpaceOnUse"
       gradientTransform="rotate(-4.88384,-245.76489,13.231505)"
       x1="136.23021"
       y1="160.14851"
       x2="157.84258"
       y2="160.14851" />
    <linearGradient
       xlink:href="#linearGradient112"
       id="linearGradient121"
       gradientUnits="userSpaceOnUse"
       gradientTransform="rotate(-4.88384,-245.76489,13.231505)"
       x1="136.23021"
       y1="160.14851"
       x2="157.84258"
       y2="160.14851" />
    <linearGradient
       xlink:href="#linearGradient112"
       id="linearGradient123"
       gradientUnits="userSpaceOnUse"
       gradientTransform="matrix(-1.7003386,0.0732219,-0.53114846,-0.96012361,461.10306,304.23522)"
       x1="136.23021"
       y1="160.14851"
       x2="157.84258"
       y2="160.14851" />
    <linearGradient
       xlink:href="#linearGradient126"
       id="linearGradient127"
       x1="191.80124"
       y1="88.742485"
       x2="175.20248"
       y2="139.82823"
       gradientUnits="userSpaceOnUse" />
    <linearGradient
       xlink:href="#linearGradient128"
       id="linearGradient129"
       x1="90.521645"
       y1="162.85661"
       x2="77.788071"
       y2="162.85661"
       gradientUnits="userSpaceOnUse" />
    <linearGradient
       xlink:href="#linearGradient133"
       id="linearGradient134"
       x1="143.07458"
       y1="11.455237"
       x2="159.7533"
       y2="10.581144"
       gradientUnits="userSpaceOnUse"
       gradientTransform="rotate(27.004018,22.144385,2.7171155)" />
    <linearGradient
       xlink:href="#linearGradient135"
       id="linearGradient136"
       x1="143.06319"
       y1="11.018192"
       x2="159.76469"
       y2="11.018192"
       gradientUnits="userSpaceOnUse"
       gradientTransform="rotate(27.004018,22.144385,2.7171155)" />
    <linearGradient
       xlink:href="#linearGradient135"
       id="linearGradient137"
       gradientUnits="userSpaceOnUse"
       gradientTransform="rotate(28.648433,38.108291,-12.603939)"
       x1="143.06319"
       y1="11.018192"
       x2="159.76469"
       y2="11.018192" />
    <linearGradient
       xlink:href="#linearGradient133"
       id="linearGradient138"
       gradientUnits="userSpaceOnUse"
       gradientTransform="rotate(28.648433,38.108291,-12.603939)"
       x1="143.07458"
       y1="11.455237"
       x2="159.7533"
       y2="10.581144" />
    <filter
       style="color-interpolation-filters:sRGB"
       id="filter138"
       x="-0.089683104"
       y="-0.060852252"
       width="1.1793662"
       height="1.1217045">
      <feGaussianBlur
         stdDeviation="1.3308475"
         id="feGaussianBlur138" />
    </filter>
    <linearGradient
       xlink:href="#linearGradient135"
       id="linearGradient142"
       gradientUnits="userSpaceOnUse"
       gradientTransform="rotate(28.648433,38.108291,-12.603939)"
       x1="143.06319"
       y1="11.018192"
       x2="159.76469"
       y2="11.018192" />
    <linearGradient
       xlink:href="#linearGradient133"
       id="linearGradient143"
       gradientUnits="userSpaceOnUse"
       gradientTransform="rotate(28.648433,38.108291,-12.603939)"
       x1="143.07458"
       y1="11.455237"
       x2="159.7533"
       y2="10.581144" />
    <linearGradient
       xlink:href="#linearGradient135"
       id="linearGradient145"
       gradientUnits="userSpaceOnUse"
       gradientTransform="rotate(24.0885,-61.200682,81.196502)"
       x1="143.06319"
       y1="11.018192"
       x2="159.76469"
       y2="11.018192" />
    <linearGradient
       xlink:href="#linearGradient133"
       id="linearGradient146"
       gradientUnits="userSpaceOnUse"
       gradientTransform="rotate(24.0885,-61.200682,81.196502)"
       x1="143.07458"
       y1="11.455237"
       x2="159.7533"
       y2="10.581144" />
    <linearGradient
       xlink:href="#linearGradient147"
       id="linearGradient148"
       x1="9.264842"
       y1="139.89745"
       x2="206.50398"
       y2="139.89745"
       gradientUnits="userSpaceOnUse"
       gradientTransform="translate(-6.220124,8.8858914)" />
    <linearGradient
       xlink:href="#linearGradient133"
       id="linearGradient2"
       gradientUnits="userSpaceOnUse"
       gradientTransform="rotate(24.0885,-61.200682,81.196502)"
       x1="143.07458"
       y1="11.455237"
       x2="159.7533"
       y2="10.581144" />
    <linearGradient
       xlink:href="#linearGradient133"
       id="linearGradient3"
       gradientUnits="userSpaceOnUse"
       gradientTransform="rotate(27.004018,22.144385,2.7171155)"
       x1="143.07458"
       y1="11.455237"
       x2="159.7533"
       y2="10.581144" />
    <linearGradient
       xlink:href="#linearGradient112"
       id="linearGradient4"
       gradientUnits="userSpaceOnUse"
       gradientTransform="translate(0.15708157,-0.15708242)"
       x1="136.23021"
       y1="160.14851"
       x2="157.84258"
       y2="160.14851" />
  </defs>
  <g
     id="layer1">
    <path
       style="fill:url(#linearGradient148);fill-opacity:1;stroke:#000000;stroke-width:0.365001;stroke-dasharray:none;stroke-opacity:0.501109"
       d="M 187.04802,99.966276 C 177.71783,64.422712 196.3782,64.867006 180.82789,54.648232 165.27758,44.429457 121.29242,10.66307 105.29782,19.993255 89.303208,29.323441 31.989209,28.879146 29.323442,47.539518 26.657673,66.19989 -9.8263275e-8,137.28702 3.5543565,162.61181 7.108713,187.9366 32.877797,233.69894 43.540867,253.6922 c 10.663071,19.99326 38.209333,31.54492 69.754253,22.21473 31.54491,-9.33019 31.10062,-13.77314 55.53682,-46.65094 24.4362,-32.87779 35.54357,-72.8643 29.76774,-84.41596 -5.77584,-11.55166 -11.55166,-44.873754 -11.55166,-44.873754 z"
       id="path147" />
    <path
       id="path142"
       style="mix-blend-mode:normal;fill:url(#linearGradient142);stroke:url(#linearGradient143);stroke-width:0.365001;stroke-opacity:0.501109;filter:url(#filter138)"
       d="m 137.81958,35.13622 5.1127,2.793142 c 2.55501,1.395839 2.82792,5.785128 0.61189,9.841448 l -20.31659,37.188439 c -2.21603,4.056321 -6.05698,6.198148 -8.61199,4.80231 l -5.1127,-2.793143 c -2.55501,-1.395842 -2.82791,-5.785127 -0.61189,-9.841448 L 129.2076,39.93853 c 2.21603,-4.056321 6.05697,-6.198153 8.61198,-4.80231 z"
       transform="matrix(0.82845818,-0.05418735,0.05373404,0.82152753,49.899569,53.178454)" />
    <path
       style="fill:#1a1a1a;fill-opacity:1;stroke:#000000;stroke-width:0.365001;stroke-dasharray:none;stroke-opacity:0.501109"
       id="path141"
       d="m 199.72435,-8.5690565 a 10.99629,5.9979763 0 0 1 -10.10818,5.9783822 10.99629,5.9979763 0 0 1 -11.74095,-5.0127008 10.99629,5.9979763 0 0 1 8.21168,-6.7880779 10.99629,5.9979763 0 0 1 13.06737,3.91623"
       transform="rotate(26.986244)" />
    <path
       id="path146"
       style="fill:#ffffff;stroke:url(#linearGradient2);stroke-width:0.365001;stroke-opacity:0.501109"
       d="m 170.9356,75.759067 5.31856,2.377831 c 2.6579,1.188293 3.2789,5.541992 1.39237,9.761651 L 160.3508,126.58448 c -1.88654,4.21965 -5.54504,6.66006 -8.20295,5.47177 l -5.31856,-2.37783 c -2.6579,-1.1883 -3.27889,-5.542 -1.39237,-9.76165 l 17.29574,-38.685926 c 1.88654,-4.21966 5.54503,-6.660075 8.20294,-5.471777 z" />
    <path
       id="path145"
       style="fill:url(#linearGradient145);stroke:url(#linearGradient146);stroke-width:0.365001;stroke-opacity:0.501109"
       d="m 170.9356,75.759067 5.31856,2.377831 c 2.6579,1.188293 3.2789,5.541992 1.39237,9.761651 L 160.3508,126.58448 c -1.88654,4.21965 -5.54504,6.66006 -8.20295,5.47177 l -5.31856,-2.37783 c -2.6579,-1.1883 -3.27889,-5.542 -1.39237,-9.76165 l 17.29574,-38.685926 c 1.88654,-4.21966 5.54503,-6.660075 8.20294,-5.471777 z" />
    <path
       style="fill:#1a1a1a;fill-opacity:1;stroke:#000000;stroke-width:0.365001;stroke-dasharray:none;stroke-opacity:0.501109"
       id="path138"
       d="m 161.81285,-19.337538 a 10.99629,5.9979763 0 0 1 -10.10818,5.978382 10.99629,5.9979763 0 0 1 -11.74095,-5.0127 10.99629,5.9979763 0 0 1 8.21168,-6.788079 10.99629,5.9979763 0 0 1 13.06737,3.916231"
       transform="rotate(24.0337)" />
    <path
       id="path140"
       style="fill:#ffffff;stroke:url(#linearGradient3);stroke-width:0.365001;stroke-opacity:0.501109"
       d="m 144.3646,41.174035 5.19074,2.645274 c 2.59401,1.321945 2.99277,5.701595 0.89405,9.819836 l -19.24104,37.75614 c -2.09872,4.118242 -5.87662,6.369409 -8.47064,5.047465 l -5.19074,-2.645275 c -2.59401,-1.321948 -2.99276,-5.701594 -0.89405,-9.819836 L 135.89397,46.2215 c 2.09872,-4.118242 5.87661,-6.369414 8.47063,-5.047465 z" />
    <path
       id="path136"
       style="fill:url(#linearGradient136);stroke:url(#linearGradient134);stroke-width:0.365001;stroke-opacity:0.501109"
       d="m 144.3646,41.174035 5.19074,2.645274 c 2.59401,1.321945 2.99277,5.701595 0.89405,9.819836 l -19.24104,37.75614 c -2.09872,4.118242 -5.87662,6.369409 -8.47064,5.047465 l -5.19074,-2.645275 c -2.59401,-1.321948 -2.99276,-5.701594 -0.89405,-9.819836 L 135.89397,46.2215 c 2.09872,-4.118242 5.87661,-6.369414 8.47063,-5.047465 z" />
    <path
       id="rect129"
       style="mix-blend-mode:normal;fill:url(#linearGradient137);stroke:url(#linearGradient138);stroke-width:0.365001;stroke-opacity:0.501109;filter:url(#filter138)"
       d="m 137.81958,35.13622 5.1127,2.793142 c 2.55501,1.395839 2.82792,5.785128 0.61189,9.841448 l -20.31659,37.188439 c -2.21603,4.056321 -6.05698,6.198148 -8.61199,4.80231 l -5.1127,-2.793143 c -2.55501,-1.395842 -2.82791,-5.785127 -0.61189,-9.841448 L 129.2076,39.93853 c 2.21603,-4.056321 6.05697,-6.198153 8.61198,-4.80231 z"
       transform="matrix(0.82936625,-0.03782651,0.03751007,0.82242801,24.420957,15.874708)" />
    <path
       style="fill:url(#linearGradient123);fill-opacity:1;stroke:#000000;stroke-width:0.471885;stroke-dasharray:none;stroke-opacity:1"
       d="m 119.94006,150.94082 c -5.62206,16.40146 -7.81529,9.21666 -2.42074,11.97756 5.21474,2.66881 16.60217,10.47946 17.02582,5.82248 0.39047,-4.28496 1.7707,-8.40082 4.29686,-8.72797 2.52606,-0.32717 9.32276,5.79127 8.78044,7.48324 -1.52349,4.75277 -8.11082,6.12482 -9.95899,9.04896 -1.87895,2.97267 -26.27684,-8.07045 -28.07415,-11.59348 -4.95727,-9.71689 9.31714,-14.69443 10.97047,-18.6963 1.65333,-4.00186 -0.61975,4.6855 -0.61975,4.6855 z"
       id="path123" />
    <rect
       style="fill:#ffffff;fill-opacity:1;stroke-width:0.264583"
       id="rect124"
       width="29.845552"
       height="81.368408"
       x="170.02243"
       y="35.859631"
       ry="20.464125"
       transform="rotate(22.135114)"
       rx="6.9102526" />
    <rect
       style="fill:url(#linearGradient129);fill-opacity:1;stroke:#000000;stroke-width:0.180784;stroke-opacity:0.501109"
       id="rect109"
       width="12.733561"
       height="41.163414"
       x="77.788078"
       y="142.27492"
       rx="4.9411392"
       ry="11.484916"
       transform="matrix(0.83174937,-0.55515131,0.38504322,0.92289854,0,0)" />
    <path
       id="path110"
       style="mix-blend-mode:normal;fill:#ffffff;stroke-width:0.264583;filter:url(#filter93)"
       transform="matrix(1.3952213,-0.1230683,0.13748467,1.2489212,-82.810292,20.314063)"
       d="m 133.87717,80.88098 a 20.347702,3.3130534 76.708745 0 0 -0.42808,0.138221 20.347702,3.3130534 76.708745 0 0 1.69909,20.438359 l 1.65347,6.25361 a 20.347702,3.3130534 76.708745 0 0 2.09893,6.2735 c 0.0499,-0.0346 0.11797,-0.0508 0.16634,-0.0643 0.0533,-0.0162 0.10626,-0.0216 0.15942,-0.0166 0.0177,0.002 0.0354,0.005 0.0532,0.009 0.0383,0.009 0.075,0.0235 0.11133,0.0391 0.0481,-0.004 0.0963,-0.005 0.14447,-0.004 0.0809,0.002 0.16146,0.0119 0.24129,0.0246 0.0564,0.0113 0.11351,0.0201 0.16981,0.032 0.0599,0.013 0.11993,0.0253 0.18,0.0376 0.0795,0.0159 0.15815,0.0358 0.23663,0.0568 0.0788,0.0211 0.15652,0.0463 0.23343,0.0743 0.0878,0.0336 0.17683,0.0624 0.26409,0.0976 0.13189,0.0511 0.24833,0.13556 0.36125,0.22427 0.0219,0.0198 0.0449,0.0386 0.0677,0.0576 0.0462,0.007 0.0885,0.0349 0.13246,0.0503 0.0103,0.004 0.0206,0.008 0.0311,0.0118 0.046,-0.0187 0.10034,-0.0106 0.14501,0.002 0.0213,0.009 0.0358,0.0183 0.0441,0.0296 0.009,5.4e-4 0.0171,0.001 0.0258,0.002 0.0457,0.003 0.10586,0.008 0.17118,0.0144 0.21114,-0.0319 0.41941,-0.0844 0.63014,-0.13652 0.37188,-0.0703 0.73409,-0.19075 1.10415,-0.27104 0.10467,-0.0205 0.17468,-0.0468 0.23964,-0.0827 0.0462,-0.0568 0.0915,-0.1146 0.13522,-0.17329 A 20.347702,3.3130534 76.708745 0 0 140.80121,96.756441 20.347702,3.3130534 76.708745 0 0 133.87709,80.8818 Z m 5.72901,33.2237 c -0.005,0 -0.0104,7e-5 -0.0156,1.2e-4 0.005,3.4e-4 0.0102,8e-4 0.0154,0.001 z m -0.0156,1.2e-4 c -0.0197,-10e-4 -0.0396,-0.002 -0.0593,-0.003 l 10e-4,9.3e-4 c -0.0122,-7e-5 -0.0244,-2e-5 -0.0367,1.1e-4 -0.0113,0.003 -0.0223,0.006 -0.0324,0.009 0.013,-0.001 0.0258,-0.002 0.0388,-0.003 0.0295,-0.003 0.059,-0.004 0.0886,-0.004 z m -0.22419,0.005 c -0.0148,0.002 -0.0294,0.003 -0.0443,0.006 -0.01,0.001 -0.0193,0.003 -0.0289,0.004 0.01,-6.1e-4 0.0197,-0.001 0.0295,-0.002 0.0206,10e-4 0.041,6.9e-4 0.0615,-1.5e-4 -0.005,-0.002 -0.0108,-0.004 -0.016,-0.007 -5.4e-4,-2.3e-4 -0.001,-4e-4 -0.002,-6.3e-4 z m 0.67585,0.0724 -4e-5,4.1e-4 c 0.002,4.3e-4 0.004,5.7e-4 0.006,9.8e-4 -0.002,-5.8e-4 -0.004,-8e-4 -0.006,-10e-4 z m 0.006,0.001 c 0.0392,0.0121 0.0787,0.0218 0.11903,0.0287 0.006,5e-4 0.0124,0.001 0.0186,0.003 -0.0291,-0.007 -0.0582,-0.0151 -0.0876,-0.021 -0.0168,-0.004 -0.0333,-0.007 -0.0501,-0.0103 z m 0.19521,0.0449 c 0.0198,0.006 0.0397,0.0111 0.0594,0.017 0.0261,0.008 0.0529,0.0136 0.0797,0.0182 -0.0184,-0.005 -0.037,-0.0105 -0.0555,-0.0154 -0.0278,-0.008 -0.0557,-0.013 -0.0836,-0.0198 z m -0.0893,0.13975 -9e-5,8.1e-4 3.7e-4,4e-5 c -1e-4,-3.4e-4 -1.7e-4,-5.1e-4 -2.8e-4,-8.5e-4 z m 2.8e-4,8.5e-4 c 4.9e-4,0.002 8.9e-4,0.003 0.002,0.005 0.001,3.4e-4 0.002,4.9e-4 0.003,6.9e-4 0.006,-7.8e-4 0.0128,-0.002 0.0191,-0.002 -0.008,-0.002 -0.0157,-0.003 -0.0237,-0.004 z m 0.78517,0.21847 -4.1e-4,3.7e-4 c -0.001,0.006 -0.003,0.0119 -0.004,0.0182 0.002,2.5e-4 0.004,6.6e-4 0.006,9.9e-4 0.009,0.002 0.0181,0.003 0.0271,0.003 -0.009,-0.008 -0.0185,-0.0157 -0.0281,-0.023 z" />
    <path
       style="fill:#88aa00;stroke-width:0.264583"
       id="path2"
       d="m 122.72832,187.90538 c 0.69369,5.84669 1.34268,11.70496 1.66046,17.58639 0.0714,1.32241 0.10193,2.64671 0.15289,3.97007 -0.008,5.71809 0.0334,11.56984 -1.59115,17.11164 -0.248,0.84598 -0.586,1.66293 -0.87899,2.49439 -1.08419,2.47556 -2.38424,4.95178 -4.52845,6.68107 -0.39299,0.31694 -0.79529,0.64049 -1.2567,0.84542 -0.47107,0.20923 -0.99951,0.25242 -1.49926,0.37864 -1.17,0.77696 -2.19624,-0.73402 -3.27943,-0.50933 -0.45689,0.0948 1.51195,0.95523 1.28932,0.54515 -0.42799,-0.78836 -1.36258,-1.17157 -1.98177,-1.82064 -1.87795,-1.96853 -2.43311,-2.97831 -4.01327,-5.26475 -3.56378,-5.86655 -6.15552,-12.2468 -8.792513,-18.56262 -3.511719,-8.41085 -1.744683,-4.20125 -5.473038,-13.02836 -5.522717,-12.97758 -9.297569,-26.58498 -12.782537,-40.22146 -1.171609,-4.58444 -4.744566,-19.20333 -5.900438,-23.91736 -3.548465,-14.97806 -7.418335,-29.87567 -11.306852,-44.767917 -0.629984,-2.551359 -1.408107,-5.081043 -1.706785,-7.70123 -0.123301,-1.081669 -0.121192,-1.51208 -0.161774,-2.571715 -0.05177,-1.963368 0.02588,-3.926274 0.06969,-5.888845 0,0 -3.441981,-1.7614 -3.441981,-1.7614 v 0 c -0.02543,1.980615 -0.05794,3.962138 -0.0168,5.942645 0.07109,1.368248 0.138544,2.732974 0.398341,4.082328 0.425728,2.211167 1.244248,4.317198 1.863712,6.475306 4.628877,14.985988 8.799131,30.106168 12.530809,45.341618 3.953825,15.82634 1.976991,7.84876 5.929088,23.93307 3.351178,13.4827 6.748803,27.00775 12.018081,39.89949 2.687606,6.55869 2.704947,6.58396 5.283359,12.93955 2.536817,6.25308 4.955508,12.5949 8.364478,18.44217 0.64274,0.96978 1.24227,1.96963 1.92821,2.90935 2.39068,3.27516 6.39469,7.21373 10.54355,7.65434 0.56898,0.0604 1.14407,-0.0258 1.71611,-0.0387 0.52576,-0.1594 1.08383,-0.23666 1.57727,-0.47819 0.46659,-0.22838 0.8694,-0.57387 1.26351,-0.91232 2.12946,-1.82875 3.40871,-4.36558 4.47587,-6.90854 0.286,-0.84907 0.61825,-1.68393 0.85799,-2.5472 1.55734,-5.60784 1.4669,-11.51045 1.4765,-17.27513 -0.055,-1.32927 -0.0883,-2.65961 -0.16499,-3.98781 -0.33376,-5.78218 -0.99434,-11.54561 -1.18633,-17.33629 z" />
    <ellipse
       style="fill:#88aa00;stroke-width:0.206576"
       id="path3"
       cx="100.65485"
       cy="43.457409"
       rx="3.3195317"
       ry="2.1749539"
       transform="matrix(0.79710552,0.60384004,-0.68247158,0.73091213,0,0)" />
    <ellipse
       style="fill:#668000;stroke-width:0.251901"
       id="ellipse3"
       cx="-81.365677"
       cy="131.08664"
       rx="4.0620098"
       ry="2.6429448"
       transform="matrix(0.46526945,-0.8851691,0.82538315,0.56457299,0,0)" />
    <ellipse
       style="fill:#668000;stroke-width:0.433391"
       id="path4"
       cx="-61.603573"
       cy="86.393532"
       rx="4.6250739"
       ry="1.8035957"
       transform="matrix(0.37973353,-0.92509591,0.92110441,0.38931563,0,0)" />
    <path
       style="fill:#668000;stroke-width:0.264583"
       id="path9"
       d="m 120.3259,235.47071 c -0.0422,0.19389 -0.18136,0.33536 -0.30948,0.47816 -0.14532,0.16199 -0.15345,0.16768 -0.30677,0.32734 -0.23129,0.20198 -0.43161,0.43581 -0.6553,0.64583 -0.0578,0.0543 -0.26471,0.23384 -0.3268,0.288 -0.25413,0.22346 -0.5343,0.41324 -0.80255,0.61865 -0.23944,0.1766 -0.50605,0.31479 -0.78148,0.42585 -0.30976,0.11491 -0.63763,0.17187 -0.96309,0.22241 -0.38623,0.0507 -0.77601,0.0576 -1.1649,0.0502 -0.26173,-0.0111 -0.5233,-0.0332 -0.78538,-0.0326 -0.10834,-0.006 -0.22091,0.0148 -0.32896,0.002 -0.092,-0.0105 -0.21824,-0.057 -0.30535,-0.0885 -0.15286,-0.0683 -0.30888,-0.13798 -0.45388,-0.22265 -0.0322,-0.0188 -0.12566,-0.0802 -0.0933,-0.0617 1.06927,0.61209 2.13616,1.22834 3.20424,1.84251 -0.14914,-0.0647 -0.27049,-0.17684 -0.40967,-0.25766 -1.12755,-0.65478 -2.25568,-1.30861 -3.38692,-1.95701 -1.06708,-0.61162 2.12963,1.23112 3.19444,1.84669 -0.19204,-0.117 -0.37432,-0.24904 -0.56423,-0.36924 -0.27871,-0.15337 -0.51124,-0.36968 -0.73279,-0.59463 -0.14526,-0.15568 -0.29454,-0.30897 -0.45008,-0.45476 -0.10356,-0.099 -0.22863,-0.16973 -0.34226,-0.25536 -0.0243,-0.0184 -0.0471,-0.0387 -0.0707,-0.0581 -1.13456,-0.65316 -2.26912,-1.30632 -3.40368,-1.95948 -0.18657,-0.0952 -0.3927,-0.13711 -0.58673,-0.21296 -0.0482,-0.0189 -0.0952,-0.0409 -0.14277,-0.0614 -0.14872,-0.0616 -0.28299,-0.14857 -0.41915,-0.23266 -0.0417,-0.0257 -0.16888,-0.0993 -0.12645,-0.0749 3.08698,1.78032 4.14465,2.42141 2.99535,1.726 -0.21357,-0.13983 -0.41953,-0.29108 -0.61212,-0.45868 -0.0392,-0.0385 -0.0799,-0.0755 -0.11774,-0.11533 -0.0364,-0.0384 -0.0687,-0.0805 -0.10487,-0.11913 -0.15202,-0.1621 -0.31662,-0.31307 -0.47325,-0.47069 -0.20474,-0.19415 -0.39255,-0.40379 -0.57994,-0.61432 -0.17789,-0.19499 -0.34789,-0.397 -0.52102,-0.59636 -0.20902,-0.24436 -0.41777,-0.48979 -0.64389,-0.71859 -0.24524,-0.23652 -0.4768,-0.48627 -0.70877,-0.7357 -0.31305,-0.32777 -0.5636,-0.70673 -0.83736,-1.06626 -0.34591,-0.43873 -0.64441,-0.91165 -0.95405,-1.37592 -0.22811,-0.33113 -0.43856,-0.67357 -0.66724,-1.00427 -0.1378,-0.18955 -0.26492,-0.38636 -0.39663,-0.58003 -0.057,-0.0838 -0.11801,-0.16475 -0.17379,-0.24931 -0.1177,-0.17841 -0.19911,-0.32439 -0.3064,-0.50891 -0.23222,-0.40516 -0.48497,-0.79872 -0.68617,-1.22096 -0.1021,-0.21426 -0.17332,-0.39802 -0.26235,-0.61686 -0.1971,-0.51926 -0.38759,-1.04123 -0.54756,-1.57321 -0.13463,-0.43094 -0.26438,-0.86317 -0.3855,-1.29811 -0.0325,-0.1168 -0.0608,-0.23482 -0.0964,-0.35072 -0.04,-0.13026 -0.0869,-0.25831 -0.13035,-0.38747 -0.0576,-0.1882 -0.16603,-0.53825 -0.21948,-0.73069 -0.0302,-0.10876 -0.053,-0.21953 -0.085,-0.32778 -0.0377,-0.12753 -0.0842,-0.25231 -0.12386,-0.37923 -0.11747,-0.37551 -0.12396,-0.41587 -0.22552,-0.79601 -0.17392,-0.73885 -0.29346,-1.48894 -0.459,-2.22968 -0.0289,-0.11809 -0.0558,-0.23667 -0.0866,-0.35428 -0.10375,-0.39664 -0.10444,-0.35457 -0.21321,-0.7562 -0.0993,-0.36675 -0.18214,-0.73792 -0.2687,-1.10781 -0.15719,-0.69014 -0.35255,-1.37003 -0.56136,-2.04598 -0.12598,-0.3656 -0.23421,-0.738 -0.379204,-1.09685 -0.08117,-0.2009 -0.117742,-0.27083 -0.210201,-0.46611 -0.231709,-0.41988 -0.496432,-0.81869 -0.788352,-1.19868 -0.09631,-0.10545 -0.218911,-0.30157 -0.345578,-0.37477 -3.384651,-1.9562 -2.112828,-1.72634 -3.500636,-1.96402 -0.08846,-0.0245 -0.181822,-0.01 -0.269737,-0.0369 -0.07784,-0.024 -0.154012,-0.0711 -0.223676,-0.11182 0.03827,0.0404 -0.239755,-0.14713 -0.178742,-0.11214 1.058277,0.60695 2.112123,1.2216 3.169385,1.83033 0.04056,0.0234 -0.07999,-0.0487 -0.119226,-0.0742 -0.03628,-0.0236 -0.06985,-0.0514 -0.1073,-0.0731 -1.125778,-0.65189 -2.25472,-1.29831 -3.382081,-1.94746 -0.32153,-0.11765 -0.210934,0.0234 -0.434245,0.45718 0,0 3.688369,1.44304 3.688369,1.44304 v 0 c -0.101108,0.154 -0.20482,0.30632 -0.303321,0.46199 -0.0034,0.005 -0.0054,0.0144 -0.0011,0.0189 0.0141,0.0142 0.03404,0.021 0.05106,0.0315 -1.06185,-0.61435 -2.124417,-1.22746 -3.185547,-1.84306 -0.03836,-0.0222 0.07932,0.0399 0.117176,0.063 0.03712,0.0226 0.06989,0.0521 0.107429,0.074 1.126294,0.65851 2.253456,1.31556 3.383746,1.9672 0.03174,0.0183 0.195548,0.084 0.23363,0.0996 0.07656,0.0221 0.116366,0.0357 0.193555,0.05 0.107763,0.02 0.214805,0.0292 0.310669,0.0891 1.109668,0.72258 0.311809,0.20113 -3.151899,-1.81179 -0.03333,-0.0194 0.07064,0.0309 0.105759,0.0468 0.153622,0.0694 0.282427,0.14934 0.407863,0.26463 0.33532,0.34991 0.644499,0.72333 0.885828,1.14579 0.278667,0.49918 0.518787,1.01848 0.708393,1.5583 0.245464,0.66945 0.461073,1.34983 0.628292,2.04336 0.184296,0.73547 0.373878,1.46961 0.552998,2.20637 0.178665,0.75389 0.354483,1.50854 0.518517,2.26576 0.03139,0.13388 0.06278,0.26777 0.09417,0.40166 0.0315,0.12862 0.06426,0.25693 0.0945,0.38585 0.02842,0.12117 0.04892,0.24425 0.08147,0.36437 0.09934,0.36662 0.252166,0.71745 0.351615,1.08414 0.09194,0.35127 0.196922,0.69856 0.277117,1.05279 0.02471,0.10918 0.04641,0.21903 0.06961,0.32853 0.02032,0.10204 0.03815,0.20459 0.06094,0.3061 0.02098,0.0935 0.0469,0.1859 0.07035,0.27885 0.02344,0.0884 0.118984,0.45376 0.147174,0.54145 0.1211,0.37672 0.28914,0.74505 0.44932,1.10621 0.35054,0.77706 -0.0704,-0.15267 0.29789,0.64941 0.18594,0.4049 0.36221,0.81547 0.58545,1.20189 0.24166,0.43813 0.47362,0.8816 0.74067,1.30509 0.075,0.11974 0.12315,0.20007 0.20394,0.31592 0.17043,0.24441 0.35763,0.47705 0.52438,0.72415 0.36103,0.50486 -0.0713,-0.0942 0.31834,0.42774 0.22809,0.30557 0.4381,0.62453 0.63468,0.95116 0.22985,0.35518 0.0258,0.0491 0.2618,0.37874 0.16312,0.22786 0.3103,0.467 0.48208,0.68873 0.10805,0.1334 0.219,0.26149 0.33456,0.38838 0.0741,0.0813 0.14349,0.16692 0.21974,0.24621 0.0361,0.0376 0.0755,0.0719 0.11324,0.10779 0.36015,0.3717 -0.1484,-0.14888 0.22581,0.21996 0.14993,0.14779 0.28597,0.30981 0.42369,0.46872 0.0847,0.10558 0.1735,0.20842 0.25453,0.31691 0.0245,0.0328 0.0456,0.0682 0.0714,0.0999 0.025,0.0306 0.0538,0.0578 0.0807,0.0868 0.0274,0.0343 0.0547,0.0686 0.0821,0.10297 0.0355,0.036 0.15601,0.15708 0.18921,0.194 0.13866,0.15419 0.26822,0.31856 0.42988,0.45039 0.15483,0.15281 0.30338,0.31275 0.46107,0.46259 0.0376,0.0357 0.0804,0.0661 0.11578,0.10402 0.0355,0.038 0.0641,0.0819 0.0962,0.12284 0.0549,0.0673 0.11649,0.14587 0.17718,0.20883 0.11761,0.12199 0.26631,0.22488 0.40313,0.32357 1.1736,0.85253 0.10414,0.082 3.49696,2.04652 0.1795,0.10394 0.37117,0.18149 0.56314,0.25909 0.26192,0.10346 0.5259,0.20288 0.76793,0.34908 -1.0706,-0.61979 -2.1422,-1.23784 -3.21178,-1.85936 -0.0281,-0.0164 0.0596,0.0266 0.0873,0.0438 0.0302,0.0187 0.0568,0.0426 0.0856,0.0634 0.0869,0.063 0.17864,0.11669 0.26811,0.17583 0.0861,0.0575 0.17133,0.11607 0.24734,0.18694 0.044,0.041 0.11174,0.11845 0.15597,0.15861 0.0298,0.027 0.0622,0.051 0.0934,0.0765 0.11544,0.11891 0.0947,0.10113 0.22369,0.21832 0.0431,0.0392 0.0888,0.0756 0.13073,0.11612 0.1095,0.10594 0.20987,0.22186 0.32452,0.3228 0.18481,0.13235 0.38242,0.24635 0.56658,0.37985 1.12811,0.65614 2.28169,1.27031 3.38432,1.96841 1.03793,0.65714 -2.12673,-1.23029 -3.19009,-1.84544 0.0347,0.0182 0.0701,0.035 0.10398,0.0546 0.10344,0.0598 0.20111,0.13012 0.29517,0.20351 1.13147,0.65132 2.26055,1.30679 3.3944,1.95396 0.0312,0.0178 0.0666,0.027 0.0999,0.0405 0.0636,0.0257 0.14955,0.0615 0.21409,0.0829 0.11064,0.0366 0.16377,0.0472 0.27739,0.0751 0.096,0.0147 0.16012,0.028 0.25652,0.0296 0.0387,5.2e-4 0.0772,-0.004 0.11589,-0.005 0.11219,-0.002 0.22468,0.001 0.33682,0.004 0.23436,0.002 0.46833,-0.0171 0.70164,-0.0378 0.39972,-0.0233 0.80113,-0.0318 1.19741,-0.0938 0.35749,-0.062 0.71503,-0.13612 1.05178,-0.27515 0.29622,-0.13768 0.55359,-0.30912 0.81314,-0.50689 0.28231,-0.20161 0.54559,-0.42708 0.7736,-0.68973 0.31736,-0.32381 0.6409,-0.64094 0.96728,-0.95566 0.27802,-0.26694 0.57293,-0.51494 0.86537,-0.76562 z" />
    <path
       style="fill:#668000;stroke-width:0.264583"
       id="path10"
       d="m 100.37196,212.9729 c -0.0199,-0.0436 -0.0359,-0.0891 -0.0597,-0.13072 -0.12455,-0.21809 -0.30022,-0.40356 -0.469631,-0.5863 -0.102285,-0.11034 -0.351486,-0.37202 -0.454589,-0.48056 -0.351925,-0.37264 -0.716687,-0.73549 -1.126733,-1.04422 -1.224092,-0.81999 -0.348263,-0.23878 -3.535664,-2.03481 -0.02111,-0.0119 -0.341037,-0.14177 -0.362837,-0.14973 -0.249457,-0.0817 -0.12696,-0.039 -0.367601,-0.12805 -0.234238,-0.0957 -0.482822,-0.14783 -0.72503,-0.21814 -0.08849,-0.0257 -0.361939,-0.11633 -0.444828,-0.14354 -0.08163,-0.0277 -0.16351,-0.0547 -0.244885,-0.0832 -0.150892,-0.0528 -0.342985,-0.12746 -0.497144,-0.17097 -0.254984,-0.0719 -0.518946,-0.1136 -0.779669,-0.15789 -0.311377,-0.0387 -0.623689,-0.0961 -0.93875,-0.0796 -0.189071,0.01 -0.223871,0.0231 -0.410424,0.0586 -0.228428,0.0371 -0.449027,0.10904 -0.673904,0.16114 -0.228441,0.0529 -0.460021,0.0913 -0.688647,0.14406 -0.227285,0.0524 -0.454525,0.11312 -0.675161,0.18943 -0.08627,0.0298 -0.169839,0.0671 -0.255929,0.0975 -0.193151,0.0681 -0.389215,0.12768 -0.58374,0.19177 -0.365635,0.13001 -0.735663,0.2486 -1.095666,0.39395 -0.08354,0.0337 -0.166145,0.0697 -0.249216,0.10457 -0.084,0.0335 -0.167992,0.067 -0.251986,0.10054 -0.26338,0.11224 -0.533694,0.20968 -0.811229,0.28094 -0.100195,0.0257 -0.200551,0.0523 -0.302808,0.0679 -0.280511,0.0429 -0.352692,0.025 -0.634118,0.0109 -0.340892,-0.0548 -0.301464,-0.0331 -0.630624,-0.1481 -0.106336,-0.0371 -0.213109,-0.0743 -0.315005,-0.12227 -0.10758,-0.0507 -0.415187,-0.2321 -0.311965,-0.17306 2.805692,1.60494 3.458379,2.07192 2.280473,1.25662 -0.578536,-0.44565 -1.074817,-0.98455 -1.546236,-1.53918 -0.569108,-0.68134 -1.041619,-1.43607 -1.489175,-2.20063 -0.517129,-0.89838 -0.963618,-1.84191 -1.294884,-2.82532 -0.06032,-0.17908 -0.109668,-0.36167 -0.1645,-0.5425 -0.09436,-0.45942 -0.08081,-0.25837 -0.07985,-0.59922 0,0 -3.303175,-1.50863 -3.303175,-1.50863 v 0 c 0.335444,0.42831 0.168815,0.18345 0.479677,0.74795 0.432969,1.12794 0.819033,2.27615 1.334558,3.37063 0.05152,0.1022 0.369221,0.73516 0.431154,0.84771 0.06822,0.12397 0.143576,0.24387 0.216086,0.36538 0.194288,0.32559 0.392594,0.64896 0.612886,0.95787 0.189828,0.23931 0.238945,0.31009 0.446555,0.53599 0.365083,0.39725 0.771271,0.75487 1.167464,1.12008 1.285322,1.06318 0.388911,0.35109 3.638783,2.19369 0.115313,0.0654 0.240247,0.1128 0.364418,0.1592 0.334838,0.12511 0.685387,0.18837 1.042427,0.19392 0.113659,-0.006 0.227774,-0.007 0.340976,-0.0184 0.532318,-0.0559 1.04679,-0.21902 1.544378,-0.40905 0.514065,-0.20172 1.020504,-0.42298 1.54195,-0.60528 0.238955,-0.0721 0.355735,-0.1117 0.599927,-0.16784 0.100562,-0.0231 0.202681,-0.039 0.303463,-0.0611 0.231884,-0.0509 0.461558,-0.11271 0.694219,-0.16045 0.448205,-0.1088 0.895932,-0.22653 1.358056,-0.25876 0.409851,-0.0228 0.820063,-0.009 1.224159,0.0709 0.229301,0.0478 0.272965,0.0524 0.501274,0.11876 0.335428,0.0975 0.660958,0.22655 0.992558,0.33567 0.413345,0.14241 0.830204,0.27458 1.239541,0.42847 0.177514,0.0644 0.349837,0.13498 0.519718,0.21787 0.0582,0.0284 0.228976,0.12097 0.172998,0.0884 -2.939399,-1.70993 -4.085722,-2.27727 -2.855539,-1.66359 0.112019,0.0671 0.285951,0.169 0.391115,0.24184 0.330377,0.22884 0.636892,0.49646 0.912952,0.78781 0.264116,0.27419 0.527638,0.55938 0.723223,0.88799 z" />
    <path
       style="fill:#668000;stroke-width:0.264583"
       d="m 65.651884,114.4976 c -1.638434,0.88723 -4.086237,2.35831 -4.45813,4.38852 -0.05967,0.32574 0.187593,0.6415 0.204328,0.97224 0.01587,0.31375 -0.190333,0.63318 -0.107779,0.9363 0.155667,0.57157 0.736477,0.92808 1.104712,1.39212 0.322204,0.40603 0.451681,1.15882 0.96662,1.2181 0.15605,0.0179 0.362373,-0.40106 0.522043,-0.41427 1.673483,-0.13887 1.688831,-0.004 1.637975,-1.86701 -0.0045,-0.16552 -0.121096,-0.32162 -0.102161,-0.48611 0.01694,-0.14713 0.267064,-0.15219 0.348028,-0.27618 0.18769,-0.28757 1.027089,-1.87548 1.013772,-1.93886 -0.03046,-0.14493 -0.263931,-0.20043 -0.276175,-0.34802 -0.01369,-0.16501 0.191003,-0.2857 0.209937,-0.45019 0.0084,-0.0736 -0.131964,-0.10023 -0.13809,-0.17402 -0.191065,-2.30251 1.603339,2.95271 -0.92508,-2.95262 z"
       id="path11" />
    <path
       style="fill:#668000;stroke-width:0.264583"
       d="m 71.927478,129.13966 c -0.442447,-0.0405 -0.997664,0.17644 -1.327344,-0.12141 -0.8591,-0.77614 -2.247717,-4.444 -3.818804,-4.5877 -3.269207,-0.29901 -0.578905,-0.0938 -1.589034,0.30082 -0.06885,0.0272 -0.182216,-0.0831 -0.221228,-0.0202 -0.04793,0.0773 0.02064,0.80034 -0.08093,0.88489 -0.306865,0.25545 -2.171162,0.40754 -2.473931,0.21988 -0.140746,-0.0872 -0.09388,-0.32171 -0.18076,-0.46269 -0.219765,-0.35661 -0.622057,-0.58849 -0.803955,-0.96581 -0.287614,-0.59662 -0.53408,-1.21595 -0.72303,-1.85074 -0.122084,-0.41018 0.256905,-0.42519 -0.160517,-0.6839 -0.222749,-0.13806 -0.69051,0.75717 -0.74461,0.82419 -1.117564,1.38422 -2.099295,3.34055 -1.81296,5.18797 0.074,0.47743 0.825295,1.72806 1.145235,2.11241 0.135074,0.16228 3.173115,0.13843 3.338591,0.0823 1.034874,-0.35105 0.499847,-0.82483 1.247762,-1.44738 0.113835,-0.0947 0.316373,0.1181 0.442443,0.0404 0.227298,-0.14006 0.275857,-0.48312 0.503151,-0.6232 0.126089,-0.0777 0.295556,0.0593 0.442449,0.0405 0.534712,-0.0685 1.054323,-0.23229 1.589035,-0.30081 0.986187,-0.12638 1.28379,0.44002 1.910079,1.067 0.18868,0.1889 0.471675,0.28334 0.623203,0.50315 0.297175,0.43111 0.602521,1.54227 1.004948,1.20729 0.05691,-0.0474 0.01349,-0.14748 0.02023,-0.22122 0.556655,-0.39523 1.113314,-0.79048 1.669969,-1.18571 z"
       id="path12" />
    <path
       style="fill:#aad400;stroke-width:0.264583"
       d="m 89.615197,197.84459 c 0,-0.10472 0.104719,-0.31416 0,-0.31416 -0.104722,0 0.06542,0.39593 0,0.31416 -0.161076,-0.20134 -0.175734,-0.48933 -0.314164,-0.70687 -0.05068,-0.0796 -0.168878,-0.0903 -0.235625,-0.15708 -0.06675,-0.0667 -0.09033,-0.16887 -0.15708,-0.23562 -0.02556,-0.0256 -0.302104,-0.13899 -0.314164,-0.15708 -0.04592,-0.0689 -0.02,-0.17709 -0.07854,-0.23563 -0.164309,-0.16431 -0.384429,-0.0937 -0.549786,-0.31416 -0.201324,-0.0221 -0.02887,-0.16939 -0.07854,-0.23562 -0.07854,-0.0785 -0.157084,-0.15709 -0.235622,-0.23563 -0.02619,-0.0785 -0.02887,-0.16939 -0.07854,-0.23562 -0.03513,-0.0468 -0.130903,-0.0262 -0.157083,-0.0785 -0.03512,-0.0702 0.02484,-0.16111 0,-0.23562 -0.0083,-0.0249 -0.05236,0 -0.07854,0 -0.02619,-0.0524 -0.06246,-0.1008 -0.07854,-0.15709 -0.120068,-0.42023 -0.230055,-0.85003 -0.392705,-1.25665 -0.01376,-0.0344 -0.06683,-0.0434 -0.07854,-0.0785 -0.01656,-0.0497 0.01027,-0.10574 0,-0.15708 -0.0087,-0.0437 -0.368062,-1.05029 -0.392705,-1.09958 -0.05854,-0.11708 -0.194228,-0.18997 -0.235623,-0.31416 -0.04139,-0.12418 0.0284,-0.26492 0,-0.3927 -0.05508,-0.24786 -0.208409,-0.33828 -0.314163,-0.54979 -0.113967,-0.22793 -0.133414,-0.54692 -0.235622,-0.78541 -0.127257,-0.29693 -0.286242,-0.54456 -0.392705,-0.86395 -0.0944,-0.28318 -0.14123,-0.58077 -0.235622,-0.86395 -0.09559,-0.28677 -0.231754,-0.57551 -0.314164,-0.86395 -0.114909,-0.40218 -0.0315,-0.4557 -0.235625,-0.86395 -0.08443,-0.16886 -0.234325,-0.30017 -0.314163,-0.47124 -0.105029,-0.22507 -0.137785,-0.47859 -0.235622,-0.70687 -0.06014,-0.14032 -0.178927,-0.25097 -0.235622,-0.39271 -0.197372,-0.49342 0.06524,-0.28566 -0.235622,-0.70687 -0.06456,-0.0904 -0.168979,-0.14676 -0.235625,-0.23562 -0.183187,-0.24425 -0.296159,-0.53529 -0.471244,-0.78541 -0.351187,-0.50169 -0.707202,-1.02143 -1.099574,-1.49228 -0.343054,-0.41166 -0.778227,-0.74967 -1.178113,-1.09957 -0.08359,-0.0731 -0.166235,-0.14889 -0.235625,-0.23562 -0.03657,-0.0457 -0.03171,-0.12196 -0.07854,-0.15708 -0.06623,-0.0497 -0.161576,-0.0415 -0.235625,-0.0785 -0.322612,-0.16131 -0.490466,-0.54228 -0.628327,-0.86396 -0.296683,-0.69226 -0.5528,-1.42916 -0.86395,-2.1206 -0.110611,-0.2458 -0.2926,-0.4566 -0.392705,-0.70687 -0.05914,-0.14786 -0.02818,-0.32017 -0.07854,-0.47124 -0.136711,-0.41014 -0.637723,-0.70546 -0.942491,-0.9425 -0.276312,-0.21491 -0.561491,-0.77955 -1.021032,-0.54978 -0.08443,0.0422 -0.07854,0.18326 -0.157081,0.23562 -0.08982,0.0599 -0.220443,0.025 -0.314164,0.0785 -0.32282,0.18447 -0.32182,0.55745 -0.549785,0.78541 -0.0414,0.0414 -0.115689,0.0371 -0.157083,0.0785 -0.306525,0.30653 0.01818,0.0422 -0.07854,0.23563 -0.121793,0.24358 -0.296894,0.49797 -0.392705,0.7854 -0.08674,0.26023 0,0.87581 0,1.09958 0,0.51517 -0.04847,1.25441 0.235625,1.7279 0.325001,0.54167 0.869701,0.68853 1.335196,1.02103 0.196794,0.14057 1.10944,0.96222 1.178112,1.09957 0.04827,0.0966 0.03027,0.21762 0.07854,0.31417 0.05854,0.11708 0.194228,0.18998 0.235622,0.31416 0.04139,0.12418 -0.01624,0.26281 0,0.39271 0.01027,0.0822 0.05846,0.1553 0.07854,0.23562 0.107114,0.42846 -0.344692,0.65122 -0.628328,0.86395 -0.11848,0.0889 -0.175495,0.26216 -0.314163,0.31416 -0.290052,0.10877 -1.152036,-0.0261 -1.256655,0.0785 -0.01852,0.0185 0.0097,0.0542 0,0.0785 -0.309049,0.77262 -0.07908,-0.30444 -0.157083,1.09958 -0.05483,0.987 -0.197638,1.22876 0.471247,2.1206 0.03512,0.0468 0.02834,0.12696 0.07854,0.15708 0.09256,0.0555 0.213093,0.0406 0.314164,0.0785 0.716324,0.26863 1.005419,0.31559 1.884984,0.23563 0.618389,-0.0562 1.250873,-0.44555 1.884981,-0.39271 0.767284,0.0639 1.583529,1.28208 1.884982,1.88498 0.161443,0.32289 0.02347,0.14074 0.07854,0.47125 0.05128,0.3077 0.189171,0.66126 0.314163,0.94249 0.05236,0.10472 0.104722,0.20944 0.157081,0.31416 0.02619,0.10473 0.03602,0.21495 0.07854,0.31417 0.171196,0.39946 0.111485,0.0887 0.314164,0.3927 0.394417,0.59163 0.739166,1.24208 1.178115,1.80644 0.03594,0.0462 0.115687,0.0371 0.157081,0.0786 0.04139,0.0414 0.05236,0.10472 0.07854,0.15708 0.05236,0.10472 0.07429,0.23137 0.157081,0.31416 0.107944,0.10794 0.271706,0.14255 0.392705,0.23562 0.279178,0.21476 0.56538,0.43183 0.78541,0.70687 0.153631,0.19204 0.341768,0.54502 0.471244,0.70687 0.03657,0.0457 0.115689,0.0371 0.157083,0.0785 0.160565,0.16057 0.439106,0.89198 0.471245,0.94249 0.223726,0.35157 0.549997,0.53425 0.863951,0.78541 0.145447,0.11636 0.239985,0.28362 0.392706,0.39271 0.349162,0.2494 1.381844,0.61277 1.80644,0.47124 0.245152,-0.0817 -0.02619,-0.0524 0.07854,-0.15708 0.01852,-0.0185 0.06003,0.0185 0.07854,0 0.01852,-0.0185 0,-0.0524 0,-0.0785 0,-0.23562 0,-0.47125 0,-0.70687 z"
       id="path13" />
    <path
       style="fill:#88aa00;stroke-width:0.264583"
       d="m 72.964521,175.93167 c 0.484785,-0.96957 0.09354,-0.0114 0.235622,-0.86395 0.0061,-0.0365 0.06198,-0.0454 0.07854,-0.0785 0.08497,-0.16994 0.01119,-0.41516 -0.157083,-0.47124 -0.692073,-0.2307 -0.394925,7.9e-4 -0.863949,0.15708 -0.359273,0.11976 0.08138,-0.20591 -0.392705,0.0785 -0.0635,0.0381 -0.09085,0.12396 -0.157083,0.15708 -0.296641,0.14832 -1.157947,-0.17221 -1.492277,0.0785 -0.01296,0.01 -0.140756,0.28151 -0.157083,0.31416 -0.121386,0.24278 0.633116,0.77737 0.78541,1.02104 0.04388,0.0702 0.03262,0.16673 0.07854,0.23562 0.01453,0.0218 0.05236,0 0.07854,0 0.02619,0.0262 0.05949,0.0468 0.07854,0.0785 0.06024,0.1004 0.08903,0.21889 0.157083,0.31416 0.06456,0.0904 0.18595,0.13628 0.235623,0.23563 0.0597,0.1194 0.03167,0.26771 0.07854,0.3927 0.143582,0.38289 0.179348,0.0773 0.235622,0.47125 0.11833,0.82829 -0.18628,0.58453 0.314164,1.33519 0.05428,0.0814 0.878268,0.42482 0.942491,0.39271 0.03803,-0.019 0.225634,-0.19567 0.235624,-0.23563 0.05775,-0.23101 -0.0099,-0.65812 -0.07854,-0.86394 -0.01172,-0.0351 -0.06956,-0.0426 -0.07854,-0.0786 -0.04312,-0.17248 0.04312,-0.3773 0,-0.54978 -0.03189,-0.12754 -0.214826,-0.4666 -0.235622,-0.54979 -0.112009,-0.44803 0.02564,-1.14764 0.07854,-1.57082 z"
       id="path14" />
    <path
       style="fill:#445500;stroke-width:0.264583"
       d="m 68.958933,140.98096 c -0.08989,0.81232 -0.695915,1.08322 -1.256655,1.57082 -0.619741,0.5389 -1.53503,1.31773 -2.042064,2.04206 -0.15158,0.21655 -0.02183,0.22258 -0.07854,0.39271 -0.171804,0.51541 0.01595,-0.45656 -0.235622,0.54978 -0.0675,0.26999 0.07318,0.59562 0,0.86396 -0.06535,0.23961 -0.170273,0.46725 -0.235622,0.70686 -0.02527,0.0927 0.03073,0.22197 0,0.31417 -0.201393,0.60417 -0.604475,1.45445 -0.471247,2.1206 0.02765,0.13825 0.118351,0.25714 0.157083,0.39271 0.05086,0.17799 0.02,0.37416 0.07854,0.54978 0.06012,0.18036 0.239594,0.36336 0.314164,0.54979 0.09331,0.23327 0.105211,0.48951 0.235625,0.70687 0.05236,0.0785 0.104719,0.15708 0.15708,0.23562 0.05236,0.0262 0.121957,0.0317 0.157083,0.0785 0.291629,0.0234 0.01378,0.22781 0.07854,0.31416 0.06665,0.0889 0.177411,0.14103 0.235625,0.23563 0.153405,0.24928 0.234421,0.53919 0.392705,0.78541 0.217826,0.33884 0.294883,0.25882 0.549786,0.47124 0.08533,0.0711 0.146764,0.16898 0.235622,0.23562 0.02096,0.0157 0.06003,-0.0185 0.07854,0 0.04139,0.0414 0.03714,0.11569 0.07854,0.15709 0.308311,0.30831 1.1762,0.19616 1.570818,0.23562 0.316915,0.0317 0.634748,0.075 0.942491,0.15708 0.658071,0.17549 1.269148,0.44294 1.884981,0.70687 0.307613,0.13183 0.852027,0.50209 0.942491,0.86395 0.0127,0.0508 -0.01656,0.10741 0,0.15708 0.01852,0.0555 0.130903,0.1309 0.07854,0.15708 -0.327755,0.16388 -1.979461,-0.21071 -2.120603,-0.23562 -0.154694,-0.0273 -0.318855,0.0381 -0.471247,0 -0.03592,-0.009 -0.04294,-0.0684 -0.07854,-0.0785 -0.708888,-0.20254 -0.22365,-0.008 -0.785408,-0.0785 -0.52252,-0.0653 -0.135419,-0.0451 -0.471247,-0.15708 -0.854665,-0.28489 0.131615,0.0577 -0.549785,-0.0785 -0.237321,-0.0475 -0.768768,-0.48356 -0.942491,-0.62833 -0.24098,-0.20082 -0.499301,-0.3007 -0.706869,-0.54979 -0.248989,-0.29878 -0.447159,-0.65031 -0.706869,-0.94249 -0.160742,-0.18083 -0.432215,-0.39318 -0.549785,-0.62833 -0.02342,-0.0468 0.0127,-0.10628 0,-0.15708 -0.07631,-0.30523 -0.127519,-0.26797 -0.235625,-0.62833 -0.03836,-0.12786 -0.02896,-0.26875 -0.07854,-0.3927 -0.0567,-0.14174 -0.191759,-0.24649 -0.235625,-0.3927 -0.03761,-0.12538 0.03596,-0.26684 0,-0.39271 -0.02035,-0.0712 -0.136739,-0.0859 -0.15708,-0.15708 -0.03596,-0.12587 0.01445,-0.2626 0,-0.3927 -0.07573,-0.68159 -0.06411,0.0577 -0.235622,-0.62833 -0.04958,-0.1983 0.04011,-0.42775 0,-0.62833 -0.160264,-0.80131 -0.590365,-1.54069 -0.706869,-2.35623 -0.03332,-0.23325 0,-0.47124 0,-0.70687 0,-0.18326 -0.03594,-0.37008 0,-0.54978 0.127661,-0.63831 0.621403,-1.18205 0.942491,-1.7279 0.214034,-0.36386 0.423315,-0.73055 0.628327,-1.09958 0.413724,-0.7447 0.0085,0.0446 0.15708,-0.54978 0.009,-0.0359 0.06198,-0.0454 0.07854,-0.0785 0.115313,-0.23063 0.218403,-0.46747 0.314164,-0.70687 0.06149,-0.15374 0.08857,-0.32051 0.157083,-0.47125 0.188174,-0.41398 0.516382,-0.60621 0.785407,-0.94249 0.222449,-0.27806 0.441704,-0.56068 0.628328,-0.86395 0.07389,-0.12007 0.09982,-0.26387 0.157083,-0.3927 0.214217,-0.48199 0.467222,-0.70486 0.942491,-0.9425 0.1261,-0.0631 0.251719,-0.15708 0.392705,-0.15708 0.0066,0 0.265054,0.98168 0.314163,1.17812 0.04897,0.19586 0.04233,0 0.157081,0 0.08369,0 -0.07235,0.4341 -0.07854,0.47124 -0.08596,0.51576 -0.01656,1.02211 -0.392705,1.49228 -0.182851,0.22857 -0.523608,0.2618 -0.785411,0.39271"
       id="path15" />
    <rect
       style="fill:url(#linearGradient28);fill-opacity:1;stroke-width:0.264583"
       id="rect27"
       width="29.845552"
       height="81.368408"
       x="170.02243"
       y="35.859631"
       ry="20.464125"
       transform="rotate(22.135114)"
       rx="6.9102526" />
    <path
       id="path95"
       style="mix-blend-mode:normal;fill:url(#linearGradient95);stroke-width:0.264583;filter:url(#filter93)"
       transform="matrix(1.3952213,-0.1230683,0.13748467,1.2489212,-82.810292,20.314063)"
       d="m 133.87717,80.88098 a 20.347702,3.3130534 76.708745 0 0 -0.42808,0.138221 20.347702,3.3130534 76.708745 0 0 1.69909,20.438359 l 1.65347,6.25361 a 20.347702,3.3130534 76.708745 0 0 2.09893,6.2735 c 0.0499,-0.0346 0.11797,-0.0508 0.16634,-0.0643 0.0533,-0.0162 0.10626,-0.0216 0.15942,-0.0166 0.0177,0.002 0.0354,0.005 0.0532,0.009 0.0383,0.009 0.075,0.0235 0.11133,0.0391 0.0481,-0.004 0.0963,-0.005 0.14447,-0.004 0.0809,0.002 0.16146,0.0119 0.24129,0.0246 0.0564,0.0113 0.11351,0.0201 0.16981,0.032 0.0599,0.013 0.11993,0.0253 0.18,0.0376 0.0795,0.0159 0.15815,0.0358 0.23663,0.0568 0.0788,0.0211 0.15652,0.0463 0.23343,0.0743 0.0878,0.0336 0.17683,0.0624 0.26409,0.0976 0.13189,0.0511 0.24833,0.13556 0.36125,0.22427 0.0219,0.0198 0.0449,0.0386 0.0677,0.0576 0.0462,0.007 0.0885,0.0349 0.13246,0.0503 0.0103,0.004 0.0206,0.008 0.0311,0.0118 0.046,-0.0187 0.10034,-0.0106 0.14501,0.002 0.0213,0.009 0.0358,0.0183 0.0441,0.0296 0.009,5.4e-4 0.0171,0.001 0.0258,0.002 0.0457,0.003 0.10586,0.008 0.17118,0.0144 0.21114,-0.0319 0.41941,-0.0844 0.63014,-0.13652 0.37188,-0.0703 0.73409,-0.19075 1.10415,-0.27104 0.10467,-0.0205 0.17468,-0.0468 0.23964,-0.0827 0.0462,-0.0568 0.0915,-0.1146 0.13522,-0.17329 A 20.347702,3.3130534 76.708745 0 0 140.80121,96.756441 20.347702,3.3130534 76.708745 0 0 133.87709,80.8818 Z m 5.72901,33.2237 c -0.005,0 -0.0104,7e-5 -0.0156,1.2e-4 0.005,3.4e-4 0.0102,8e-4 0.0154,0.001 z m -0.0156,1.2e-4 c -0.0197,-10e-4 -0.0396,-0.002 -0.0593,-0.003 l 10e-4,9.3e-4 c -0.0122,-7e-5 -0.0244,-2e-5 -0.0367,1.1e-4 -0.0113,0.003 -0.0223,0.006 -0.0324,0.009 0.013,-0.001 0.0258,-0.002 0.0388,-0.003 0.0295,-0.003 0.059,-0.004 0.0886,-0.004 z m -0.22419,0.005 c -0.0148,0.002 -0.0294,0.003 -0.0443,0.006 -0.01,0.001 -0.0193,0.003 -0.0289,0.004 0.01,-6.1e-4 0.0197,-0.001 0.0295,-0.002 0.0206,10e-4 0.041,6.9e-4 0.0615,-1.5e-4 -0.005,-0.002 -0.0108,-0.004 -0.016,-0.007 -5.4e-4,-2.3e-4 -0.001,-4e-4 -0.002,-6.3e-4 z m 0.67585,0.0724 -4e-5,4.1e-4 c 0.002,4.3e-4 0.004,5.7e-4 0.006,9.8e-4 -0.002,-5.8e-4 -0.004,-8e-4 -0.006,-10e-4 z m 0.006,0.001 c 0.0392,0.0121 0.0787,0.0218 0.11903,0.0287 0.006,5e-4 0.0124,0.001 0.0186,0.003 -0.0291,-0.007 -0.0582,-0.0151 -0.0876,-0.021 -0.0168,-0.004 -0.0333,-0.007 -0.0501,-0.0103 z m 0.19521,0.0449 c 0.0198,0.006 0.0397,0.0111 0.0594,0.017 0.0261,0.008 0.0529,0.0136 0.0797,0.0182 -0.0184,-0.005 -0.037,-0.0105 -0.0555,-0.0154 -0.0278,-0.008 -0.0557,-0.013 -0.0836,-0.0198 z m -0.0893,0.13975 -9e-5,8.1e-4 3.7e-4,4e-5 c -1e-4,-3.4e-4 -1.7e-4,-5.1e-4 -2.8e-4,-8.5e-4 z m 2.8e-4,8.5e-4 c 4.9e-4,0.002 8.9e-4,0.003 0.002,0.005 0.001,3.4e-4 0.002,4.9e-4 0.003,6.9e-4 0.006,-7.8e-4 0.0128,-0.002 0.0191,-0.002 -0.008,-0.002 -0.0157,-0.003 -0.0237,-0.004 z m 0.78517,0.21847 -4.1e-4,3.7e-4 c -0.001,0.006 -0.003,0.0119 -0.004,0.0182 0.002,2.5e-4 0.004,6.6e-4 0.006,9.9e-4 0.009,0.002 0.0181,0.003 0.0271,0.003 -0.009,-0.008 -0.0185,-0.0157 -0.0281,-0.023 z" />
    <path
       id="path80"
       style="mix-blend-mode:normal;fill:url(#linearGradient93);stroke-width:0.264583;filter:url(#filter93)"
       transform="matrix(1.3952213,-0.1230683,0.13748467,1.2489212,-67.926424,-9.4536735)"
       d="m 133.87715,80.881014 a 20.347702,3.3130534 76.708745 0 0 -0.42807,0.13822 20.347702,3.3130534 76.708745 0 0 1.69908,20.438366 l 1.65347,6.2536 a 20.347702,3.3130534 76.708745 0 0 1.86673,5.66059 c 0.0242,0.009 0.0483,0.0185 0.0725,0.0274 0.0942,0.0366 0.18845,0.0737 0.28346,0.10779 0.0916,0.0308 0.18435,0.0586 0.27282,0.0993 0.0846,0.038 0.17069,0.0726 0.2586,0.10079 0.1052,0.0341 0.20938,0.0728 0.31776,0.0942 0.11321,0.0284 0.22666,0.0541 0.34017,0.0811 0.132,0.0318 0.26577,0.055 0.39771,0.0872 0.13511,0.0328 0.27079,0.0621 0.40734,0.0873 0.11919,0.0286 0.23626,0.0639 0.35282,0.10304 0.10587,0.0296 0.20906,0.0689 0.30829,0.11893 0.0893,0.038 0.17556,0.0831 0.25574,0.14105 0.0713,0.0531 0.13922,0.11277 0.19387,0.18627 0.11317,-0.0251 0.22614,-0.0534 0.3399,-0.0815 0.37188,-0.0703 0.73409,-0.19074 1.10415,-0.27103 0.10467,-0.0205 0.17468,-0.0468 0.23964,-0.0827 0.0462,-0.0568 0.0915,-0.11459 0.13522,-0.17328 a 20.347702,3.3130534 76.708745 0 0 -3.14709,-17.241525 20.347702,3.3130534 76.708745 0 0 -6.92413,-15.874641 z m 5.00781,33.062846 a 20.347702,3.3130534 76.708745 0 0 0.003,0.01 c 0.001,-0.003 0.002,-0.006 0.003,-0.008 -0.002,-4.5e-4 -0.005,-10e-4 -0.007,-0.002 z m 0.0475,0.12343 a 20.347702,3.3130534 76.708745 0 0 0.004,0.0116 c 0.0148,0.004 0.0296,0.008 0.0444,0.0118 0.004,-0.004 0.008,-0.008 0.0126,-0.0116 -0.0222,-0.003 -0.0434,-0.006 -0.0614,-0.0118 z m 1.98156,0.19526 c 0.0176,0.006 0.0352,0.0108 0.0529,0.016 0.0552,0.0155 0.11103,0.0269 0.167,0.038 -0.0533,-0.0155 -0.10696,-0.0298 -0.16097,-0.0428 -0.0197,-0.004 -0.0393,-0.007 -0.0589,-0.0112 z m 0.76596,0.25919 c 0.021,0.0109 0.0419,0.022 0.0626,0.0335 -0.0206,-0.0119 -0.0414,-0.023 -0.0626,-0.0335 z m 0.17012,0.10407 c -0.003,0.0118 -0.006,0.0236 -0.009,0.0355 0.0149,-0.002 0.0298,-0.005 0.0447,-0.007 -0.0115,-0.01 -0.0233,-0.0194 -0.0353,-0.0287 z m -2.65029,-0.0543 c 2.5e-4,1.3e-4 4.5e-4,3.5e-4 7e-4,4.8e-4 l 4e-5,-4.1e-4 c -2e-4,-4e-5 -5.6e-4,-2e-5 -7.4e-4,-7e-5 z m 10e-4,5.1e-4 c 1.5e-4,8e-5 1.9e-4,3.7e-4 3.3e-4,4.5e-4 l 4e-5,-4.1e-4 z" />
    <rect
       style="fill:#ffffff;fill-opacity:1;stroke-width:0.264583"
       id="rect93"
       width="29.845552"
       height="81.368408"
       x="130.61322"
       y="0.67694813"
       ry="12.063156"
       transform="rotate(22.135114)" />
    <rect
       style="fill:url(#linearGradient30);fill-opacity:1;stroke-width:0.264583"
       id="rect26"
       width="29.845552"
       height="81.368408"
       x="130.61322"
       y="0.67694813"
       ry="13.092063"
       transform="rotate(22.135114)"
       rx="7.9240394" />
    <path
       style="fill:#786721;stroke-width:0.264583"
       d="m 124.58851,139.70643 c 0.73231,-3.4781 -3.58654,-11.53849 -3.58654,-11.53849 l -10.46848,-7.42557 -11.910196,-2.73472 -11.080802,1.41272 -2.757449,5.5489 3.558268,-2.88309 8.031733,-1.48716 8.174676,1.60767 6.55573,2.2884 7.52817,5.21735 3.40366,3.78138 z"
       id="path17" />
    <path
       style="fill:#786721;stroke-width:0.264583"
       d="m 147.17518,188.13573 c 0.77001,-3.46994 -3.46111,-11.57673 -3.46111,-11.57673 l -10.38729,-7.53873 -11.87981,-2.86382 -11.09549,1.29239 -2.8175,5.51865 3.58934,-2.8443 8.0474,-1.39992 8.15675,1.6963 6.53052,2.3594 7.4711,5.29874 3.36242,3.8181 z"
       id="path18" />
    <ellipse
       style="fill:#a0892c;fill-opacity:1;stroke-width:0.264583"
       id="path16"
       cx="190.29335"
       cy="112.7055"
       rx="21.206049"
       ry="10.681566"
       transform="rotate(24.269662)" />
    <ellipse
       style="fill:#a0892c;fill-opacity:1;stroke-width:0.264583"
       id="ellipse16"
       cx="145.28062"
       cy="86.443268"
       rx="21.206049"
       ry="10.681566"
       transform="rotate(21.204705)" />
    <path
       style="fill:#504416;fill-opacity:1;stroke-width:0.264658"
       d="m 123.04537,122.86306 c -0.0398,2.29022 -0.46494,4.05354 1.98756,-1.86325 2.02732,-4.89101 -5.44594,-16.49745 -5.44594,-16.49745 0,0 -5.23799,-4.40527 -9.73906,-5.201549 -3.43087,-0.606949 -7.47325,-1.707971 -9.46082,-0.970437 -1.739728,0.645573 -0.795038,6.288436 0.0795,2.678406 0.80612,-3.32763 13.63472,2.09615 13.63472,2.09615 0,0 6.12171,5.47327 7.27449,8.73394 1.13328,3.2055 1.66956,11.02419 1.66956,11.02419 z"
       id="path76" />
    <path
       style="fill:#ffffff;fill-opacity:1;stroke:#000000;stroke-width:0.365;stroke-dasharray:none;stroke-opacity:1"
       d="m 153.61838,149.65549 c -4.16138,-18.00502 -0.16384,-11.68811 -3.82589,-12.58033 -3.53994,-0.86245 -12.0907,-4.69307 -10.36143,0.0237 1.59116,4.34012 2.64938,8.84815 1.6049,10.02145 -1.04443,1.17329 -6.75077,-2.54362 -7.19762,-4.3883 -1.25524,-5.18183 1.25362,-8.75113 0.90677,-12.24642 -0.35261,-3.55337 15.61245,-0.93594 17.9098,1.91806 6.33629,7.87157 1.72918,17.57464 2.613,22.06274 0.8838,4.4881 -1.64948,-4.81094 -1.64948,-4.81094 z"
       id="path115" />
    <path
       style="fill:#504416;fill-opacity:1;stroke-width:0.264583"
       d="m 159.04538,137.76078 c -0.0393,2.31695 -0.45931,4.10084 1.96352,-1.88498 2.00279,-4.94808 -5.38006,-16.68995 -5.38006,-16.68995 0,0 -5.17463,-4.45667 -9.62125,-5.26224 -3.38937,-0.61403 -7.38285,-1.7279 -9.34637,-0.98176 -1.71869,0.6531 -0.78542,6.36181 0.0785,2.70966 0.79636,-3.36646 13.46978,2.1206 13.46978,2.1206 0,0 6.04765,5.53714 7.18649,8.83586 1.11957,3.2429 1.64936,11.15281 1.64936,11.15281 z"
       id="path77" />
    <path
       style="fill:#504416;fill-opacity:1;stroke-width:0.264658"
       d="m 135.92608,90.975444 c -0.0398,2.29022 -0.46494,4.05354 1.98756,-1.86325 2.02732,-4.89101 -5.44594,-16.49745 -5.44594,-16.49745 0,0 -5.23799,-4.40527 -9.73906,-5.201549 -3.43087,-0.606949 -7.47325,-1.707971 -9.46082,-0.970437 -1.73973,0.645573 -0.79504,6.288436 0.0795,2.678406 0.80612,-3.32763 13.63472,2.09615 13.63472,2.09615 0,0 6.12171,5.47327 7.27449,8.73394 1.13328,3.2055 1.66956,11.02419 1.66956,11.02419 z"
       id="path78" />
    <path
       style="fill:url(#linearGradient118);fill-opacity:1;stroke:#000000;stroke-width:0.365;stroke-dasharray:none;stroke-opacity:1"
       d="m 153.63698,149.43413 c -4.16137,-18.00502 -0.16382,-11.68811 -3.82589,-12.58033 -3.53996,-0.86244 -12.09071,-4.69307 -10.36144,0.0237 1.59116,4.34012 2.64938,8.84815 1.60491,10.02146 -1.04444,1.17328 -6.75078,-2.54363 -7.19764,-4.38831 -1.25523,-5.18183 1.25364,-8.75113 0.90678,-12.24642 -0.3526,-3.55336 15.61245,-0.93594 17.9098,1.91806 6.3363,7.87157 1.72918,17.57464 2.61299,22.06274 0.88382,4.4881 -1.64948,-4.81093 -1.64948,-4.81093 z"
       id="path116" />
    <path
       style="fill:#504416;fill-opacity:1;stroke-width:0.264583"
       d="m 146.95008,168.7059 c -0.0393,2.31695 -0.45931,4.10084 1.96352,-1.88498 2.00279,-4.94808 -5.38006,-16.68995 -5.38006,-16.68995 0,0 -5.17463,-4.45667 -9.62125,-5.26224 -3.38937,-0.61403 -7.38285,-1.7279 -9.34637,-0.98176 -1.71869,0.6531 -0.78542,6.36181 0.0785,2.70966 0.79636,-3.36646 13.46978,2.1206 13.46978,2.1206 0,0 6.04765,5.53714 7.18649,8.83586 1.11957,3.2429 1.64936,11.15281 1.64936,11.15281 z"
       id="path79" />
    <path
       style="fill:url(#linearGradient117);fill-opacity:1;stroke:#000000;stroke-width:0.365;stroke-dasharray:none;stroke-opacity:1"
       d="m 153.63698,149.43413 c -4.16137,-18.00502 -0.16382,-11.68811 -3.82589,-12.58033 -3.53996,-0.86244 -12.09071,-4.69307 -10.36144,0.0237 1.59116,4.34012 2.64938,8.84815 1.60491,10.02146 -1.04444,1.17328 -6.75078,-2.54363 -7.19764,-4.38831 -1.25523,-5.18183 1.25364,-8.75113 0.90678,-12.24642 -0.3526,-3.55336 15.61245,-0.93594 17.9098,1.91806 6.3363,7.87157 1.72918,17.57464 2.61299,22.06274 0.88382,4.4881 -1.64948,-4.81093 -1.64948,-4.81093 z"
       id="path117" />
    <path
       style="fill:#ffffff;fill-opacity:1;stroke:#000000;stroke-width:0.365;stroke-dasharray:none;stroke-opacity:1"
       d="m 147.26133,170.89171 c 8.44159,-16.4389 7.41825,-9.03373 5.19677,-12.07873 -2.14738,-2.94343 -6.20665,-11.38804 -7.92992,-6.66905 -1.58565,4.34213 -3.6868,8.46855 -5.24183,8.6907 -1.55503,0.22215 -3.51498,-6.29984 -2.66577,-7.9973 2.38549,-4.76827 6.60548,-5.87549 8.59637,-8.76924 2.02396,-2.94181 12.52966,9.36121 12.44255,13.02393 -0.24024,10.10211 -10.02166,14.54044 -12.24314,18.53909 -2.22147,3.99865 1.84497,-4.7394 1.84497,-4.7394 z"
       id="path113" />
    <rect
       style="fill:#ffffff;fill-opacity:1;stroke-width:0.264583"
       id="rect107"
       width="3.998651"
       height="0.44429454"
       x="135.95413"
       y="3.5543563"
       rx="7.9240394"
       ry="0.44429454" />
    <path
       style="fill:url(#linearGradient4);fill-opacity:1;stroke:#000000;stroke-width:0.365;stroke-dasharray:none;stroke-opacity:1"
       d="m 147.41841,170.73463 c 8.44159,-16.4389 7.41825,-9.03373 5.19677,-12.07873 -2.14738,-2.94343 -6.20665,-11.38804 -7.92992,-6.66905 -1.58565,4.34213 -3.6868,8.46855 -5.24183,8.6907 -1.55503,0.22215 -3.51498,-6.29984 -2.66577,-7.9973 2.38549,-4.76827 6.60548,-5.87549 8.59637,-8.76924 2.02396,-2.94181 12.52966,9.36121 12.44255,13.02393 -0.24024,10.10211 -10.02166,14.54044 -12.24314,18.53909 -2.22147,3.99865 1.84497,-4.7394 1.84497,-4.7394 z"
       id="path111" />
    <path
       style="fill:url(#linearGradient113);fill-opacity:1;stroke:#000000;stroke-width:0.365;stroke-dasharray:none;stroke-opacity:1"
       d="m 147.41841,170.73463 c 8.44159,-16.4389 7.41825,-9.03373 5.19677,-12.07873 -2.14738,-2.94343 -6.20665,-11.38804 -7.92992,-6.66905 -1.58565,4.34213 -3.6868,8.46855 -5.24183,8.6907 -1.55503,0.22215 -3.51498,-6.29984 -2.66577,-7.9973 2.38549,-4.76827 6.60548,-5.87549 8.59637,-8.76924 2.02396,-2.94181 12.52966,9.36121 12.44255,13.02393 -0.24024,10.10211 -10.02166,14.54044 -12.24314,18.53909 -2.22147,3.99865 1.84497,-4.7394 1.84497,-4.7394 z"
       id="path114" />
    <path
       style="fill:#ffffff;fill-opacity:1;stroke:#000000;stroke-width:0.365;stroke-dasharray:none;stroke-opacity:1"
       d="m 159.11381,137.02855 c 7.01139,-17.0979 6.62221,-9.6325 4.1496,-12.4773 -2.39017,-2.74991 -7.15365,-10.81828 -8.46889,-5.96973 -1.21057,4.46128 -2.9524,8.75171 -4.48291,9.10542 -1.53047,0.35374 -4.03855,-5.97771 -3.33694,-7.74131 1.97087,-4.95405 6.08128,-6.41653 7.81858,-9.46926 1.76616,-3.10346 13.28113,8.26049 13.50617,11.91734 0.62069,10.08588 -8.74736,15.34084 -10.62034,19.51411 -1.87298,4.17326 1.43479,-4.87928 1.43479,-4.87928 z"
       id="path118" />
    <path
       style="fill:url(#linearGradient121);fill-opacity:1;stroke:#000000;stroke-width:0.365;stroke-dasharray:none;stroke-opacity:1"
       d="m 159.25693,136.85866 c 7.01141,-17.09789 6.62224,-9.63248 4.14961,-12.47729 -2.3902,-2.74993 -7.15366,-10.81829 -8.4689,-5.96973 -1.21057,4.46127 -2.95241,8.75169 -4.48292,9.10542 -1.53046,0.35373 -4.03854,-5.97772 -3.33694,-7.74132 1.97088,-4.95405 6.0813,-6.41652 7.81859,-9.46926 1.76616,-3.10344 13.28113,8.26049 13.50617,11.91734 0.6207,10.08588 -8.74736,15.34085 -10.62035,19.51411 -1.87296,4.17326 1.43479,-4.87928 1.43479,-4.87928 z"
       id="path119" />
    <path
       style="fill:url(#linearGradient120);fill-opacity:1;stroke:#000000;stroke-width:0.365;stroke-dasharray:none;stroke-opacity:1"
       d="m 159.25693,136.85866 c 7.01141,-17.09789 6.62224,-9.63248 4.14961,-12.47729 -2.3902,-2.74993 -7.15366,-10.81829 -8.4689,-5.96973 -1.21057,4.46127 -2.95241,8.75169 -4.48292,9.10542 -1.53046,0.35373 -4.03854,-5.97772 -3.33694,-7.74132 1.97088,-4.95405 6.0813,-6.41652 7.81859,-9.46926 1.76616,-3.10344 13.28113,8.26049 13.50617,11.91734 0.6207,10.08588 -8.74736,15.34085 -10.62035,19.51411 -1.87296,4.17326 1.43479,-4.87928 1.43479,-4.87928 z"
       id="path120" />
    <path
       style="fill:url(#linearGradient127);fill-opacity:1;stroke:#000000;stroke-width:0.365001;stroke-dasharray:none;stroke-opacity:1"
       d="m 169.33423,127.39338 c -4.24121,-22.14854 7.53993,-7.69701 7.22577,-19.63523 -0.38098,-14.477222 16.02235,-14.608612 16.02235,-14.608612 0,0 10.05324,0.785408 10.05324,-1.884982 0,-2.670392 7.53992,-7.225765 7.53992,-7.225765 l -0.15708,40.370039 c 0,0 -15.70818,-6.28328 -18.84982,-2.6704 -3.14164,3.61289 -9.11075,10.99573 -11.15281,10.05324 -2.04206,-0.94249 -5.62787,11.0236 -12.0953,12.40947 -6.59744,1.41373 -10.99573,-0.78541 -10.99573,-0.78541 z"
       id="path125" />
    <text
       xml:space="preserve"
       transform="matrix(1.6338974,3.4412449,-3.6732318,1.5022837,2021.2774,-1128.7154)"
       id="text148"
       style="font-style:normal;font-variant:normal;font-weight:normal;font-stretch:normal;font-size:12px;font-family:Gabriola;-inkscape-font-specification:'Gabriola, Normal';font-variant-ligatures:normal;font-variant-caps:normal;font-variant-numeric:normal;font-variant-east-asian:normal;text-align:start;writing-mode:lr-tb;direction:ltr;white-space:pre;shape-inside:url(#rect148);shape-padding:2.27763;fill:#ffffff;fill-opacity:1;stroke:#000000;stroke-width:1.37953;stroke-dasharray:none;stroke-opacity:0.501109"><tspan
         x="115.08008"
         y="596.17578"
         id="tspan2">F. H. R.</tspan></text>
  </g>
</svg>
