<?xml version="1.0" encoding="UTF-8" standalone="no"?>
<!-- Created with Inkscape (http://www.inkscape.org/) -->

<svg
   width="210mm"
   height="297mm"
   viewBox="0 0 210 297"
   version="1.1"
   id="svg1"
   xmlns:xlink="http://www.w3.org/1999/xlink"
   xmlns="http://www.w3.org/2000/svg"
   xmlns:svg="http://www.w3.org/2000/svg">
  <defs
     id="defs1">
    <linearGradient
       id="linearGradient62">
      <stop
         style="stop-color:#ffffff;stop-opacity:1;"
         offset="0"
         id="stop62" />
      <stop
         style="stop-color:#483737;stop-opacity:0;"
         offset="0.49616858"
         id="stop63" />
    </linearGradient>
    <linearGradient
       id="linearGradient29">
      <stop
         style="stop-color:#008000;stop-opacity:1;"
         offset="0"
         id="stop29" />
      <stop
         style="stop-color:#008000;stop-opacity:0;"
         offset="1"
         id="stop30" />
    </linearGradient>
    <linearGradient
       id="linearGradient27">
      <stop
         style="stop-color:#008000;stop-opacity:1;"
         offset="0"
         id="stop27" />
      <stop
         style="stop-color:#008000;stop-opacity:0;"
         offset="1"
         id="stop28" />
    </linearGradient>
    <linearGradient
       id="linearGradient25">
      <stop
         style="stop-color:#008000;stop-opacity:1;"
         offset="0"
         id="stop25" />
      <stop
         style="stop-color:#008000;stop-opacity:0;"
         offset="1"
         id="stop26" />
    </linearGradient>
    <linearGradient
       id="linearGradient23">
      <stop
         style="stop-color:#008000;stop-opacity:1;"
         offset="0"
         id="stop23" />
      <stop
         style="stop-color:#008000;stop-opacity:0;"
         offset="1"
         id="stop24" />
    </linearGradient>
    <linearGradient
       id="linearGradient7">
      <stop
         style="stop-color:#0000ff;stop-opacity:1;"
         offset="0.76819921"
         id="stop7" />
      <stop
         style="stop-color:#0000ff;stop-opacity:0;"
         offset="1"
         id="stop8" />
    </linearGradient>
    <linearGradient
       id="linearGradient6">
      <stop
         style="stop-color:#1f611f;stop-opacity:1;"
         offset="0.71455938"
         id="stop5" />
      <stop
         style="stop-color:#008000;stop-opacity:0;"
         offset="1"
         id="stop6" />
    </linearGradient>
    <linearGradient
       id="linearGradient3">
      <stop
         style="stop-color:#008000;stop-opacity:1;"
         offset="0.71455938"
         id="stop3" />
      <stop
         style="stop-color:#008000;stop-opacity:0;"
         offset="1"
         id="stop4" />
    </linearGradient>
    <linearGradient
       id="linearGradient1">
      <stop
         style="stop-color:#009800;stop-opacity:1;"
         offset="0.69348657"
         id="stop1" />
      <stop
         style="stop-color:#009800;stop-opacity:0;"
         offset="1"
         id="stop2" />
    </linearGradient>
    <linearGradient
       xlink:href="#linearGradient1"
       id="linearGradient2"
       x1="-9.6844387"
       y1="15.887386"
       x2="54.253658"
       y2="37.903038"
       gradientUnits="userSpaceOnUse" />
    <linearGradient
       xlink:href="#linearGradient3"
       id="linearGradient4"
       x1="-16.776102"
       y1="105.19141"
       x2="49.81879"
       y2="93.448936"
       gradientUnits="userSpaceOnUse" />
    <linearGradient
       xlink:href="#linearGradient6"
       id="linearGradient5"
       gradientUnits="userSpaceOnUse"
       x1="-16.776096"
       y1="93.448921"
       x2="49.818794"
       y2="105.1914"
       gradientTransform="matrix(1,0,0,0.7852349,-6.1474774,124.68498)" />
    <linearGradient
       xlink:href="#linearGradient7"
       id="linearGradient8"
       x1="-20.747732"
       y1="210.35901"
       x2="51.100906"
       y2="210.35901"
       gradientUnits="userSpaceOnUse" />
    <linearGradient
       xlink:href="#linearGradient23"
       id="linearGradient24"
       x1="123.88384"
       y1="41.042671"
       x2="181.62726"
       y2="41.042671"
       gradientUnits="userSpaceOnUse" />
    <linearGradient
       xlink:href="#linearGradient25"
       id="linearGradient26"
       x1="131.53951"
       y1="81.018219"
       x2="188.64278"
       y2="81.018219"
       gradientUnits="userSpaceOnUse" />
    <linearGradient
       xlink:href="#linearGradient27"
       id="linearGradient28"
       x1="110.00235"
       y1="31.696417"
       x2="146.65717"
       y2="31.696417"
       gradientUnits="userSpaceOnUse" />
    <linearGradient
       xlink:href="#linearGradient29"
       id="linearGradient30"
       x1="99.918327"
       y1="85.941002"
       x2="169.22249"
       y2="85.941002"
       gradientUnits="userSpaceOnUse" />
    <linearGradient
       xlink:href="#linearGradient23"
       id="linearGradient36"
       gradientUnits="userSpaceOnUse"
       x1="123.88384"
       y1="41.042671"
       x2="181.62726"
       y2="41.042671"
       gradientTransform="matrix(1,0,0,-1.1312322,26.895214,231.32003)" />
    <linearGradient
       xlink:href="#linearGradient25"
       id="linearGradient37"
       gradientUnits="userSpaceOnUse"
       x1="131.53951"
       y1="81.018219"
       x2="188.64278"
       y2="81.018219"
       gradientTransform="matrix(1,0,0,-1.1312322,26.895214,231.32003)" />
    <linearGradient
       xlink:href="#linearGradient27"
       id="linearGradient38"
       gradientUnits="userSpaceOnUse"
       x1="110.00235"
       y1="31.696417"
       x2="146.65717"
       y2="31.696417"
       gradientTransform="matrix(1,0,0,-1.1312322,26.895214,231.32003)" />
    <linearGradient
       xlink:href="#linearGradient29"
       id="linearGradient39"
       gradientUnits="userSpaceOnUse"
       x1="99.918327"
       y1="85.941002"
       x2="169.22249"
       y2="85.941002"
       gradientTransform="matrix(1,0,0,-1.1312322,26.895214,231.32003)" />
    <linearGradient
       xlink:href="#linearGradient23"
       id="linearGradient48"
       gradientUnits="userSpaceOnUse"
       gradientTransform="matrix(1,0,0,-1.1312322,-12.679172,180.21912)"
       x1="123.88384"
       y1="41.042671"
       x2="181.62726"
       y2="41.042671" />
    <linearGradient
       xlink:href="#linearGradient25"
       id="linearGradient49"
       gradientUnits="userSpaceOnUse"
       gradientTransform="matrix(1,0,0,-1.1312322,-12.679172,180.21912)"
       x1="131.53951"
       y1="81.018219"
       x2="188.64278"
       y2="81.018219" />
    <linearGradient
       xlink:href="#linearGradient27"
       id="linearGradient50"
       gradientUnits="userSpaceOnUse"
       gradientTransform="matrix(1,0,0,-1.1312322,-12.679172,180.21912)"
       x1="110.00235"
       y1="31.696417"
       x2="146.65717"
       y2="31.696417" />
    <linearGradient
       xlink:href="#linearGradient29"
       id="linearGradient51"
       gradientUnits="userSpaceOnUse"
       gradientTransform="matrix(1,0,0,-1.1312322,-12.679172,180.21912)"
       x1="99.918327"
       y1="85.941002"
       x2="169.22249"
       y2="85.941002" />
    <linearGradient
       xlink:href="#linearGradient23"
       id="linearGradient58"
       gradientUnits="userSpaceOnUse"
       gradientTransform="matrix(1,0,0,1.3261316,9.2212162,96.019647)"
       x1="123.88384"
       y1="41.042671"
       x2="181.62726"
       y2="41.042671" />
    <linearGradient
       xlink:href="#linearGradient25"
       id="linearGradient59"
       gradientUnits="userSpaceOnUse"
       gradientTransform="matrix(1,0,0,1.3261316,9.2212162,96.019647)"
       x1="131.53951"
       y1="81.018219"
       x2="188.64278"
       y2="81.018219" />
    <linearGradient
       xlink:href="#linearGradient27"
       id="linearGradient60"
       gradientUnits="userSpaceOnUse"
       gradientTransform="matrix(1,0,0,1.3261316,9.2212162,96.019647)"
       x1="110.00235"
       y1="31.696417"
       x2="146.65717"
       y2="31.696417" />
    <linearGradient
       xlink:href="#linearGradient29"
       id="linearGradient61"
       gradientUnits="userSpaceOnUse"
       gradientTransform="matrix(1,0,0,1.3261316,9.2212162,96.019647)"
       x1="99.918327"
       y1="85.941002"
       x2="169.22249"
       y2="85.941002" />
    <linearGradient
       xlink:href="#linearGradient62"
       id="linearGradient63"
       x1="228.35468"
       y1="114.86813"
       x2="-24.719423"
       y2="173.29489"
       gradientUnits="userSpaceOnUse" />
  </defs>
  <g
     id="layer1">
    <rect
       style="fill:#4dafaf;fill-opacity:1;stroke-width:0.264583"
       id="rect8"
       width="259.73093"
       height="384.21735"
       x="-28.81629"
       y="-48.411381" />
    <rect
       style="fill:url(#linearGradient63);fill-opacity:1;stroke-width:0.264583"
       id="rect39"
       width="259.73093"
       height="384.21735"
       x="-28.047865"
       y="-48.027164" />
    <path
       style="opacity:0.361746;fill:#483737;fill-opacity:1;stroke-width:0.342185"
       id="path51"
       d="m -1.7817886,197.98482 c 0.6535,0.0252 1.30631499,0.07 1.96050099,0.0758 3.57457291,0.0315 4.05614351,-0.0722 7.84587351,-0.18071 5.4723181,-0.15665 10.9482051,-0.25004 16.4212861,-0.38992 8.915291,-0.4381 17.829876,-0.15197 26.741736,0.12663 8.093236,0.30606 16.197601,0.28033 24.296703,0.21192 4.458364,-0.008 8.9161,-0.0826 13.374322,-0.10034 3.910915,0.0723 7.792264,6.2e-4 11.673187,-0.41414 4.03813,-0.42473 7.93957,-1.45266 11.6001,-2.89876 5.11459,-2.18453 13.10043,-5.93329 -10.29372,4.9183 -0.50076,0.23229 0.96656,-0.51216 1.45054,-0.76732 2.1759,-1.14716 1.76905,-0.93018 4.24895,-2.21555 4.65331,-2.36028 9.30572,-4.74608 13.65481,-7.47809 2.71371,-1.70472 3.60988,-2.39771 6.13672,-4.20007 3.71643,-2.85786 6.95169,-6.07661 9.98563,-9.4223 0,0 14.3907,-5.09491 14.3907,-5.09491 v 0 c -3.11388,3.38631 -6.35829,6.69363 -9.99214,9.71869 -2.00084,1.42915 -4.1371,2.98807 -6.2171,4.335 -4.15319,2.68945 -8.61952,5.03679 -13.0701,7.37374 -7.45189,4.08628 -14.98418,8.20142 -23.179422,11.20756 -3.783827,1.20534 -7.674996,2.16787 -11.73417,2.48512 -3.959854,0.32998 -7.92914,0.43206 -11.909083,0.36587 -4.326544,-0.0148 -8.652515,-0.0897 -12.978386,-0.15028 -7.964411,-0.18448 -15.928306,-0.39869 -23.895373,-0.49085 -8.739785,-0.21558 -17.483593,-0.53842 -26.228866,-0.33398 -9.2743834,0.22726 -18.5574906,0.57626 -27.773331,1.5025 z" />
    <path
       style="opacity:0.361746;fill:#483737;fill-opacity:1;stroke-width:0.264583"
       id="path41"
       d="m 9.1672239,96.517105 c 0.458018,-0.0215 0.9155561,-0.0597 1.3740551,-0.0647 2.505308,-0.0269 2.842826,0.0616 5.498931,0.15415 3.835379,0.13363 7.67326,0.2133 11.509174,0.33262 6.248453,0.37371 12.496411,0.12963 18.742459,-0.10802 5.6723,-0.26108 11.3524,-0.23913 17.028811,-0.18078 3.12473,0.007 6.24902,0.0705 9.37365,0.0856 2.74104,-0.0617 5.46136,-5.3e-4 8.18138,0.35327 2.830193,0.36231 5.564602,1.23917 8.130152,2.47274 3.58466,1.863465 9.18169,5.061275 -7.214552,-4.19547 -0.35097,-0.19815 0.67743,0.43689 1.01664,0.65455 1.525013,0.97856 1.239863,0.79347 2.977953,1.88993 3.261369,2.0134 6.522099,4.048555 9.570239,6.379045 1.90196,1.45418 2.53006,2.04532 4.30104,3.58279 2.604724,2.43785 4.872224,5.18354 6.998614,8.03752 0,0 10.086,4.34612 10.086,4.34612 v 0 c -2.18242,-2.88863 -4.45633,-5.70988 -7.00318,-8.29035 -1.40233,-1.21911 -2.89957,-2.54892 -4.35738,-3.69789 -2.91084,-2.29419 -6.041144,-4.29654 -9.160424,-6.29003 -5.2228,-3.485725 -10.501959,-6.996065 -16.245742,-9.560405 -2.65197,-1.02819 -5.37917,-1.84926 -8.22412,-2.11988 -2.77534,-0.28149 -5.55729,-0.36856 -8.34671,-0.3121 -3.032341,0.0126 -6.064281,0.0765 -9.096151,0.12819 -5.58201,0.15737 -11.163659,0.3401 -16.747531,0.41871 -6.125446,0.1839 -12.253712,0.45929 -18.383004,0.2849 -6.50013,-0.19386 -13.0063741,-0.49157 -19.46547206,-1.28168 z" />
    <path
       style="opacity:0.361746;fill:url(#linearGradient61);fill-opacity:1;stroke-width:0.304688"
       id="path52"
       d="m 118.86862,203.40836 c 1.85172,-0.62357 3.74063,-0.76196 5.64445,-0.77217 5.62573,0.20049 11.14031,1.95597 16.61919,3.52168 4.40715,1.39123 8.79588,2.91049 13.05051,4.98488 2.78784,1.56855 5.49904,3.36024 8.2547,5.02521 2.07255,1.14277 4.07216,2.50382 6.05878,3.88496 3.54448,2.44906 9.48922,6.99157 -6.37962,-4.97645 -0.34945,-0.26355 0.68986,0.54812 1.02635,0.83981 0.81565,0.70701 1.0331,0.95616 1.78413,1.72003 0.90155,0.89935 1.76739,1.85844 2.6574,2.77716 0,0 10.8592,5.77214 10.8592,5.77214 v 0 c -0.91378,-0.97809 -1.85652,-1.90114 -2.77912,-2.86456 -0.60598,-0.6227 -1.18595,-1.29088 -1.80849,-1.88418 -0.33917,-0.32323 -0.69009,-0.62587 -1.05079,-0.90512 -4.40063,-3.40693 -8.75534,-6.92879 -13.28533,-10.0269 -2.00052,-1.3522 -4.00926,-2.68126 -6.08767,-3.81381 -2.70555,-1.61201 -5.36585,-3.37546 -8.14841,-4.74609 -4.15645,-1.8399 -8.42881,-3.14683 -12.70535,-4.39562 -5.67151,-1.56305 -11.35998,-3.32024 -17.16376,-3.69813 -0.64191,-0.0193 -1.28369,-0.0675 -1.92573,-0.0583 -1.46105,0.0211 -2.89992,0.37339 -4.34952,0.5632 z" />
    <ellipse
       style="fill:url(#linearGradient8);fill-opacity:1;stroke-width:0.43318"
       id="path6"
       cx="15.176588"
       cy="210.35901"
       rx="35.92432"
       ry="109.69405" />
    <path
       style="opacity:0.361746;fill:url(#linearGradient60);fill-opacity:1;stroke-width:0.304688"
       id="path53"
       d="m 129.44043,181.50813 c 2.55319,-5.58937 4.39924,-11.66626 6.26013,-17.70005 1.79651,-5.76411 3.63826,-11.50314 5.47159,-17.24674 0.72529,-2.27224 1.41397,-4.56564 2.17596,-6.81666 1.39659,-4.12578 2.93236,-8.16621 4.39715,-12.25017 2.46559,-6.66178 5.05922,-13.26092 7.05292,-20.20477 0.50675,-1.77948 0.89138,-3.60893 1.08021,-5.49408 0,0 -10.4569,-7.197273 -10.4569,-7.197273 v 0 c -0.0194,1.840553 -0.21215,3.661388 -0.56189,5.445273 -1.46774,7.18669 -3.59318,14.11419 -5.79665,20.94991 -3.9835,12.1143 -8.29739,24.02668 -12.37559,36.0853 -2.07251,5.79897 -4.19768,11.7269 -7.4638,16.54343 z" />
    <path
       style="opacity:0.361746;fill:url(#linearGradient51);fill-opacity:1;stroke-width:0.281409"
       id="path42"
       d="m 96.968236,88.613155 c 1.85172,0.53193 3.740624,0.64998 5.644444,0.65869 5.62573,-0.17103 11.14031,-1.66851 16.61919,-3.00411 4.40715,-1.18676 8.79588,-2.48274 13.05051,-4.25226 2.78784,-1.33802 5.49904,-2.86639 8.2547,-4.28666 2.07255,-0.974818 4.07216,-2.135838 6.05878,-3.313988 3.54448,-2.08913 9.48922,-5.96403 -6.37962,4.245068 -0.34945,0.22481 0.68986,-0.46757 1.02635,-0.71639 0.81565,-0.603098 1.0331,-0.815628 1.78413,-1.467238 0.90155,-0.76717 1.76739,-1.58531 2.6574,-2.369 0,0 10.8592,-4.92382 10.8592,-4.92382 v 0 c -0.91378,0.83434 -1.85652,1.62173 -2.77912,2.44356 -0.60598,0.53118 -1.18595,1.10116 -1.80849,1.60726 -0.33917,0.27573 -0.69009,0.53389 -1.05079,0.7721 -4.40063,2.90622 -8.75534,5.910478 -13.28533,8.553258 -2.00052,1.15347 -4.00926,2.2872 -6.08767,3.2533 -2.70555,1.3751 -5.36585,2.87938 -8.14841,4.04857 -4.15645,1.56949 -8.42881,2.68434 -12.70535,3.7496 -5.67151,1.33333 -11.359974,2.83227 -17.163754,3.15462 -0.64191,0.0165 -1.28369,0.0576 -1.92573,0.0497 -1.46105,-0.018 -2.89992,-0.31851 -4.34952,-0.48043 z" />
    <ellipse
       style="fill:url(#linearGradient2);fill-opacity:1;stroke-width:0.264583"
       id="path1"
       cx="22.284607"
       cy="26.89521"
       rx="33.811123"
       ry="41.111256" />
    <path
       style="fill:#483737;fill-opacity:1;stroke-width:0.264583"
       id="path13"
       d="m 129.5337,54.945631 c -1.51045,2.242839 -3.58309,4.013949 -5.69891,5.661994 -1.89264,1.483283 -3.92822,2.383922 -6.15477,3.214859 -1.8384,0.770583 -3.75136,1.325793 -5.69578,1.7522 -2.69427,0.564198 -5.41679,0.982425 -8.11746,1.5146 -3.887177,0.731141 -7.793361,1.371772 -11.727995,1.782331 -2.88163,0.236447 -5.790864,0.35555 -8.68148,0.203547 -1.667565,-0.08769 -3.130438,-0.271939 -4.791604,-0.453541 -2.624867,-0.219234 -5.201623,-0.783294 -7.802178,-1.168051 -3.154424,-0.466704 -6.329101,-0.833612 -9.488956,-1.264711 -5.379273,-0.646959 -10.770589,-1.205918 -16.19314,-1.181404 -1.869845,0.179644 -3.883149,-0.0545 -5.726388,0.359992 -0.622443,0.323485 -1.237506,0.650322 -1.732867,1.150832 -0.997323,0.986874 -1.768867,2.205534 -2.643397,3.30755 -0.546002,0.711351 -1.060772,1.436116 -1.646187,2.115357 0,0 10.014585,5.990932 10.014585,5.990932 v 0 c 0.540539,-0.712656 1.023017,-1.461519 1.581814,-2.160641 0.85502,-1.06477 1.696429,-2.158817 2.797715,-2.983264 0.396981,-0.282324 0.816591,-0.577157 1.306536,-0.659262 1.708798,-0.238194 3.425362,-0.433655 5.148035,-0.535308 5.226973,-0.172366 10.446456,0.283609 15.625686,0.973505 1.939417,0.266412 4.562729,0.61853 6.49605,0.917221 3.690643,0.570187 7.360144,1.291201 11.076683,1.684985 4.562287,0.473258 9.157226,0.694291 13.726968,0.14115 3.98723,-0.453411 7.95214,-1.054097 11.90681,-1.735957 2.79388,-0.395082 5.57479,-0.88291 8.34142,-1.437625 1.9987,-0.470733 3.97974,-0.994142 5.84907,-1.865508 2.20976,-0.939321 4.3556,-2.02516 6.18771,-3.606519 2.15563,-1.815635 4.21434,-3.738229 6.2356,-5.701901 z" />
    <path
       style="opacity:0.361746;fill:#008000;fill-opacity:1;stroke-width:0.304688"
       id="path54"
       d="m 150.53373,170.69063 c 0.91458,-3.57277 2.4318,-6.82438 3.69482,-10.19535 2.21126,-6.39856 4.22564,-12.91209 6.27085,-19.40636 1.42475,-4.23827 2.73972,-8.53678 3.91489,-12.90692 0.53136,-2.18964 0.85195,-4.45554 1.02406,-6.74103 0,0 -10.44657,-7.16229 -10.44657,-7.16229 v 0 c -0.0294,2.21569 -0.19381,4.42674 -0.64841,6.56808 -0.95864,4.46215 -2.12018,8.85262 -3.34783,13.19509 -1.93396,6.49051 -3.97413,12.95333 -6.5194,19.06954 -1.37129,3.41083 -2.82163,6.76549 -4.35773,10.05035 z" />
    <ellipse
       style="fill:#ffffff;fill-opacity:1;stroke-width:0.382392"
       id="ellipse4"
       cx="16.521347"
       cy="99.320183"
       rx="33.811123"
       ry="85.872574" />
    <path
       style="opacity:0.361746;fill:#008000;fill-opacity:1;stroke-width:0.304688"
       id="path55"
       d="m 123.4586,192.74222 c -5.73666,-5.38642 -11.72579,-10.52461 -18.23102,-14.10492 -2.8736,-1.51548 -5.915868,-2.53436 -8.982658,-3.07704 -1.89276,-0.33493 -2.67809,-0.29926 -4.57682,-0.37055 -3.47664,0.1345 -6.93259,0.70007 -10.310729,1.79528 -1.52949,0.43483 -2.99406,1.17303 -4.50027,1.71456 -0.15947,0.0443 -0.31894,0.0886 -0.47842,0.13284 0,0 9.718429,8.86208 9.718429,8.86208 v 0 c 0.16225,-0.0689 0.3245,-0.13793 0.48675,-0.20689 1.40956,-0.66146 2.82389,-1.29942 4.26529,-1.83159 3.18418,-1.13779 6.44303,-1.84307 9.752628,-1.78674 0.73821,0.0503 1.47825,0.0655 2.21463,0.15092 3.83688,0.445 7.60927,1.74609 11.13673,3.78605 4.56818,2.8625 3.01666,1.98132 -5.97762,-4.9212 -0.51037,-0.39167 1.01024,0.80701 1.51004,1.22194 1.0933,0.90765 1.39615,1.15417 2.35294,2.13909 0.2206,0.22708 0.43029,0.47222 0.64543,0.70832 z" />
    <path
       style="opacity:0.361746;fill:url(#linearGradient50);fill-opacity:1;stroke-width:0.281409"
       id="path43"
       d="m 107.54004,107.29474 c 2.55319,4.76791 4.39924,9.95169 6.26013,15.0987 1.79651,4.91697 3.63826,9.81255 5.47159,14.71202 0.72529,1.93829 1.41397,3.89464 2.17596,5.81483 1.39659,3.51942 2.93236,6.96603 4.39715,10.44978 2.46559,5.68271 5.05922,11.31198 7.05292,17.23531 0.50675,1.51795 0.89138,3.07853 1.08021,4.68662 0,0 -10.4569,6.1395 -10.4569,6.1395 v 0 c -0.0194,-1.57005 -0.21215,-3.12328 -0.56189,-4.64499 -1.46774,-6.13047 -3.59318,-12.03985 -5.79665,-17.87093 -3.9835,-10.33388 -8.29739,-20.49552 -12.37559,-30.78191 -2.07251,-4.9467 -4.19768,-10.00341 -7.463794,-14.11207 z" />
    <path
       style="opacity:0.361746;fill:url(#linearGradient59);fill-opacity:1;stroke-width:0.304688"
       id="path56"
       d="m 150.25909,187.43611 c 3.25438,0.31195 6.47342,1.08276 9.68565,1.8158 3.35778,0.6572 6.64542,1.74387 9.74518,3.59973 0.94051,0.56311 3.6514,2.54099 2.77714,1.81402 -2.03212,-1.68974 -4.17236,-3.13924 -6.25853,-4.70886 4.85637,3.92228 8.99571,9.09679 12.82578,14.61702 2.69612,3.95946 4.87119,8.44683 6.68918,13.18905 0.57244,1.60326 1.11728,3.22299 1.65025,4.8498 0,0 10.49025,6.34545 10.49025,6.34545 v 0 c -0.62094,-1.68553 -1.27178,-3.35053 -1.88443,-5.04154 -1.82733,-4.92896 -4.05474,-9.58922 -6.81073,-13.7074 -3.91399,-5.68155 -8.1399,-11.02521 -13.04674,-15.19464 -5.60426,-4.28763 -11.45245,-9.67402 -17.77761,-12.45749 -2.33989,-1.02969 -4.79389,-1.51697 -7.20928,-2.10587 -3.46001,-0.81412 -6.92656,-1.59309 -10.37447,-2.48838 z" />
    <ellipse
       style="fill:url(#linearGradient4);stroke-width:0.382392"
       id="ellipse1"
       cx="16.521347"
       cy="99.320183"
       rx="33.811123"
       ry="85.872574" />
    <path
       style="opacity:0.361746;fill:#008000;fill-opacity:1;stroke-width:0.304688"
       id="path57"
       d="m 128.51204,191.07954 c -1.66513,-3.39503 -3.25668,-6.8447 -5.06343,-10.11332 -1.78201,-3.40507 -4.20469,-5.99608 -6.61362,-8.57187 -4.08904,-4.17903 -8.70856,-7.2009 -13.26734,-10.45992 -0.40718,-0.2911 -0.8846,-0.36028 -1.33163,-0.518 -1.14133,-0.40269 -1.60668,-0.49895 -2.758798,-0.80049 -2.46213,-0.70686 -4.97265,-0.94489 -7.48121,-1.12962 -1.91551,-0.0686 -3.83267,-0.0967 -5.74896,-0.096 -1.60425,-0.0911 -3.18923,0.0918 -4.783636,0.28058 -0.85563,0.0857 -0.43798,0.0483 -1.252881,0.11336 0,0 9.566757,9.06244 9.566757,9.06244 v 0 c 0.79457,-0.10691 0.38748,-0.0515 1.22124,-0.16645 1.55641,-0.19892 3.11554,-0.25031 4.6791,-0.20608 1.87896,-0.006 3.75857,-0.0463 5.636118,0.0876 2.44434,0.15433 4.87976,0.50668 7.27007,1.22475 1.0576,0.32648 1.63834,0.46515 2.67192,0.95272 0.42563,0.20078 1.6376,0.999 1.25313,0.68445 -15.724508,-12.86446 -9.56274,-7.59355 -6.21459,-4.6302 2.41042,2.48293 4.87213,4.95516 6.71461,8.2276 1.82246,2.99097 3.51707,6.20069 4.687,9.73239 z" />
    <path
       style="opacity:0.361746;fill:#008000;fill-opacity:1;stroke-width:0.281409"
       id="path44"
       d="m 128.63334,116.52241 c 0.91458,3.04769 2.4318,5.82141 3.69482,8.69696 2.21126,5.45817 4.22564,11.01442 6.27085,16.55424 1.42475,3.61538 2.73972,7.28214 3.91489,11.01001 0.53136,1.86783 0.85195,3.80072 1.02406,5.75031 0,0 -10.44657,6.10966 -10.44657,6.10966 v 0 c -0.0294,-1.89005 -0.19381,-3.77615 -0.64841,-5.60278 -0.95864,-3.80635 -2.12018,-7.55156 -3.34783,-11.25583 -1.93396,-5.53661 -3.97413,-11.0496 -6.5194,-16.26692 -1.37129,-2.90955 -2.82163,-5.77118 -4.35773,-8.57327 z" />
    <path
       style="opacity:0.361746;fill:url(#linearGradient58);fill-opacity:1;stroke-width:0.304688"
       id="path58"
       d="m 143.22259,183.38766 c 1.27145,-1.5979 2.62361,-3.08945 4.05208,-4.43377 1.42163,-1.26468 2.76531,-2.67627 4.2342,-3.84527 1.42419,-1.35117 2.75914,-2.83649 4.01287,-4.45617 2.19922,-2.71255 4.49992,-5.27414 6.8408,-7.76759 2.12985,-2.10567 4.35151,-4.03424 6.56467,-5.97926 2.00861,-1.73764 4.01178,-3.48601 5.97914,-5.30595 1.08578,-1.12563 2.3859,-1.82736 3.45401,-2.98392 0.33143,-0.35887 1.20937,-1.48167 1.50787,-1.85818 1.70527,-2.17901 3.21097,-4.6061 4.77915,-6.95325 1.11912,-1.7982 2.21891,-3.6281 3.19585,-5.56838 0.8309,-1.73631 1.50614,-3.60852 2.06587,-5.52457 0.35838,-1.25112 0.67106,-2.52152 0.93938,-3.81114 0,0 -10.32892,-7.39262 -10.32892,-7.39262 v 0 c -0.19303,1.25033 -0.43418,2.48637 -0.80701,3.66721 -0.53659,1.80569 -1.18001,3.57663 -1.95267,5.22547 -0.94623,1.88455 -1.93873,3.73379 -3.00399,5.50327 -1.48182,2.36929 -2.98443,4.73355 -4.72695,6.77813 -1.50435,1.75299 -3.15201,3.23708 -4.80367,4.73435 -1.96833,1.81444 -4.03411,3.41919 -5.9808,5.27442 -2.21782,2.00363 -4.42016,4.03798 -6.58776,6.13642 -2.30154,2.58403 -4.50915,5.31522 -6.87448,7.79898 -1.33793,1.41113 -2.75014,2.68818 -4.07472,4.12283 -1.43689,1.28613 -2.87986,2.56827 -4.25626,3.96558 -1.43569,1.50582 -2.8506,3.04987 -4.34619,4.45136 z" />
    <ellipse
       style="fill:url(#linearGradient5);stroke-width:0.338851"
       id="ellipse5"
       cx="10.37387"
       cy="202.67465"
       rx="33.811123"
       ry="67.430145" />
    <path
       style="opacity:0.361746;fill:#008000;fill-opacity:1;stroke-width:0.281409"
       id="path45"
       d="m 101.55821,97.711715 c -5.736654,4.594775 -11.725784,8.977815 -18.231023,12.031935 -2.873593,1.29275 -5.915863,2.16189 -8.982653,2.62481 -1.89276,0.28571 -2.67809,0.25528 -4.57682,0.31609 -3.47664,-0.11473 -6.93259,-0.59718 -10.310729,-1.53143 -1.52949,-0.37092 -2.99406,-1.00063 -4.50027,-1.46257 -0.15947,-0.0378 -0.31894,-0.0756 -0.47842,-0.11332 0,0 9.718429,-7.55963 9.718429,-7.55963 v 0 c 0.16225,0.0588 0.3245,0.11766 0.48675,0.17648 1.40956,0.56425 2.82389,1.10845 4.26529,1.56241 3.18418,0.97057 6.44303,1.57219 9.75263,1.52414 0.73821,-0.0429 1.47825,-0.0559 2.21463,-0.12874 3.836873,-0.3796 7.609272,-1.48947 11.136732,-3.22962 4.56818,-2.441795 3.01666,-1.69013 -5.977629,4.19794 -0.51037,0.33411 1.010249,-0.6884 1.510049,-1.04235 1.0933,-0.77426 1.39615,-0.98455 2.35294,-1.82471 0.2206,-0.19371 0.43029,-0.40282 0.64543,-0.60422 z" />
    <path
       style="fill:#483737;fill-opacity:1;stroke-width:0.301908"
       id="path14"
       d="m 9.7177867,138.39679 c 0.5963593,-0.0215 1.1920933,-0.0597 1.7890793,-0.0647 3.262018,-0.0269 3.701481,0.0616 7.159844,0.15415 4.993828,0.13363 9.990913,0.2133 14.985438,0.33262 8.135754,0.37371 16.270864,0.12963 24.403486,-0.10802 7.385578,-0.26108 14.781312,-0.23913 22.172243,-0.18078 4.068532,0.007 8.136492,0.0705 12.204894,0.0856 3.568957,-0.0617 7.110927,-5.3e-4 10.652519,0.35327 3.68502,0.36231 7.24534,1.23917 10.5858,2.47274 4.66738,1.86347 11.95495,5.06128 -9.39365,-4.19547 -0.45698,-0.19815 0.88204,0.43689 1.3237,0.65455 1.98563,0.97856 1.61436,0.79347 3.87742,1.88993 4.24644,2.0134 8.49206,4.04856 12.46087,6.37905 2.47643,1.45418 3.29424,2.04532 5.60014,3.58279 3.39145,2.43785 6.34383,5.18354 9.11249,8.03752 0,0 13.1324,4.34612 13.1324,4.34612 v 0 c -2.8416,-2.88863 -5.80233,-5.70988 -9.11844,-8.29035 -1.8259,-1.21911 -3.77536,-2.54892 -5.6735,-3.69789 -3.79003,-2.29419 -7.86582,-4.29654 -11.92726,-6.29003 -6.8003,-3.48573 -13.674,-6.99607 -21.15265,-9.56041 -3.452976,-1.02819 -7.003909,-1.84926 -10.708165,-2.11988 -3.613607,-0.28149 -7.235825,-0.36856 -10.86777,-0.3121 -3.948238,0.0126 -7.895954,0.0765 -11.843578,0.12819 -7.268017,0.15737 -14.535563,0.3401 -21.806004,0.41871 -7.975594,0.1839 -15.95486,0.45929 -23.935461,0.2849 -8.463448,-0.19386 -16.9348569,-0.49157 -25.3448798,-1.28168 z" />
    <path
       style="opacity:0.361746;fill:url(#linearGradient49);fill-opacity:1;stroke-width:0.281409"
       id="path46"
       d="m 128.3587,102.23799 c 3.25438,-0.26611 6.47342,-0.92363 9.68565,-1.54894 3.35778,-0.56061 6.64542,-1.487565 9.74518,-3.070675 0.94051,-0.48035 3.6514,-2.16755 2.77714,-1.54742 -2.03212,1.4414 -4.17236,2.67787 -6.25853,4.016805 4.85637,-3.345825 8.99571,-7.759845 12.82578,-12.468775 2.69612,-3.37755 4.87119,-7.20541 6.68918,-11.250678 0.57244,-1.36763 1.11728,-2.74931 1.65025,-4.13703 0,0 10.49025,-5.41287 10.49025,-5.41287 v 0 c -0.62094,1.43781 -1.27178,2.85811 -1.88443,4.30059 -1.82733,4.20456 -4.05474,8.179908 -6.81073,11.692848 -3.91399,4.84654 -8.1399,9.40485 -13.04674,12.96151 -5.60426,3.65748 -11.45245,8.252235 -17.77761,10.626625 -2.33989,0.87836 -4.79389,1.29402 -7.20928,1.79637 -3.46001,0.69447 -6.92656,1.35896 -10.37447,2.12267 z" />
    <path
       style="fill:url(#linearGradient30);fill-opacity:1;stroke-width:0.264583"
       id="path16"
       d="m 109.64741,80.978938 c 1.85172,-0.470223 3.74062,-0.574578 5.64444,-0.582285 5.62573,0.151191 11.14031,1.474952 16.61919,2.655615 4.40715,1.049089 8.79588,2.194714 13.05051,3.758959 2.78784,1.182802 5.49904,2.53387 8.2547,3.789384 2.07255,0.861721 4.07216,1.888051 6.05878,2.929533 3.54448,1.846775 9.48922,5.272151 -6.37962,-3.75261 -0.34945,-0.198731 0.68986,0.41333 1.02635,0.633278 0.81565,0.533143 1.0331,0.721011 1.78413,1.297032 0.90155,0.678173 1.76739,1.401403 2.6574,2.094185 0,0 10.8592,4.352611 10.8592,4.352611 v 0 c -0.91378,-0.737553 -1.85652,-1.43359 -2.77912,-2.160083 -0.60598,-0.469564 -1.18595,-0.97342 -1.80849,-1.420807 -0.33917,-0.243742 -0.69009,-0.471956 -1.05079,-0.682529 -4.40063,-2.56907 -8.75534,-5.224812 -13.28533,-7.561017 -2.00052,-1.019659 -4.00926,-2.021866 -6.08767,-2.875891 -2.70555,-1.215575 -5.36585,-2.54535 -8.14841,-3.578897 -4.15645,-1.387422 -8.42881,-2.372937 -12.70535,-3.314623 -5.67151,-1.178645 -11.35997,-2.503699 -17.16375,-2.788656 -0.64191,-0.01463 -1.28369,-0.05086 -1.92573,-0.04389 -1.46105,0.01585 -2.89992,0.281557 -4.349524,0.424699 z" />
    <path
       style="opacity:0.361746;fill:#008000;fill-opacity:1;stroke-width:0.281409"
       id="path47"
       d="m 106.61165,99.130035 c -1.66513,2.896055 -3.25668,5.838735 -5.06343,8.626975 -1.782004,2.90463 -4.204684,5.11484 -6.613614,7.31207 -4.08904,3.56485 -8.70856,6.1426 -13.267342,8.92265 -0.40718,0.24831 -0.8846,0.30733 -1.33163,0.44187 -1.14133,0.3435 -1.60668,0.42562 -2.7588,0.68284 -2.46213,0.60297 -4.97265,0.80602 -7.48121,0.9636 -1.91551,0.0585 -3.83267,0.0825 -5.74896,0.0819 -1.60425,0.0777 -3.18923,-0.0783 -4.783636,-0.23934 -0.85563,-0.0731 -0.43798,-0.0412 -1.252881,-0.0967 0,0 9.566757,-7.73055 9.566757,-7.73055 v 0 c 0.79457,0.0912 0.38748,0.0439 1.22124,0.14199 1.55641,0.16968 3.11554,0.21352 4.6791,0.17579 1.87896,0.005 3.75857,0.0395 5.63612,-0.0747 2.44434,-0.13165 4.879753,-0.43221 7.270072,-1.04475 1.0576,-0.2785 1.63834,-0.39679 2.67192,-0.8127 0.42563,-0.17127 1.6376,-0.85218 1.25313,-0.58386 -15.724512,10.97379 -9.562742,6.47754 -6.214599,3.94971 2.410429,-2.11802 4.872139,-4.22691 6.714619,-7.0184 1.82246,-2.5514 3.51707,-5.28939 4.687,-8.30204 z" />
    <path
       style="fill:url(#linearGradient28);fill-opacity:1;stroke-width:0.264583"
       id="path17"
       d="m 120.21921,64.464562 c 2.55319,-4.214794 4.39924,-8.797216 6.26013,-13.347121 1.79651,-4.346564 3.63826,-8.674221 5.47159,-13.005318 0.72529,-1.713431 1.41397,-3.442827 2.17596,-5.140259 1.39659,-3.111135 2.93236,-6.157907 4.39715,-9.23752 2.46559,-5.023464 5.05922,-9.999701 7.05292,-15.2358735 0.50675,-1.3418573 0.89138,-2.7213903 1.08021,-4.142932 0,0 -10.4569,-5.4272661 -10.4569,-5.4272661 v 0 c -0.0194,1.38790595 -0.21215,2.7609501 -0.56189,4.1061351 -1.46774,5.419282 -3.59318,10.6431295 -5.79665,15.7977505 -3.9835,9.135065 -8.29739,18.117883 -12.37559,27.210959 -2.07251,4.37284 -4.19768,8.84293 -7.46379,12.474958 z" />
    <path
       style="fill:#008000;fill-opacity:1;stroke-width:0.264583"
       id="path18"
       d="m 142.0526,62.184181 c 2.5451,-1.546674 5.62178,-1.392227 8.48535,-1.354198 4.20199,0.321773 8.43571,0.889656 12.38133,2.441517 0.50094,0.197027 0.98307,0.438896 1.47461,0.658344 0.38146,0.208957 1.52155,0.843465 1.14437,0.626869 -23.32366,-13.393771 0.77413,0.517266 1.69663,1.033206 0.86472,0.483627 1.80253,0.318254 2.75871,0.409485 0.91823,0.08761 1.83156,0.220575 2.74733,0.330862 6.0714,0.748493 12.04237,2.073174 17.85851,3.955724 2.61263,1.054391 5.23219,2.109483 7.71948,3.438221 0,0 -9.00276,-7.197622 -9.00276,-7.197622 v 0 c -2.42935,-1.110832 -4.89858,-2.139852 -7.4366,-2.978473 -5.83297,-1.659948 -11.78917,-2.73422 -17.77307,-3.697917 -2.03162,-0.383288 -3.25323,-0.519552 -5.12869,-1.167614 -0.27862,-0.09628 -1.04228,-0.550553 -0.78793,-0.401553 15.52085,9.092081 8.90333,5.024033 -1.62325,-0.893418 -0.34921,-0.196311 -0.73401,-0.321212 -1.10102,-0.481817 -1.36476,-0.486638 -1.71601,-0.64429 -3.20281,-1.020424 -3.41203,-0.863193 -6.93826,-1.159962 -10.43819,-1.410727 -3.28334,-0.07699 -6.79341,-0.364974 -9.76295,1.31244 z" />
    <path
       style="fill:#008000;fill-opacity:1;stroke-width:0.264583"
       id="path19"
       d="m 141.31251,56.307375 c 0.91458,-2.694125 2.4318,-5.146079 3.69482,-7.68804 2.21126,-4.824981 4.22564,-9.736658 6.27085,-14.633807 1.42475,-3.195971 2.73972,-6.437366 3.91489,-9.732764 0.53136,-1.651145 0.85195,-3.359807 1.02406,-5.083227 0,0 -10.44657,-5.400887 -10.44657,-5.400887 v 0 c -0.0294,1.670789 -0.19381,3.338084 -0.64841,4.952803 -0.95864,3.364785 -2.12018,6.675526 -3.34783,9.950059 -1.93396,4.89432 -3.97413,9.767765 -6.5194,14.379831 -1.37129,2.57202 -2.82163,5.101669 -4.35773,7.578707 z" />
    <path
       style="fill:#008000;fill-opacity:1;stroke-width:0.264583"
       id="path20"
       d="m 123.07438,63.765466 c -5.73665,-4.061753 -11.72578,-7.936317 -18.23102,-10.636139 -2.87359,-1.14278 -5.915859,-1.911088 -8.982655,-2.320311 -1.892758,-0.25256 -2.678092,-0.22566 -4.576816,-0.279418 -3.476643,0.101417 -6.932596,0.527899 -10.310733,1.353764 -1.52949,0.327898 -2.994056,0.884553 -4.500268,1.2929 -0.159473,0.03339 -0.318945,0.06679 -0.47842,0.100184 0,0 9.718432,6.682648 9.718432,6.682648 v 0 c 0.162247,-0.052 0.324498,-0.104005 0.486746,-0.156009 1.409565,-0.498787 2.823889,-0.979861 4.265292,-1.381154 3.184183,-0.857973 6.44303,-1.389809 9.752632,-1.347322 0.73821,0.03793 1.47825,0.0494 2.21463,0.1138 3.83687,0.335558 7.60927,1.31668 11.13673,2.854955 4.56818,2.158531 3.01666,1.494065 -5.97763,-3.710951 -0.51037,-0.295346 1.01025,0.608544 1.51005,0.921433 1.0933,0.684437 1.39615,0.870336 2.35294,1.613035 0.2206,0.171235 0.43029,0.356084 0.64543,0.534124 z" />
    <path
       style="fill:url(#linearGradient26);fill-opacity:1;stroke-width:0.264583"
       id="path21"
       d="m 141.03787,68.934684 c 3.25438,0.235241 6.47342,0.816485 9.68565,1.369248 3.35778,0.495583 6.64542,1.315008 9.74518,2.714466 0.94051,0.424614 3.6514,1.916088 2.77714,1.367903 -2.03212,-1.274188 -4.17236,-2.367216 -6.25853,-3.550822 4.85637,2.957674 8.99571,6.859638 12.82578,11.022299 2.69612,2.985722 4.87119,6.36952 6.68918,9.945512 0.57244,1.208971 1.11728,2.43036 1.65025,3.657098 0,0 10.49025,4.784932 10.49025,4.784932 v 0 c -0.62094,-1.271014 -1.27178,-2.526552 -1.88443,-3.801696 -1.82733,-3.716792 -4.05474,-7.230972 -6.81073,-10.336379 -3.91399,-4.2843 -8.1399,-8.313811 -13.04674,-11.457868 -5.60426,-3.233177 -11.45245,-7.294912 -17.77761,-9.393852 -2.33989,-0.77647 -4.79389,-1.143912 -7.20928,-1.587981 -3.46001,-0.613907 -6.92656,-1.201309 -10.37447,-1.87642 z" />
    <path
       style="opacity:0.361746;fill:url(#linearGradient48);fill-opacity:1;stroke-width:0.281409"
       id="path48"
       d="m 121.3222,105.69144 c 1.27145,1.36306 2.62361,2.6354 4.05208,3.78215 1.42163,1.07881 2.76531,2.28294 4.2342,3.28014 1.42419,1.15259 2.75914,2.41961 4.01287,3.80125 2.19922,2.31389 4.49992,4.49901 6.8408,6.626 2.12985,1.7962 4.35151,3.44133 6.56467,5.1005 2.00861,1.48226 4.01178,2.97367 5.97914,4.52614 1.08578,0.9602 2.3859,1.5588 3.45401,2.54538 0.33143,0.30613 1.20937,1.26391 1.50787,1.58509 1.70527,1.85876 3.21097,3.92915 4.77915,5.93134 1.11912,1.53392 2.21891,3.09488 3.19585,4.75 0.8309,1.48113 1.50614,3.07819 2.06587,4.71264 0.35838,1.06724 0.67106,2.15093 0.93938,3.25102 0,0 -10.32892,6.30614 -10.32892,6.30614 v 0 c -0.19303,-1.06657 -0.43418,-2.12095 -0.80701,-3.12825 -0.53659,-1.54031 -1.18001,-3.05098 -1.95267,-4.45749 -0.94623,-1.60758 -1.93873,-3.18504 -3.00399,-4.69446 -1.48182,-2.02108 -2.98443,-4.03787 -4.72695,-5.78196 -1.50435,-1.49536 -3.15201,-2.76133 -4.80367,-4.03855 -1.96833,-1.54778 -4.03411,-2.91668 -5.9808,-4.49925 -2.21782,-1.70916 -4.42016,-3.44453 -6.58776,-5.23456 -2.30154,-2.20426 -4.50915,-4.53405 -6.87448,-6.65278 -1.33793,-1.20374 -2.75014,-2.2931 -4.07472,-3.5169 -1.43689,-1.09711 -2.87986,-2.19082 -4.25626,-3.38277 -1.43569,-1.28451 -2.8506,-2.60163 -4.34619,-3.79715 z" />
    <path
       style="fill:#008000;fill-opacity:1;stroke-width:0.264583"
       id="path22"
       d="m 119.67504,55.0395 c -1.66513,-2.560106 -3.25668,-5.161407 -5.06343,-7.626183 -1.782,-2.56767 -4.20468,-4.521481 -6.61361,-6.463811 -4.08904,-3.151303 -8.708565,-5.430009 -13.267341,-7.887554 -0.407183,-0.219504 -0.884603,-0.271677 -1.331632,-0.39061 -1.141328,-0.303649 -1.60668,-0.376245 -2.758797,-0.603625 -2.462131,-0.533017 -4.972654,-0.712507 -7.481213,-0.851813 -1.915507,-0.0517 -3.83267,-0.07289 -5.748959,-0.07242 -1.604246,-0.06867 -3.18923,0.06922 -4.783638,0.211574 -0.855636,0.06463 -0.437986,0.03643 -1.252884,0.08555 0,0 9.566762,6.833746 9.566762,6.833746 v 0 c 0.794567,-0.08064 0.387482,-0.03885 1.22124,-0.125521 1.556406,-0.149995 3.11554,-0.188748 4.679095,-0.1554 1.878968,-0.0042 3.758573,-0.03492 5.636122,0.06597 2.44434,0.116379 4.879756,0.382071 7.270073,0.923557 1.057602,0.246184 1.638342,0.350761 2.671922,0.718421 0.42563,0.151399 1.6376,0.753311 1.25313,0.516122 -15.724516,-9.700736 -9.562741,-5.726086 -6.2146,-3.491508 2.410431,1.872314 4.87214,3.736549 6.71462,6.204207 1.82246,2.255412 3.51707,4.675775 4.687,7.338938 z" />
    <path
       style="fill:url(#linearGradient24);fill-opacity:1;stroke-width:0.264583"
       id="path23"
       d="m 134.00137,65.881863 c 1.27145,-1.204928 2.62361,-2.329662 4.05208,-3.343391 1.42163,-0.953654 2.76531,-2.018094 4.2342,-2.899614 1.42419,-1.018881 2.75914,-2.138916 4.01287,-3.360269 2.19922,-2.045462 4.49992,-3.97709 6.8408,-5.857333 2.12985,-1.587833 4.35151,-3.042113 6.56467,-4.508799 2.00861,-1.310314 4.01178,-2.628696 5.97914,-4.001068 1.08578,-0.848808 2.3859,-1.377972 3.45401,-2.250099 0.33143,-0.270616 1.20937,-1.117288 1.50787,-1.401204 1.70527,-1.643134 3.21097,-3.473344 4.77915,-5.243264 1.11912,-1.355966 2.21891,-2.735847 3.19585,-4.198951 0.8309,-1.309317 1.50614,-2.721102 2.06587,-4.165948 0.35838,-0.943425 0.67106,-1.901392 0.93938,-2.873871 0,0 -10.32892,-5.574574 -10.32892,-5.574574 v 0 c -0.19303,0.942836 -0.43418,1.874895 -0.80701,2.765348 -0.53659,1.361624 -1.18001,2.697041 -1.95267,3.940376 -0.94623,1.421091 -1.93873,2.815558 -3.00399,4.149875 -1.48182,1.786615 -2.98443,3.569444 -4.72695,5.111203 -1.50435,1.321882 -3.15201,2.440998 -4.80367,3.570049 -1.96833,1.368219 -4.03411,2.57832 -5.9808,3.977296 -2.21782,1.510879 -4.42016,3.044941 -6.58776,4.627311 -2.30154,1.948548 -4.50915,4.008064 -6.87448,5.880997 -1.33793,1.064104 -2.75014,2.027084 -4.07472,3.108912 -1.43689,0.969841 -2.87986,1.936673 -4.25626,2.990342 -1.43569,1.135502 -2.8506,2.299819 -4.34619,3.356645 z" />
    <path
       style="fill:url(#linearGradient39);fill-opacity:1;stroke-width:0.281409"
       id="path30"
       d="m 136.54262,139.71406 c 1.85172,0.53193 3.74062,0.64998 5.64444,0.65869 5.62573,-0.17103 11.14031,-1.66851 16.61919,-3.00411 4.40715,-1.18676 8.79588,-2.48274 13.05051,-4.25226 2.78784,-1.33802 5.49904,-2.86639 8.2547,-4.28666 2.07255,-0.97482 4.07216,-2.13584 6.05878,-3.31399 3.54448,-2.08913 9.48922,-5.96403 -6.37962,4.24507 -0.34945,0.22481 0.68986,-0.46757 1.02635,-0.71639 0.81565,-0.6031 1.0331,-0.81563 1.78413,-1.46724 0.90155,-0.76717 1.76739,-1.58531 2.6574,-2.369 0,0 10.8592,-4.92382 10.8592,-4.92382 v 0 c -0.91378,0.83434 -1.85652,1.62173 -2.77912,2.44356 -0.60598,0.53118 -1.18595,1.10116 -1.80849,1.60726 -0.33917,0.27573 -0.69009,0.53389 -1.05079,0.7721 -4.40063,2.90622 -8.75534,5.91048 -13.28533,8.55326 -2.00052,1.15347 -4.00926,2.2872 -6.08767,3.2533 -2.70555,1.3751 -5.36585,2.87938 -8.14841,4.04857 -4.15645,1.56949 -8.42881,2.68434 -12.70535,3.7496 -5.67151,1.33333 -11.35997,2.83227 -17.16375,3.15462 -0.64191,0.0165 -1.28369,0.0576 -1.92573,0.0497 -1.46105,-0.018 -2.89992,-0.31851 -4.34952,-0.48043 z" />
    <path
       style="fill:url(#linearGradient38);fill-opacity:1;stroke-width:0.281409"
       id="path31"
       d="m 147.11442,158.39565 c 2.55319,4.76791 4.39924,9.95169 6.26013,15.0987 1.79651,4.91697 3.63826,9.81255 5.47159,14.71202 0.72529,1.93829 1.41397,3.89464 2.17596,5.81483 1.39659,3.51942 2.93236,6.96603 4.39715,10.44978 2.46559,5.68271 5.05922,11.31198 7.05292,17.23531 0.50675,1.51795 0.89138,3.07853 1.08021,4.68662 0,0 -10.4569,6.1395 -10.4569,6.1395 v 0 c -0.0194,-1.57005 -0.21215,-3.12328 -0.56189,-4.64499 -1.46774,-6.13047 -3.59318,-12.03985 -5.79665,-17.87093 -3.9835,-10.33388 -8.29739,-20.49552 -12.37559,-30.78191 -2.07251,-4.9467 -4.19768,-10.00341 -7.46379,-14.11207 z" />
    <path
       style="fill:#008000;fill-opacity:1;stroke-width:0.281409"
       id="path32"
       d="m 168.20772,167.62332 c 0.91458,3.04769 2.4318,5.82141 3.69482,8.69696 2.21126,5.45817 4.22564,11.01442 6.27085,16.55424 1.42475,3.61538 2.73972,7.28214 3.91489,11.01001 0.53136,1.86783 0.85195,3.80072 1.02406,5.75031 0,0 -10.44657,6.10966 -10.44657,6.10966 v 0 c -0.0294,-1.89005 -0.19381,-3.77615 -0.64841,-5.60278 -0.95864,-3.80635 -2.12018,-7.55156 -3.34783,-11.25583 -1.93396,-5.53661 -3.97413,-11.0496 -6.5194,-16.26692 -1.37129,-2.90955 -2.82163,-5.77118 -4.35773,-8.57327 z" />
    <path
       style="fill:#008000;fill-opacity:1;stroke-width:0.281409"
       id="path33"
       d="m 141.13259,148.81262 c -5.73665,4.59478 -11.72578,8.97782 -18.23102,12.03194 -2.87359,1.29275 -5.91586,2.16189 -8.98265,2.62481 -1.89276,0.28571 -2.67809,0.25528 -4.57682,0.31609 -3.47664,-0.11473 -6.93259,-0.59718 -10.310729,-1.53143 -1.52949,-0.37092 -2.99406,-1.00063 -4.50027,-1.46257 -0.15947,-0.0378 -0.31894,-0.0756 -0.47842,-0.11332 0,0 9.718429,-7.55963 9.718429,-7.55963 v 0 c 0.16225,0.0588 0.3245,0.11766 0.48675,0.17648 1.40956,0.56425 2.82389,1.10845 4.26529,1.56241 3.18418,0.97057 6.44303,1.57219 9.75263,1.52414 0.73821,-0.0429 1.47825,-0.0559 2.21463,-0.12874 3.83687,-0.3796 7.60927,-1.48947 11.13673,-3.22962 4.56818,-2.4418 3.01666,-1.69013 -5.97763,4.19794 -0.51037,0.33411 1.01025,-0.6884 1.51005,-1.04235 1.0933,-0.77426 1.39615,-0.98455 2.35294,-1.82471 0.2206,-0.19371 0.43029,-0.40282 0.64543,-0.60422 z" />
    <path
       style="fill:url(#linearGradient37);fill-opacity:1;stroke-width:0.281409"
       id="path34"
       d="m 167.93308,153.3389 c 3.25438,-0.26611 6.47342,-0.92363 9.68565,-1.54894 3.35778,-0.56061 6.64542,-1.48757 9.74518,-3.07068 0.94051,-0.48035 3.6514,-2.16755 2.77714,-1.54742 -2.03212,1.4414 -4.17236,2.67787 -6.25853,4.01681 4.85637,-3.34583 8.99571,-7.75985 12.82578,-12.46878 2.69612,-3.37755 4.87119,-7.20541 6.68918,-11.25068 0.57244,-1.36763 1.11728,-2.74931 1.65025,-4.13703 0,0 10.49025,-5.41287 10.49025,-5.41287 v 0 c -0.62094,1.43781 -1.27178,2.85811 -1.88443,4.30059 -1.82733,4.20456 -4.05474,8.17991 -6.81073,11.69285 -3.91399,4.84654 -8.1399,9.40485 -13.04674,12.96151 -5.60426,3.65748 -11.45245,8.25224 -17.77761,10.62663 -2.33989,0.87836 -4.79389,1.29402 -7.20928,1.79637 -3.46001,0.69447 -6.92656,1.35896 -10.37447,2.12267 z" />
    <path
       style="fill:#008000;fill-opacity:1;stroke-width:0.281409"
       id="path35"
       d="m 146.18603,150.23094 c -1.66513,2.89606 -3.25668,5.83874 -5.06343,8.62698 -1.782,2.90463 -4.20468,5.11484 -6.61361,7.31207 -4.08904,3.56485 -8.70856,6.1426 -13.26734,8.92265 -0.40718,0.24831 -0.8846,0.30733 -1.33163,0.44187 -1.14133,0.3435 -1.60668,0.42562 -2.7588,0.68284 -2.46213,0.60297 -4.97265,0.80602 -7.48121,0.9636 -1.91551,0.0585 -3.83267,0.0825 -5.74896,0.0819 -1.60425,0.0777 -3.18923,-0.0783 -4.783636,-0.23934 -0.85563,-0.0731 -0.43798,-0.0412 -1.252881,-0.0967 0,0 9.566757,-7.73055 9.566757,-7.73055 v 0 c 0.79457,0.0912 0.38748,0.0439 1.22124,0.14199 1.55641,0.16968 3.11554,0.21352 4.6791,0.17579 1.87896,0.005 3.75857,0.0395 5.63612,-0.0747 2.44434,-0.13165 4.87975,-0.43221 7.27007,-1.04475 1.0576,-0.2785 1.63834,-0.39679 2.67192,-0.8127 0.42563,-0.17127 1.6376,-0.85218 1.25313,-0.58386 -15.72451,10.97379 -9.56274,6.47754 -6.2146,3.94971 2.41043,-2.11802 4.87214,-4.22691 6.71462,-7.0184 1.82246,-2.5514 3.51707,-5.28939 4.687,-8.30204 z" />
    <path
       style="fill:url(#linearGradient36);fill-opacity:1;stroke-width:0.281409"
       id="path36"
       d="m 160.89658,156.79235 c 1.27145,1.36306 2.62361,2.6354 4.05208,3.78215 1.42163,1.07881 2.76531,2.28294 4.2342,3.28014 1.42419,1.15259 2.75914,2.41961 4.01287,3.80125 2.19922,2.31389 4.49992,4.49901 6.8408,6.626 2.12985,1.7962 4.35151,3.44133 6.56467,5.1005 2.00861,1.48226 4.01178,2.97367 5.97914,4.52614 1.08578,0.9602 2.3859,1.5588 3.45401,2.54538 0.33143,0.30613 1.20937,1.26391 1.50787,1.58509 1.70527,1.85876 3.21097,3.92915 4.77915,5.93134 1.11912,1.53392 2.21891,3.09488 3.19585,4.75 0.8309,1.48113 1.50614,3.07819 2.06587,4.71264 0.35838,1.06724 0.67106,2.15093 0.93938,3.25102 0,0 -10.32892,6.30614 -10.32892,6.30614 v 0 c -0.19303,-1.06657 -0.43418,-2.12095 -0.80701,-3.12825 -0.53659,-1.54031 -1.18001,-3.05098 -1.95267,-4.45749 -0.94623,-1.60758 -1.93873,-3.18504 -3.00399,-4.69446 -1.48182,-2.02108 -2.98443,-4.03787 -4.72695,-5.78196 -1.50435,-1.49536 -3.15201,-2.76133 -4.80367,-4.03855 -1.96833,-1.54778 -4.03411,-2.91668 -5.9808,-4.49925 -2.21782,-1.70916 -4.42016,-3.44453 -6.58776,-5.23456 -2.30154,-2.20426 -4.50915,-4.53405 -6.87448,-6.65278 -1.33793,-1.20374 -2.75014,-2.2931 -4.07472,-3.5169 -1.43689,-1.09711 -2.87986,-2.19082 -4.25626,-3.38277 -1.43569,-1.28451 -2.8506,-2.60163 -4.34619,-3.79715 z" />
  </g>
</svg>
